<?xml version="1.0" encoding="UTF-8"?>
<svg width="91px" height="84px" viewBox="0 0 91 84" version="1.1" xmlns="http://www.w3.org/2000/svg" xmlns:xlink="http://www.w3.org/1999/xlink">
    <!-- Generator: Sketch 52.1 (67048) - http://www.bohemiancoding.com/sketch -->
    <title>Group 47</title>
    <desc>Created with Sketch.</desc>
    <g id="Page-1" stroke="none" stroke-width="1" fill="none" fill-rule="evenodd">
        <g id="Afterfit-Home-–-final" transform="translate(-606.000000, -7182.000000)">
            <g id="Group-65" transform="translate(452.000000, 7182.000000)">
                <g id="Group-47" transform="translate(154.000000, 0.000000)">
                    <circle id="Oval-3" fill-opacity="0.200000003" fill="#616AB1" cx="39" cy="39" r="39"></circle>
                    <path d="M77.5321874,58.321631 C76.6525124,58.321631 75.1857701,58.7105399 73.8097732,59.3364981 C71.1485248,60.5476717 68.5687622,63.3774473 66.711259,66.4405682 C68.0057702,66.3850098 69.8947565,65.8609087 72.0967219,64.721961 C75.9450685,62.7459332 78.7285454,59.8754148 78.1711092,58.4697868 C78.1618495,58.4475634 78.1581456,58.4364517 78.0803638,58.4012647 C77.9470236,58.3475582 77.7581249,58.321631 77.5321874,58.321631 M77.1377226,71.8186233 C76.0858165,71.8186233 74.6542612,72.4445815 73.8375524,72.9834982 C72.1726517,74.0798511 70.1781044,75.6465985 68.4520895,77.3114992 C71.4096494,77.0892655 75.1968818,75.8910556 77.3284732,74.2131913 C77.7303457,73.8965083 78.635948,73.098319 78.3766754,72.5297711 C78.2211118,72.181605 78.0007301,71.9797427 77.6692315,71.8834415 C77.5081121,71.8371428 77.3303251,71.8186233 77.1377226,71.8186233 M67.7168664,87.4064642 C65.7093554,87.4064642 64.2555768,86.921254 63.3110836,85.9471297 C62.524006,85.1248651 62.1813957,84.072959 62.3165879,82.8914166 C62.4573359,81.6191288 63.1647798,80.2301682 64.1814989,78.8578752 C63.9055587,78.7319428 63.6555458,78.5800831 63.4277563,78.409704 C62.5128943,77.6930004 61.4961752,76.226258 61.8406374,73.2705501 C62.0406477,71.5815741 62.6795696,69.6185099 63.6351744,67.6295184 C63.4814628,67.4739548 63.333307,67.3072796 63.2092265,67.1128251 C62.2795489,65.8609087 61.9461984,64.2793456 62.2184347,62.4125827 C62.6740137,59.3031631 64.7130078,56.0715149 66.3445734,53.9065885 C68.3335648,51.2675635 70.8040626,48.7711384 73.1060332,47.0543832 L74.3931366,48.7785462 C68.8391465,52.9009811 64.8537558,59.2309371 64.3463222,62.7237098 C64.1814989,63.8626575 64.3148391,64.8108545 64.7500467,65.5590413 C66.8334875,62.051453 69.7947513,58.8049892 72.9189865,57.3863976 C73.8412563,56.9641536 77.0043824,55.6511229 78.8841089,56.4104213 C79.4952516,56.6585822 79.9397189,57.0974938 80.1712124,57.6827091 C81.3712742,60.7236067 77.474777,64.3737949 73.0801059,66.6331707 C70.5818289,67.9221261 67.7001988,68.8499517 65.5815711,68.5184531 C64.7259714,70.2907668 64.1463119,72.0445609 63.9796366,73.518711 C63.8500003,74.6058041 63.8814834,76.0373594 64.7463428,76.7040605 C64.9759843,76.8855513 65.2722959,77.0281512 65.620462,77.1207486 C67.8687261,74.6724742 70.7577639,72.4445815 72.654158,71.1926651 C73.8264407,70.4166992 76.3247177,69.2592321 78.2655585,69.8203721 C79.2044958,70.0926084 79.9174956,70.7204185 80.3360357,71.6408364 C80.6990174,72.4519893 80.9675497,74.0798511 78.6581714,75.8947595 C76.0154425,77.9763483 70.3947822,79.8134801 66.4501344,79.4356828 C65.338966,80.7783447 64.5685559,82.0673 64.4518832,83.1303178 C64.388917,83.6784942 64.5185533,84.1025902 64.8593116,84.4507563 C66.6779239,86.3434465 73.8616277,84.5063147 78.3803793,82.5932531 L79.2137556,84.5822445 C79.093379,84.6285432 76.209897,85.8397168 72.8763917,86.6601295 C70.8707327,87.1583033 69.1521256,87.4064642 67.7168664,87.4064642" id="Fill-1-Copy-4" fill="#FFB800" transform="translate(71.173982, 67.230424) rotate(-60.000000) translate(-71.173982, -67.230424) "></path>
                    <path d="M20.3244937,17 L18,19.3244937 L23.1972474,40.4757836 L36.9774874,55.6731633 L54.7173824,61.5597433 C54.7173824,61.5597433 59.8024128,57.7539859 59.8024128,56.477919 L59.8024128,50.5208027 L46.8205161,45.2818748 L41.2224939,49.5108502 C34.6529937,46.1443421 30.6356273,42.1494191 27.2915625,35.5767127 L32.8575227,30.2993103 L30.7734938,19.3244937 L20.3244937,17 Z" id="Fill-1" fill="#19216C"></path>
                </g>
            </g>
        </g>
    </g>
</svg>