<?xml version="1.0" encoding="UTF-8"?>
<svg width="130px" height="33px" viewBox="0 0 130 33" version="1.1" xmlns="http://www.w3.org/2000/svg" xmlns:xlink="http://www.w3.org/1999/xlink">
    <!-- Generator: Sketch 51.1 (57501) - http://www.bohemiancoding.com/sketch -->
    <title>Group 22</title>
    <desc>Created with Sketch.</desc>
    <defs>
        <polygon id="path-1" points="0 0.300580547 17.8702979 0.300580547 17.8702979 18.8739848 0 18.8739848"></polygon>
        <polygon id="path-3" points="0.171370821 0.241033435 13.1069635 0.241033435 13.1069635 29.0400638 0.171370821 29.0400638"></polygon>
        <polygon id="path-5" points="0.23968997 0.0224328557 12.7595988 0.0224328557 12.7595988 30.0303951 0.23968997 30.0303951"></polygon>
    </defs>
    <g id="Page-1" stroke="none" stroke-width="1" fill="none" fill-rule="evenodd">
        <g id="Afterfit-Home-Copy-2" transform="translate(-375.000000, -25.000000)">
            <g id="Group-11" transform="translate(-3.000000, 0.000000)">
                <g id="Group-22" transform="translate(378.000000, 25.000000)">
                    <g id="Group-3" transform="translate(0.000000, 10.822717)">
                        <mask id="mask-2" fill="white">
                            <use xlink:href="#path-1"></use>
                        </mask>
                        <g id="Clip-2"></g>
                        <path d="M4.15272948,9.5246535 C4.15272948,11.2091216 4.60358055,12.5802462 5.5044924,13.640003 C6.4295076,14.7108237 7.60029787,15.2470243 9.00619453,15.2470243 C10.5088997,15.2470243 11.725921,14.729 12.650541,13.6945319 C13.5787173,12.6256869 14.0449787,11.265231 14.0449787,9.61593009 C14.0449787,7.96662918 13.5787173,6.60656839 12.650541,5.53693313 C11.725921,4.4890304 10.5203587,3.96626444 9.04096657,3.96626444 C7.64652888,3.96626444 6.47929483,4.49574772 5.53926444,5.55392401 C4.61108815,6.62513982 4.15272948,7.94805775 4.15272948,9.5246535 Z M13.7909058,0.788969605 L17.8702979,0.788969605 L17.8702979,18.3693951 L13.7909058,18.3693951 L13.7909058,16.528848 C12.1151307,18.0931945 10.3200243,18.8739848 8.39017629,18.8739848 C5.95929483,18.8739848 3.95239514,17.9983617 2.36552584,16.240003 C0.785768997,14.4456869 -0.000158054711,12.2103982 -0.000158054711,9.5246535 C-0.000158054711,6.88988146 0.785768997,4.69410638 2.36552584,2.93851368 C3.94093617,1.18015502 5.91345897,0.300580547 8.28230395,0.300580547 C10.3279271,0.300580547 12.1653131,1.14340729 13.7909058,2.82985106 L13.7909058,0.788969605 Z" id="Fill-1" fill="#19216C" mask="url(#mask-2)"></path>
                    </g>
                    <g id="Group-6" transform="translate(23.708207, 0.154024)">
                        <mask id="mask-4" fill="white">
                            <use xlink:href="#path-3"></use>
                        </mask>
                        <g id="Clip-5"></g>
                        <path d="M2.83340729,17.0231641 L0.171370821,17.0231641 L0.171370821,13.3645927 L2.83340729,13.3645927 L2.83340729,7.2277234 C2.83340729,5.03510942 3.38778419,3.32179635 4.49377204,2.08936474 C5.60292097,0.856537994 7.19413678,0.240914894 9.26267781,0.240914894 C9.87909119,0.240914894 10.5452918,0.33456231 11.2620699,0.517510638 C11.9745015,0.703224924 12.5905198,0.968361702 13.1069635,1.31292097 L11.3699422,4.30687234 C10.9538632,3.86392401 10.3951398,3.64264742 9.70918237,3.64264742 C7.88325532,3.64264742 6.97048936,4.87428875 6.97048936,7.33796657 L6.97048936,13.3645927 L11.8512188,13.3645927 L11.8512188,17.0231641 L6.97048936,17.0231641 L6.97048936,29.0400638 L2.83340729,29.0400638 L2.83340729,17.0231641 Z" id="Fill-4" fill="#19216C" mask="url(#mask-4)"></path>
                    </g>
                    <polygon id="Fill-7" fill="#19216C" points="46.152766 15.402155 46.152766 29.1940091 42.0927356 29.1940091 42.0927356 15.402155 40.3592705 15.402155 40.3592705 11.6116079 42.0927356 11.6116079 42.0927356 5.16811246 46.152766 5.16811246 46.152766 11.6116079 49.3154407 11.6116079 49.3154407 15.402155"></polygon>
                    <path d="M66.0222979,18.0371246 C65.4556717,15.8721702 64.0884985,14.7887052 61.9235441,14.7887052 C61.4304134,14.7887052 60.9681033,14.8649666 60.5326626,15.0131429 C60.097617,15.1640851 59.7048511,15.3802249 59.3504134,15.6631429 C58.9959757,15.9472462 58.6917204,16.2862736 58.4372523,16.6822006 C58.1906869,17.0808936 57.994304,17.5337204 57.8635137,18.0371246 L66.0222979,18.0371246 Z M66.7774043,28.4956049 C66.1072523,28.9124742 65.3750638,29.2171246 64.5930881,29.408766 C63.8111125,29.6011976 62.9639392,29.6976109 62.0468267,29.6976109 C59.427465,29.6976109 57.3202006,28.8559696 55.7293799,27.1715015 C54.1421155,25.4739939 53.3526322,23.2240851 53.3526322,20.4197994 C53.3526322,17.6404073 54.1191976,15.3897082 55.6598359,13.6708632 C57.2123283,11.9709848 59.2694103,11.1234164 61.8310821,11.1234164 C64.4160669,11.1234164 66.4652462,11.9488571 67.9715076,13.5977629 C69.4623587,15.2344195 70.2056109,17.5017143 70.2056109,20.401228 L70.1902006,21.357459 L57.5936353,21.357459 C57.6979514,22.8032644 58.167769,23.9523222 58.9999271,24.8054225 C59.8281337,25.6490395 60.895003,26.0698602 62.1934225,26.0698602 C63.2065532,26.0698602 64.0422675,25.8280365 64.7009605,25.3483404 L66.7774043,28.4956049 Z" id="Fill-9" fill="#19216C"></path>
                    <path d="M75.3716687,11.6116869 L79.4352553,11.6116869 L79.4352553,13.1823556 C80.1828541,12.3984043 80.8415471,11.8622036 81.4196322,11.5749392 C82.0087812,11.2746353 82.7061976,11.1232979 83.5150426,11.1232979 C84.582307,11.1232979 85.7068663,11.4729939 86.8705441,12.1739666 L85.009845,15.8894377 C84.2428845,15.3366413 83.4921246,15.0572796 82.7559848,15.0572796 C80.5412432,15.0572796 79.4352553,16.731079 79.4352553,20.0778875 L79.4352553,29.1921125 L75.3716687,29.1921125 L75.3716687,11.6116869 Z" id="Fill-11" fill="#19216C"></path>
                    <g id="Group-15" transform="translate(90.486322, 2.129708)">
                        <mask id="mask-6" fill="white">
                            <use xlink:href="#path-5"></use>
                        </mask>
                        <g id="Clip-14"></g>
                        <path d="M3.20598176,17.6860851 L0.470844985,17.8555988 L0.23968997,14.0958723 L2.97087538,13.9283343 L2.58206079,7.6223465 C2.43981155,5.37006687 2.90133131,3.57575076 3.96503951,2.23702736 C5.02440122,0.903045593 6.61917325,0.166510638 8.74579939,0.0345349544 C9.37722796,-0.00300303951 10.0667416,0.045993921 10.8103891,0.192589666 C11.5575927,0.334838906 12.208383,0.567179331 12.7595988,0.890796353 L11.168383,4.07638906 C10.7060729,3.64885106 10.1248267,3.45444377 9.41595137,3.50067477 C7.54379331,3.61605471 6.68476596,4.94134347 6.84242553,7.4729848 L7.22373252,13.6631976 L11.630693,13.3909483 L11.861848,17.1486991 L7.45923404,17.4213435 L8.22540426,29.7654164 L3.97254711,30.0305532 L3.20598176,17.6860851 Z" id="Fill-13" fill="#19216C" mask="url(#mask-6)"></path>
                    </g>
                    <polygon id="Fill-16" fill="#19216C" points="126.208505 8.79578419 125.53045 15.8375167 129.694401 16.2429271 129.371179 19.5778815 125.207228 19.1736565 123.977957 31.8607082 119.736954 31.4513465 120.961878 18.7642948 118.199872 18.4971824 118.519538 15.1602523 121.285495 15.4293404 121.971058 8.38563222"></polygon>
                    <path d="M112.537286,30.6837933 C112.055614,31.156772 111.500842,31.4140061 110.865462,31.45431 C110.264459,31.4906626 109.697833,31.3029726 109.178228,30.890845 C108.654277,30.4767416 108.372939,29.954766 108.334611,29.3209666 C108.295888,28.6855866 108.511632,28.1395076 108.977498,27.6799635 C109.444155,27.2184438 109.97917,26.9683222 110.587681,26.9327599 C111.223851,26.8924559 111.805097,27.0734286 112.336951,27.4709362 C112.86841,27.8696292 113.157255,28.3860729 113.195979,29.0198723 C113.234307,29.6532766 113.018957,30.2068632 112.537286,30.6837933" id="Fill-18" fill="#EE4056"></path>
                    <polygon id="Fill-20" fill="#19216C" points="108.396094 23.5620851 107.398769 7.49542857 111.655182 7.23187234 112.652508 23.2973435"></polygon>
                </g>
            </g>
        </g>
    </g>
</svg>