<?xml version="1.0" encoding="UTF-8"?>
<svg width="56px" height="56px" viewBox="0 0 56 56" version="1.1" xmlns="http://www.w3.org/2000/svg" xmlns:xlink="http://www.w3.org/1999/xlink">
    <!-- Generator: Sketch 51.3 (57544) - http://www.bohemiancoding.com/sketch -->
    <title>Group 15</title>
    <desc>Created with Sketch.</desc>
    <defs></defs>
    <g id="Page-1" stroke="none" stroke-width="1" fill="none" fill-rule="evenodd">
        <g id="Afterfit-Home-–-final" transform="translate(-1460.000000, -1739.000000)">
            <g id="Group-57" transform="translate(375.000000, 1510.000000)">
                <g id="Group-12" transform="translate(0.000000, 68.000000)">
                    <g id="Group-15" transform="translate(1086.000000, 162.000000)">
                        <circle id="Oval" fill="#FFB800" cx="27" cy="27" r="25"></circle>
                        <polygon id="Fill-3-Copy-2" fill="#112682" points="20.6041654 15 20.1075332 17.9207128 17.3486645 17.8369262 16.1996432 23.2662223 13.4214391 23.3772215 13 27.4952941 16.5197507 27.8558626 15.9586674 33.344597 18.1102627 33.5648052 17.8091324 36.5052114 20.9378793 36.8253189 21.7614222 28.7878984 29.9563901 29.8244882 30.9134902 37.8461541 33.8478093 38.1465682 34.1886845 34.8137259 36.5357817 35.0543437 37.0377848 30.1531893 40.4225461 29.9054103 40.7326279 26.8865885 36.2328612 26.4261206 36.2156742 22.7395129 34.2595808 22.53864 33.5277018 18.106189 31.1806045 17.8662873 30.364581 25.8260084 22.3454215 25.0046139 22.7550446 15.2205663"></polygon>
                        <circle id="Oval" stroke="#FFB800" stroke-linecap="square" cx="27" cy="27" r="27.5"></circle>
                    </g>
                </g>
            </g>
        </g>
    </g>
</svg>