<?xml version="1.0" encoding="UTF-8"?>
<svg width="497px" height="454px" viewBox="0 0 497 454" version="1.1" xmlns="http://www.w3.org/2000/svg" xmlns:xlink="http://www.w3.org/1999/xlink">
    <!-- Generator: Sketch 51.3 (57544) - http://www.bohemiancoding.com/sketch -->
    <title>Combined Shape</title>
    <desc>Created with Sketch.</desc>
    <defs></defs>
    <g id="Page-1" stroke="none" stroke-width="1" fill="none" fill-rule="evenodd" fill-opacity="0.1">
        <path d="M208.65574,314.06432 C159.546894,299.644701 157.378191,257.021929 170.86622,208.26869 L170.425468,208.133459 C187.028815,160.391948 238.366466,133.55613 287.425227,147.935681 C336.529064,162.350292 338.702775,204.973063 325.204729,253.736319 L325.65049,253.861533 C309.052151,301.613061 257.7145,328.443871 208.65574,314.06432 Z M496.031389,240.2952 C496.482159,218.317677 493.837644,196.705778 488.403366,175.960358 L362.648659,189.26307 L477.259339,143.404775 C461.647685,106.712127 436.820296,74.1365097 404.780593,49.3041122 L333.819438,116.163264 L384.445874,35.230083 C366.885893,24.3765522 347.602971,15.6566644 326.847534,9.5712745 C314.130822,5.85492942 301.354008,3.26049983 288.627279,1.71285747 L280.919119,100.646772 L269.499621,0.175232216 C214.67101,-1.94839355 161.650486,15.3160829 119.047748,47.2806574 L139.61286,90.3091219 L94.7913341,68.2314276 C93.509145,69.488574 92.24699,70.7707632 91.0048693,72.0629694 L141.420947,121.968175 L67.6750372,100.34125 C54.182,119.574087 43.4436659,141.170961 36.0260014,164.711152 L8.35375532,156.587282 C5.72927443,166.233751 3.70581969,175.92029 2.32846807,185.576777 L72.1927505,206.076777 L0.0495772207,213.709809 C-0.401192399,235.677316 2.22829705,257.299232 7.67760089,278.044651 L133.42229,264.731922 L18.8116105,310.590218 C34.4332821,347.287873 59.260671,379.863491 91.2953653,404.700897 L162.25652,337.836737 L111.625075,418.764909 C129.195073,429.623449 148.46297,438.348345 169.233432,444.423718 C181.940127,448.15008 194.716942,450.734492 207.443671,452.287143 L215.161848,353.353229 L226.576337,453.824769 C281.394931,455.948394 334.425472,438.683918 377.02821,406.714335 L356.468107,363.680862 L401.289633,385.768573 C402.571822,384.506418 403.82396,383.224229 405.076097,381.937031 L354.644994,332.026817 L428.405929,353.653742 C441.883941,334.420905 452.637301,312.824032 460.049957,289.288849 L487.717194,297.407711 C490.346684,287.771258 492.36513,278.074703 493.742481,268.423224 L423.888216,247.928232 L496.031389,240.2952 Z" id="Combined-Shape" fill="#616AB1"></path>
    </g>
</svg>