<?xml version="1.0" encoding="UTF-8"?>
<svg width="501px" height="418px" viewBox="0 0 501 418" version="1.1" xmlns="http://www.w3.org/2000/svg" xmlns:xlink="http://www.w3.org/1999/xlink">
    <!-- Generator: Sketch 51.3 (57544) - http://www.bohemiancoding.com/sketch -->
    <title>Fill 3</title>
    <desc>Created with Sketch.</desc>
    <defs></defs>
    <g id="Page-1" stroke="none" stroke-width="1" fill="none" fill-rule="evenodd" fill-opacity="0.5">
        <path d="M348.401486,323.002206 C348.204255,322.164659 348.014916,321.319098 347.827969,320.474315 C290.403993,338.818082 231.975915,349.143274 171.666005,341.744315 C111.825749,334.401438 53.2309479,322.65983 0.678328091,288.114759 L6.80629847,277.450149 C130.705504,279.408456 253.429133,281.351032 376.136049,283.292145 C376.158102,282.740037 376.180156,282.18793 376.204632,281.640575 C255.181213,271.087867 134.172114,260.535846 13.1535689,249.996621 C93.2229338,217.815252 176.676323,215.597478 260.634921,220.947948 C209.098653,192.263701 157.679705,163.633441 105.864607,134.781912 C105.217138,135.71256 255.772436,185.223269 328.207006,215.286187 C327.577912,212.770648 326.166027,211.903352 324.757433,211.050346 C295.329689,193.143224 265.213854,176.263289 236.652071,157.082675 C198.503169,131.440632 167.834021,98.7701819 150.688266,55.1077816 C143.924845,37.9050283 143.402691,20.1427198 144.775918,0.412758557 C237.005676,77.4224482 328.049292,153.443832 419.05467,229.456759 C419.403481,229.099405 419.736357,228.738197 420.089204,228.388766 C362.952077,169.593128 305.82054,110.800628 248.697733,52.0056759 C250.856629,51.3307759 251.939258,51.7790611 252.957022,52.3781509 C311.972691,86.8733627 371.204579,121.040859 429.927354,156.030587 C451.118716,168.670115 470.710325,183.77132 485.578151,204.047634 C497.38181,220.15119 502.902351,238.110963 499.023756,257.714403 C496.397712,271.025442 492.259291,284.165041 487.484694,296.894322 C471.525863,339.495784 446.126905,374.67477 405.441135,397.243368 C373.908081,414.727303 339.330071,417.159386 304.328957,417.076752 C260.620697,416.971939 218.416471,406.720367 176.032477,397.721968 C166.772188,395.760267 157.658402,393.08725 148.487568,390.756645 C148.595146,390.05119 148.689361,389.366514 148.797685,388.654691 C215.32806,366.772682 281.863279,344.90018 348.401486,323.002206 Z" id="Fill-3" fill="#FFB800" fill-rule="nonzero"></path>
    </g>
</svg>