<?xml version="1.0" encoding="utf-8"?>
<!-- Generator: Adobe Illustrator 22.1.0, SVG Export Plug-In . SVG Version: 6.00 Build 0)  -->
<svg version="1.1" id="Layer_1" xmlns="http://www.w3.org/2000/svg" xmlns:xlink="http://www.w3.org/1999/xlink" x="0px" y="0px"
	 viewBox="0 0 1920 800" style="enable-background:new 0 0 1920 800;" xml:space="preserve">
<style type="text/css">
	.st0{fill:#A0A8CD;}
	.st1{fill:#FCDAE2;}
	.st2{clip-path:url(#SVGID_2_);}
	.st3{clip-path:url(#SVGID_6_);}
	.st4{fill:#707DB4;}
	.st5{fill:#F1466F;}
	.st6{fill:#ED174B;}
	.st7{fill:#474E8A;}
	.st8{fill:#FFF2CF;}
	.st9{fill:#FFE59F;}
	.st10{fill:#112682;}
	.st11{fill:#FED870;}
	.st12{fill:#FEBE10;}
	.st13{fill:#19226D;}
	.st14{fill:#D8D7EB;}
	.st15{clip-path:url(#SVGID_10_);}
	.st16{clip-path:url(#SVGID_14_);}
</style>
<g>
	<g>
		<circle class="st0" cx="1453.9" cy="454.1" r="65.9"/>
		<g>
			<g>
				<rect y="0.3" class="st1" width="1920" height="800"/>
			</g>
		</g>
		<g>
			<defs>
				<polygon id="SVGID_1_" points="747.3,633.3 786.3,659.3 839.3,688.3 929.3,705.3 1034.3,698.3 1107.3,670.3 1169.3,626.3 
					1227.3,553.3 1257.3,486.3 1269.3,431.3 1273.3,381.3 1264.3,321.3 1248.3,273.3 1213.3,214.3 1166.3,164.3 1092.3,117.3 
					1034.3,97.3 970.3,89.3 873.3,100.3 782.3,143.3 732.4,188.8 683.8,250.8 650.2,328.8 643.4,410.5 656.4,497.5 678.2,544 
					730.8,613.1 				"/>
			</defs>
			<use xlink:href="#SVGID_1_"  style="overflow:visible;fill:#FFFFFF;"/>
			<clipPath id="SVGID_2_">
				<use xlink:href="#SVGID_1_"  style="overflow:visible;"/>
			</clipPath>
			<g class="st2">
				<defs>
					<rect id="SVGID_3_" x="0.3" y="0.3" width="1920" height="8222"/>
				</defs>
				<use xlink:href="#SVGID_3_"  style="overflow:visible;fill:#FFFFFF;"/>
				<clipPath id="SVGID_4_">
					<use xlink:href="#SVGID_3_"  style="overflow:visible;"/>
				</clipPath>
			</g>
		</g>
		<g>
			<defs>
				<polygon id="SVGID_5_" points="732.4,251.8 702.7,318.8 694.5,441.6 705.3,492.2 734.5,544.7 782.3,601.3 840.3,635.3 
					917.3,661.3 1001.3,656.3 1111.3,614.3 1187.3,544.3 1215.3,484.3 1231.3,424.3 1225.3,321.3 1192.3,252.3 1111.3,181.3 
					1031.3,137.3 942.3,130.3 848.3,151.3 781.3,200.3 				"/>
			</defs>
			<use xlink:href="#SVGID_5_"  style="overflow:visible;fill:#F8A2B7;"/>
			<clipPath id="SVGID_6_">
				<use xlink:href="#SVGID_5_"  style="overflow:visible;"/>
			</clipPath>
			<g class="st3">
				<defs>
					<rect id="SVGID_7_" x="0.3" y="0.3" width="1920" height="8222"/>
				</defs>
				<use xlink:href="#SVGID_7_"  style="overflow:visible;fill:#F8A2B7;"/>
				<clipPath id="SVGID_8_">
					<use xlink:href="#SVGID_7_"  style="overflow:visible;"/>
				</clipPath>
			</g>
		</g>
		<polygon class="st0" points="816.4,571.2 813.5,565.1 808.3,561.7 803.7,561.7 803,558.9 801.3,558.9 801.3,554.5 796.2,551.4 
			789.4,552.8 788.9,555.1 786.8,556.1 782.2,553.2 776.6,553.7 772.2,557.1 771.7,560.7 772.5,567.1 771.7,571.2 771.7,575 
			772.9,578.6 774.8,583.4 777.3,582.5 779.1,584.9 778.2,588.1 780.5,589.6 782.8,591.6 781.8,595.3 780.4,597.5 784.9,597.5 
			786.6,597.5 786.8,598.7 785.5,600.8 787.4,602.4 790.3,603.7 790.1,606 788.1,606 791.7,609 791.9,611.3 793.4,615.8 
			795.8,616.5 797,618.6 800.5,623.4 802.2,625.9 804.2,626.9 805,629.5 806.2,632.1 810.6,632.1 814.4,629.7 816.4,634.1 
			818.8,636.1 821.3,635.6 822.4,635.2 824.3,636.7 827.2,635.6 829.6,633.3 831,635.7 835.4,642.1 839.6,645.5 844.9,645.9 
			848,645.9 854.5,641.7 858,641.4 859,638.6 861.9,637.8 866.6,631.7 864.2,627.9 867.6,626.4 869.4,624.6 868.4,621.5 
			869.4,618.1 871.4,614.4 871.4,608.9 868.7,607 871.4,606.6 868.5,603.2 866.5,599.2 866,593.7 868,589.8 867.6,584 865.7,581 
			866.3,578.5 864.3,576.1 862.2,576.6 863.6,573.7 860.9,572.2 858.6,572.2 857.9,570.7 855.4,569.4 855.5,567 855.4,564.6 
			852,563.6 847.7,562.1 846,560.4 842.5,557.7 836.2,555.9 831.9,555.9 827.5,559.1 820.8,562.4 819.8,565.4 		"/>
		<polygon class="st4" points="997.3,170.3 986.3,186.3 983.3,198.3 983.3,205.3 979.3,206.3 979.3,208.3 977.3,210.3 977.3,217.3 
			973.3,218.3 970.3,216.8 970.3,231.3 976.3,245.3 991.3,253.3 998.3,257.3 1002.3,250.3 1008.3,244.3 1007.3,240.3 1010.3,233.3 
			1005.3,230.3 1006.3,224.3 1008.3,223.3 1007.3,218.3 1008.3,210.3 1005.3,208.3 1003.3,206.3 1006.3,202.3 1008.3,195.3 
			1004.3,193.3 1004.3,188.3 999.3,188.3 999.3,183.3 1000.3,179.3 		"/>
		<polygon class="st0" points="995.3,264.3 983.3,269.3 979.3,272.3 949.3,272.3 946.3,271.3 942.3,272.3 937.3,268.3 928.3,267.3 
			926.3,270.3 923.3,267.3 919.3,267.3 917.3,262.3 913.3,263.3 904.3,258.3 905.3,254.3 900.3,254.3 896.3,248.3 889.3,244.3 
			893.3,240.3 887.3,238.3 879.3,224.3 883.3,223.3 876.3,216.3 876.3,205.3 891.3,198.3 893.3,198.3 893.3,194.3 897.3,195.3 
			899.3,193.3 902.3,194.3 906.3,193.3 910.3,194.3 910.3,188.3 916.3,190.3 920.3,190.3 925.3,192.3 927.3,189.3 933.3,192.3 
			936.3,191.3 939.3,195.3 942.3,193.3 947.3,197.3 949.3,195.3 951.3,200.3 954.3,200.3 955.3,204.3 960.3,205.3 962.3,209.3 
			965.3,208.3 970.3,214.3 970.3,224.3 974.3,240.3 988.3,251.3 		"/>
		<polygon class="st4" points="1080.3,150.3 1088.3,154.3 1081.1,164 1080.3,169.3 1078.3,171.3 1082.3,173.3 1078.3,176.3 
			1079.3,178.3 1077.3,180.3 1078.3,182.3 1073.3,184.3 1075.3,188.3 1071.3,190.3 1048.3,204.3 1039.3,220.3 1041.3,224.3 
			1041.3,228.3 1043.3,231.3 1043.3,233.3 1039.3,233.3 1041.3,237.3 1040.3,240.3 1036.3,240.3 1034.3,242.3 1034.3,245.3 
			1032.3,246.3 1030.3,252.3 1025.3,252.3 1018.3,260.3 1018.3,265.3 1006.3,267.3 1006.3,260.3 1005.3,255.3 1005.3,243.3 
			1008.3,228.3 1012.3,223.3 1012.3,220.3 1014.3,216.3 1016.3,216.3 1015.3,212.3 1017.3,208.3 1019.3,208.3 1019.3,205.3 
			1030.3,194.3 1032.3,194.3 1032.3,189.3 1036.3,180.3 1039.3,180.3 1040.3,174.3 1041.3,170.3 1050.3,169.3 1053.3,163.3 
			1057.3,163.3 1064,155.4 1068.3,154.3 1071.3,151.3 1073.3,156.3 		"/>
		<polygon class="st0" points="1039.3,220.3 1039.3,211.3 1043.3,205.3 1045.3,205.3 1045.3,203.3 1046.3,197.3 1050.3,197.3 
			1052.3,196.3 1054.3,193.3 1059.3,192.3 1068.3,188.3 1071.3,190.3 1065.3,195.3 1055.3,202.3 1048.3,209.3 		"/>
		<polygon class="st0" points="1004.3,214.3 1008.3,210.3 1007.3,218.3 1008.3,223.3 1006.3,224.3 1005.3,230.3 1005.3,221.3 		"/>
		<g>
			<path class="st5" d="M946.3,278.3l8-5h6l5-4h10l4,3l6.4-3l12.6,4l3,3l2,5h9l3,6l1,10l4,4c0,0,2,6,0,12c0,0,1,9-5,15c0,0-1,8-7,14
				c0,0-4,10-13,12c0,0-10,7-20,3c0,0-11,3-15-4c0,0-11,0-12-8l-4.6-8.7l-10.4-26.3c0,0-1-6,2-6c0,0-4-6,2-9c0,0-1-7,4-8
				C941.3,287.3,941.3,279.3,946.3,278.3z"/>
			<path class="st6" d="M960.3,287.3l8-3h11l3,7l3-4c0,0,2,3,6,4c0,0-2,4-1,8c0,0-4,0-4,4c0,0-3-1-5,0c0,0-2-4-6-4c0,0-5,0-7,2
				c0,0,0-6-3-8L960.3,287.3z"/>
		</g>
		<path class="st4" d="M782.3,348.3l4,1l4,2l3,4l2-4l4,4l6,1l2,5c0,0,2-1,3,2l2,2c0,0,2,0,2,2l2,4c0,0,0,2,2,2c0,0,2,0,2,2h2l1,4h2
			c0,0-1,0,0,2s1,3,1,4l2,2l4,2v3c0,0,2,1,2,2c0,0,2.4,1.6,2.4,3.4v2.1l3,1.8c0,0,2,4.7,1.7,8.2l0,4.2c0,0,3,2.1,3.6,6v5l-3.9,2.6
			l-15.4,5.3c0,0-6.4,1.8-7.5,0c0,0-3.3,0.5-6.7-1.7l-2.7-2.2l-3.2-0.2l-1.2-1.2c0,0-2.4,0.7-3.4-1.5l-2.6,0.2l-5-4.8l-9.6-3
			l-0.9-2.7l1.6-1.8l-3.8-2.6l-2.9-2.1l1.3-2.5l0.8-1.5l-1.6-1.4l1.4-0.9l-2.7-2.6l-0.7-2.6l1.8-0.4l-1.8-1.5l-1.1-6.3l1.5-2.6
			l2.8,1.2l-2-3.1l-2.2-4.1l0.7-3.4l2,0.9l2.4-3.3l1.5,1.7l3.1-6.2l1.1,0.4l0.7-4.1l1.8-1.8c0,0-1-2.6-0.7-5l-1.2-4.3l-3.1-3
			L782.3,348.3z"/>
		<polygon class="st0" points="800.5,565.8 794.8,572.5 792.2,581.6 792.2,593.4 792.8,596.6 793.4,600.7 793.8,588.5 794.8,578.6 
			797,572.1 		"/>
		<polygon class="st0" points="814.1,573.6 809.4,579.4 805.3,591.5 803.1,609.2 804.2,608.4 805.5,598.7 806.8,589.6 810.2,582 		
			"/>
		<polygon class="st0" points="819.4,578.4 819.4,588.9 822.7,598.2 828.7,609.7 828.7,620.5 836.3,636.1 834.6,630.2 830.2,620.1 
			829.6,609.2 826.9,602.9 822.5,595.1 820.6,588.2 		"/>
		<polygon class="st0" points="824.9,568.2 829.5,568.7 835.4,569.6 840.5,574.6 847.1,585.5 852,597.8 852,594.9 847.2,584.3 
			839.9,572 835.1,568.2 		"/>
		<path class="st5" d="M875.9,506.8l5.5,11.9l12.9,7.6l9.7,13.1l4.3,15c0,0,8.3,15.9,23.8,16.8s37.3,4,49.5-13.4
			c12.2-17.4,27.5-44.6,30.9-56.6c3.4-11.9,17.1-40.5,15-44.7c-2.1-4.2-64.6,16.7-64.6,16.7l-29.7,4.4l-14.8,13.8l-32.4,8.3
			L875.9,506.8z"/>
		<polygon class="st6" points="982.3,477.1 949.2,502.8 923.9,516.6 907.1,532.5 898.8,532.5 897.3,524.8 908.9,519 916.8,519 
			937.9,504.8 948,494.9 964.2,482.6 		"/>
		<polygon class="st6" points="1027.6,459.3 1018,494.6 1009.3,517.5 998.2,546.8 985.9,556.3 962.9,568.2 943.8,573.6 927.2,572.1 
			908.3,554.5 911.8,549 927.2,560.9 937,565.8 964.2,557.2 976.3,551.4 999.1,525.1 1009.3,498.4 		"/>
		<path class="st7" d="M885.3,520.4l-10.5-1.2l-10.4-3.2l-9.2-1l4.6,5.9l7.6,5.9l-9.6-2.5l-1.3-0.8l3.5,4.6l2.8,1.5H854l-7.5,1.6
			l5.6,3.5l7.1,2l8.1-1.7l4.8,5.6l4.6,2.4l3.6,1.2l-11.4,3.4l-4.9,5.3l-4.3,5.2l1.7,2.1c0,0,2.1,0.5,2.1,0s3.7-5.9,3.7-5.9l8.7-3.6
			l7.6-0.4l-6.5,7.4l-4,2.7l-0.9-0.9l2.5,2.5l4.3,3.9l-2.4,3.7l-4.6,1.6l4.1,1.3l10.7-1.7l9.2-1.8l5.3-2.2l2.2-2.4l4.3-6.6
			l-0.9-13.9l-2.2-10.1l-11.8-12.7L885.3,520.4z"/>
		<path class="st8" d="M924.2,593.2c0,0-4.8-4,9.4-6.1s29.3-3.5,29.3-3.5s22.2,1,28.5,7.1c6.3,6.1,4,7.9,4,7.9l-4.1,7.5l1.8,4.4
			c0,0-8.9,3-29.1,0C943.6,607.7,925.9,605.9,924.2,593.2z"/>
		<path class="st9" d="M1055,445.3c0,0,5.1,2.6,0,19.7c-5.1,17.1-9,29.4-9,29.4s-0.6,2.4-11.4,1.8c-10.8-0.6-11.1-8.2-10-19.2
			c1.1-10.9,5.2-26.8,5.2-26.8L1055,445.3z"/>
		<path class="st8" d="M1027.6,452.8c0,0,6.4,12.2,10.9,12.2s14.4-2.5,17.1-12.2c2.7-9.7,6-20.9,4.5-30.5
			c-1.5-9.6-0.6-24.6-5.1-31.3c-4.5-6.8-12.9-16.7-12.9-16.7l-14.3-6.6l-10-11.4l-8-19.2l-14.4,17.3c0,0-13,7.1-2.5,16.1
			c10.5,9,16.5,18,16.5,18l8.7,7.4l3.2,17.5L1027.6,452.8z"/>
		<polygon class="st8" points="1137.9,354.8 1154.6,334.6 1162.6,339.3 1176.7,349 1191.8,377 1190.2,393.3 1180,398.3 
			1165.8,391.4 1151,378.9 1140.5,372.2 		"/>
		<path class="st6" d="M1090.2,372.2l40-18.8l19.7-26.4l10.3-19.1l-3-25.2l-12.7-15.4l-10.9-2.2l-9.7-9.7l-13.6-8.2l-9.4-16.9
			l-15.5-1.9l-22.1,7.9c0,0-3-1.5-10.9,12.7c-7.9,14.2-19.7,46.7-19.7,46.7l-3,25.6l23.9,19.6L1090.2,372.2z"/>
		<polygon class="st5" points="1106.5,276.4 1083.8,287.8 1066.7,303.3 1066.7,332.3 1091.9,316.1 1103.9,293.8 		"/>
		<polygon class="st10" points="1131,239.4 1128.4,232.9 1134,222.8 1139.3,210.4 1142.2,201.1 1146,207.1 1148.3,200 1150.4,203.9 
			1150.4,209.9 1152.5,212.2 1148.8,226.5 1137.9,241.8 		"/>
		<polygon class="st10" points="1123.9,212.2 1130,207.4 1128.4,217.8 1126.1,229.3 1118.6,219.5 1117.8,208.8 1114.6,205.2 
			1118.1,195.4 1119.5,193 		"/>
		<polygon class="st10" points="1097,211.2 1101,215 1103.9,218.9 1097,217.9 1089.9,217.6 1084.8,216.3 1083.8,208.3 1093.8,213.6 
					"/>
		<polygon class="st10" points="1145.6,232.6 1154,227.9 1156.2,227 1153.8,233.8 1162.5,230.4 1164.1,232.4 1160.2,235.5 
			1157.5,238.5 1161,240.6 1151.5,247.3 1145.6,251.6 1143.4,244.3 1137.9,242.8 1137.9,241.8 		"/>
		<polygon class="st10" points="1165.8,267.3 1172.8,265.7 1174,268.5 1169.9,270.9 1181.1,273.3 1185,274.9 1184.1,277.5 
			1179.5,277.5 1184.2,280.3 1180.7,280.3 1175.4,278.4 1168.1,273 		"/>
		<polygon class="st4" points="1075.5,219.8 1084.8,216.3 1099.4,217 1109.9,220.3 1109.4,212.5 1112.4,214.1 1112.4,208.3 
			1111.1,206.5 1113.9,207.9 1114.6,205.2 1117.8,208.8 1118.6,219.5 1126.1,229.3 1128.4,232.9 1131,239.4 1137.9,239.9 
			1140.5,239.9 1144.4,245.1 1145.6,251.6 1144.5,257.7 1165.8,267.3 1168.1,273 1174.4,277.7 1176.7,283.4 1176.7,287.1 
			1173.6,284.9 1175.4,294 1174.9,297 1172.2,290.9 1169.4,287.1 1168.3,288.4 1168.4,290.9 1164.6,285.9 1164.1,281 1157.2,276.6 
			1150.4,271.6 1145.8,270.3 1137.9,266.6 1111.5,250.3 1101.7,239.3 1084.3,223.9 		"/>
		<polygon class="st0" points="1114.1,250.8 1112.9,243.1 1114.6,239.3 1117.9,243.5 1120.2,241.8 1123.7,236.3 1124.3,243 
			1126.9,241.8 1129.2,245.3 1133.8,247.1 1133.8,252.4 1137.9,255.8 1136.1,258.3 1140.5,261.2 1141.2,267.3 1126.7,265.7 
			1115.8,253.7 		"/>
		<g>
			<path class="st6" d="M823.3,321.3l-6,26l9,31c0,0,32,41,46,40s20-9,40-8c0,0,10,2,16-9s18-61,15-73s-9.1-26-21.5-29
				s-56.5-8-56.5-8l-22,7L823.3,321.3z"/>
			<path class="st10" d="M845.3,305.3l-14,12l-8,4l-7-8h12c0,0,7-22,17-22h11l10-4c0,0,2-20,12-21l4,5c0,0,8-5,8-10c0,0,7,9,7,14
				l32,25l-30-4l-0.9,0.1l-15.1,1.9l-1,8l-18-5l-3-6l3,11l-6,8l-2-3v3l-1-1v6l-6-4c0,0,1-6,0-8S845.3,305.3,845.3,305.3z"/>
		</g>
		<g>
			<polygon class="st11" points="899,299.2 898,299.2 895.7,298.5 895.7,296.3 898.4,296.4 			"/>
			<polygon class="st11" points="909,296.7 911.5,297.8 911.5,295.6 908.4,295.1 			"/>
			<polygon class="st11" points="911.5,300.1 911.5,304.8 914,304.1 915.8,303.6 			"/>
			<path class="st11" d="M898.5,307.3h2.1l0.8,3.9l-1.5,0.4C899.9,311.5,897.7,310.1,898.5,307.3z"/>
			<polygon class="st11" points="884.9,314 888.3,315.1 888.3,317.7 887.1,317.7 			"/>
			<polygon class="st11" points="874.4,310.5 876.5,313.1 875.4,314 874.4,313.4 			"/>
			<polygon class="st11" points="862.4,310 863.5,312.2 863.5,314.4 861.3,313.1 			"/>
			<polygon class="st11" points="855.9,324.5 858.4,327.2 857.6,329.4 856.4,330.3 855.1,329.4 			"/>
			<polygon class="st11" points="870.2,322.8 871.9,325 871.9,327.8 871.1,328.4 869.4,326.2 			"/>
			<polygon class="st11" points="880.6,328.4 882.5,330.3 882.5,332.8 882.5,333.9 879.7,332.4 879.7,328.8 			"/>
			<polygon class="st11" points="893,332.8 894.8,333.9 894.8,336.7 894.8,338.7 893,337.9 892.1,333.9 			"/>
			<polygon class="st11" points="898.3,321 899,324.5 900.6,324.5 900.6,322.3 			"/>
			<polygon class="st11" points="910.9,312.2 914,314.4 915.2,312.9 912.7,310 			"/>
			<polygon class="st11" points="925.7,308.3 925.7,310 928,312.2 928.3,309.4 			"/>
			<polygon class="st11" points="931.4,310.2 934,312.2 933.3,310.3 931.4,309.4 			"/>
			<polygon class="st11" points="927,319.5 928.3,321.3 927.7,323.7 925.7,321.6 			"/>
			<polygon class="st11" points="935.2,331.9 936.4,334.7 935.2,337 934.4,334.4 			"/>
			<polygon class="st11" points="921.5,331.2 924.1,332.8 924.1,334.4 924.1,337 922.8,336.3 			"/>
			<polygon class="st11" points="910.9,326.1 913.6,327.7 913.1,331.9 911.5,330.3 			"/>
			<polygon class="st11" points="904,340.6 906.4,340.6 906.4,342.8 907.1,346.3 905.6,346.7 904,343.6 			"/>
			<polygon class="st11" points="862.4,334.8 865.2,336.4 863.8,340.6 862.4,341.5 861.3,338.1 			"/>
			<polygon class="st11" points="848.3,338.1 850.7,338.7 850.7,340.9 849.5,343.1 848.3,341.8 			"/>
			<polygon class="st11" points="841.6,325.6 844.2,327.9 842.9,331.2 841,331.2 840.7,327.4 			"/>
			<polygon class="st11" points="830.5,327.4 831.2,329 831.2,331.5 829.3,334.8 827.8,332.8 828.5,329.7 			"/>
			<polygon class="st11" points="824.4,338.1 825.8,340.6 825.1,343.6 823.6,343.1 823,340.9 			"/>
			<polygon class="st11" points="820.7,347.1 822,348.3 821.3,351.4 820.7,352.8 819.4,351.6 			"/>
			<polygon class="st11" points="830,350.9 831.2,353.2 830.6,355.6 829.1,356.2 827.8,352.8 			"/>
			<polygon class="st11" points="833.6,342.8 835,340.9 835.6,337.4 834.3,337.4 832.9,340.6 			"/>
			<polygon class="st11" points="841.3,350 842.4,351.9 841.8,354.5 840.7,356.2 840.7,352.8 			"/>
			<polygon class="st11" points="851.7,358.5 853.5,359.3 854.2,361.8 854.2,363.6 850.7,362.2 			"/>
			<polygon class="st11" points="835.6,357.8 837.8,360.5 837.8,363.6 836.7,364.1 836.1,361.9 			"/>
			<polygon class="st11" points="825.8,358.9 827.8,359.6 827.8,361.5 827.8,363.6 826.2,363 			"/>
			<polygon class="st11" points="845.7,368.3 845.7,366.9 847.8,367.6 848.3,371.7 847,372.9 			"/>
			<polygon class="st11" points="840.7,374.7 842.4,375.2 843.3,377 843.7,380.2 842.2,380.2 			"/>
			<polygon class="st11" points="864.5,356.2 867.5,356.2 867.5,359.4 866,362.8 864.5,359.5 			"/>
			<polygon class="st11" points="871.3,349.4 872.4,345.1 871.3,343.6 869.9,343.6 869.9,346.5 			"/>
			<polygon class="st11" points="880.6,346.5 882.5,347.1 883.3,350 883.3,353.1 881.1,352.4 880.6,349 			"/>
			<polygon class="st11" points="893.1,350.9 894.4,351.5 897,353.5 897,355.7 895.1,356.2 892.7,353.5 			"/>
			<polygon class="st11" points="886.6,364.1 888.8,364.7 888.8,366.9 888.8,369.4 887.7,369.4 886.6,368 			"/>
			<polygon class="st11" points="876.1,362 878.9,363.6 878.1,366.9 876.8,366.7 875.3,364.9 			"/>
			<polygon class="st11" points="862.8,368.1 863.5,369.9 863.5,371.9 862.1,371.2 			"/>
			<polygon class="st11" points="857.1,375.4 858.4,376.7 858.9,379.6 858,381.2 857.1,379.3 			"/>
			<polygon class="st11" points="866.7,381.6 868.1,382.7 868.1,385.2 866.7,385.6 			"/>
			<polygon class="st11" points="870.6,372.4 871.9,371.7 873.7,372 874.1,374.7 874.1,376.2 871.2,374.7 			"/>
			<polygon class="st11" points="881.1,376.9 882.5,376.2 884.1,377.4 884.8,379.4 884.8,381.6 882.9,380.2 			"/>
			<polygon class="st11" points="891.1,378.9 894.4,380.2 894.4,382.6 893.4,384.1 891.1,382.8 			"/>
			<polygon class="st11" points="897,369 898.3,368.6 899.2,369.9 899.6,371.9 899.6,373.3 897.7,373.3 			"/>
			<path class="st11" d="M876.3,383.6c1.8,1.3,1.8,1.3,1.8,1.3v3.3l-1.8,1l-0.4-2.4L876.3,383.6z"/>
			<polygon class="st11" points="886.1,388.6 888.8,389.8 889.3,393 887.7,393 885.6,391 			"/>
			<polygon class="st11" points="871.9,393.8 873.6,394.4 873.6,397.3 872.4,397.7 			"/>
			<polygon class="st11" points="860.7,387.3 863.2,388.2 863.2,392.2 861.3,392.2 			"/>
			<polygon class="st11" points="851.4,382.9 852.8,384.1 852.1,386.4 850.7,385.1 			"/>
			<polygon class="st11" points="849.5,389.2 850.7,391.4 850.7,393 848.8,393 			"/>
			<polygon class="st11" points="858.9,394.3 860.7,395.8 860.7,398.3 858,397 			"/>
			<polygon class="st11" points="858.4,400.3 860.1,402.4 858.9,404.3 858,402.9 			"/>
			<polygon class="st11" points="867.4,399.8 869,400.7 869.9,402.9 868.7,404.3 866.7,402.7 			"/>
			<polygon class="st11" points="878.9,403.3 880.2,404.8 880.6,406.7 880.1,408.8 878.1,407.7 878.1,405.2 			"/>
			<polygon class="st11" points="881.9,396.9 884.1,397.7 884.1,399.8 884.1,402.3 881.9,402 881.9,399.2 			"/>
			<polygon class="st11" points="891.5,400.7 894.8,402.7 894.8,404.3 892.7,404.3 891.1,402.3 			"/>
			<polygon class="st11" points="896.1,393.8 898.3,393.8 898.3,395.4 899.6,397.7 898.3,399 896.6,396.9 			"/>
			<polygon class="st11" points="899.6,385.6 901.3,384.1 903.3,384.8 904,387.3 904,389.5 901.1,389.2 899.6,386.4 			"/>
			<polygon class="st11" points="906.6,375.4 907.5,373.3 909,374.4 909,377.4 909,379.4 906.6,378.3 906.6,376.2 			"/>
			<polygon class="st11" points="913.4,364.1 914,362.8 915.6,362.8 916.8,364.4 916.8,368.6 914.5,366.9 			"/>
			<polygon class="st11" points="921,371 922.4,373.3 921.7,377.4 			"/>
			<polygon class="st11" points="914.7,382.9 914.7,387.3 913.4,387.7 			"/>
			<polygon class="st11" points="909,395 911,397.3 909,401.1 907.8,398.6 			"/>
			<polygon class="st11" points="917.9,395 921,394.3 920.4,391.5 918.7,390.8 			"/>
			<path class="st11" d="M924,382.9l1.5-1.3c0,0,0.7-1.8,0.7-2.2s-0.7-1.1-0.7-1.1L924,382.9z"/>
			<polygon class="st11" points="929.3,368.1 930.1,365.7 929.7,362.8 928.2,363.6 928.2,366.5 			"/>
			<polygon class="st11" points="924.1,354 926.7,356.2 924.6,359.5 921.7,360.3 923.8,354.8 			"/>
			<polygon class="st11" points="918.5,349.4 916.8,346.5 915.1,345.3 915.1,348.4 918.5,350.9 			"/>
			<polygon class="st11" points="930.1,342.9 930.1,345.3 930.1,347.1 932.1,346 931.1,343.3 			"/>
			<polygon class="st11" points="938.9,342.1 938.9,345.3 940.7,345.3 940.7,342.9 			"/>
			<polygon class="st11" points="935.4,350.3 936.4,352.5 935.4,354.8 934.9,352.6 			"/>
			<polygon class="st11" points="938.9,357.6 938.9,361.6 937.2,364.1 937.2,362 			"/>
			<polygon class="st11" points="933.6,371 934.9,373.9 934.3,375.4 933.2,374.9 			"/>
			<polygon class="st11" points="929.8,385.6 931.1,389.5 929.1,390.8 928.6,388.6 			"/>
			<polygon class="st11" points="914,402.9 915.8,404.9 914.9,407.4 913.3,406 			"/>
			<polygon class="st11" points="920.1,402 922.4,400.7 923.6,398 922.4,396.9 			"/>
			<polygon class="st11" points="903.1,404.3 905.5,405.2 905.5,408.8 904,408.2 			"/>
			<polygon class="st11" points="887.4,408.8 889.3,411 889.3,412.7 887.4,412.3 			"/>
			<polygon class="st11" points="876.2,410.2 878.1,411.7 878.1,414.3 875.9,413.7 			"/>
			<polygon class="st11" points="866.7,405.2 868.3,406.6 868.1,408.8 866,407.9 			"/>
			<polygon class="st11" points="866,410.8 867.5,411.4 868.1,414.3 867.1,414.3 			"/>
			<polygon class="st11" points="841.5,382.4 842.4,382.4 843.7,385.6 843.1,386.8 841.1,385.3 			"/>
		</g>
		<path class="st12" d="M1357.6,110.4l15.4-0.8l9,0.8l2.3,1.7v5.6l-2.9,2v4.4l2.3,3h5.9l3.3,4.4v5.9l2.4,4l-0.9,6.5l2.4,2.6l1.7,6.5
			l5.6,11.3l5.2,7.3l-3,7.9l-7.5,5l-11.1,11c0,0-9.1-1.1-15.8-22.2C1365.2,156.2,1356.1,132.7,1357.6,110.4z"/>
		<polygon class="st12" points="1369.5,0 1366,12.2 1369.5,19.4 1378.4,19.4 1385.2,19.4 1386.6,9.7 1379.7,0 		"/>
		<polygon class="st12" points="1433.1,0.5 1379.7,0 1383.4,11.8 1389.7,11.8 1399.6,11.8 1406.4,11.8 1416.7,11.8 1424.2,14.6 
			1428,14.6 		"/>
		<path class="st12" d="M1519.7,29.6l12.7-2.1l19.9-13l5.5,16.8l-3.4,12.7l5.8,24.3l6.2,31.8v5.1l-16.9,4.3l-6.3-1.6l-1.4,3.8h-9.6
			c0,0-13.3-9.6-14-18.1c-0.7-8.6-4.8-20.2-4.8-20.2l-2.1-13.1L1519.7,29.6z"/>
		<polygon class="st12" points="1538.7,151.5 1546.1,147 1554.3,154.6 1562.2,160.7 1571,167.2 1568.7,172.7 1556.7,175.1 
			1545.4,164.8 		"/>
		<polygon class="st12" points="1573.7,162.9 1578.3,164 1579.6,158.7 1576.6,155.7 1574.9,158.3 		"/>
		<polygon class="st12" points="1558,36.2 1566.3,36.2 1576.6,39 1577.7,51.9 1575.3,60.3 1563.9,63.2 1558,66.7 1551.4,46.8 		"/>
		<polygon class="st12" points="1571,22.5 1576.6,23.8 1577.7,21.6 1579.6,16.1 1573.7,14.6 1571,18.1 1568.4,21 		"/>
		<polygon class="st12" points="1584.9,27.4 1590.6,30.1 1590.6,36.2 1594,41.9 1591.8,44.9 1584.9,41.9 1582.1,43.6 1579.6,38.1 
			1579.6,33.5 		"/>
		<polygon class="st12" points="1581.1,52.9 1589.7,55.7 1589.7,64.6 1586.8,74.9 1584.2,80.7 1580.6,81 1574,81.7 1562,71.3 
			1562,61.8 1569.6,52.9 		"/>
		<polygon class="st12" points="1588.7,86.8 1594,92.5 1596.3,107.9 1596.3,113.4 1588.7,115.8 1575.9,111.8 1571,106.2 
			1564.6,99.1 1560.5,86.8 1566.3,82.6 1574,81.7 1576.6,79.4 		"/>
		<path class="st12" d="M1381.7,291c0,0,23.5-10.3,33.1-10.7c9.6-0.5,21.9-2.7,21.9-2.7l4.4-35.2c0,0-22.7-8.7-36.1-3.3
			s-43.7,29.5-43.7,29.5L1381.7,291z"/>
		<polygon class="st12" points="1267.8,143.6 1262.8,141.5 1263.8,136.2 1270.8,128.2 1281.3,128.2 1288.4,129.1 1294.9,128.2 
			1298.1,129.5 1296.8,138.3 1291.8,141.1 1285.3,144.8 1285.3,147.2 1280.5,146.1 1274.8,147.2 		"/>
		<polygon class="st12" points="1312.5,178 1321.8,177.4 1326.4,174.9 1329.3,178 1330.6,188.5 1337.1,197.6 1334.2,202.6 
			1327,202.6 1321,206.6 1314.2,205.1 1307.7,201.8 1302,197.3 1306.2,182.4 		"/>
		<g>
			<circle class="st6" cx="1427.8" cy="299.2" r="21.3"/>
			
				<ellipse transform="matrix(0.239 -0.971 0.971 0.239 902.3566 1654.1418)" class="st6" cx="1506.5" cy="251.4" rx="21.3" ry="23.8"/>
			<circle class="st6" cx="1489.2" cy="297" r="19.1"/>
			<ellipse class="st5" cx="1520.5" cy="305.8" rx="19.2" ry="15.6"/>
			<circle class="st6" cx="1541.9" cy="279.3" r="21.3"/>
			<circle class="st5" cx="1569" cy="267.1" r="21.3"/>
			<circle class="st6" cx="1563.2" cy="219.7" r="21.3"/>
			<ellipse class="st5" cx="1601.9" cy="243" rx="19.6" ry="20.1"/>
			<circle class="st5" cx="1614.8" cy="208.7" r="21.3"/>
			<circle class="st5" cx="1609.6" cy="162.9" r="21.3"/>
			<circle class="st6" cx="1646.4" cy="141.6" r="21.3"/>
			<circle class="st5" cx="1678.4" cy="148.9" r="21.3"/>
			<circle class="st6" cx="1652.3" cy="184.2" r="21.3"/>
			<circle class="st6" cx="1689" cy="185.3" r="21.3"/>
			<circle class="st5" cx="1706" cy="175.6" r="21.1"/>
			<circle class="st6" cx="1738" cy="155.6" r="21.1"/>
			<polygon class="st13" points="1422,299.7 1424.5,299 1428.6,302.6 1435.4,302.6 1449.5,302.6 1466.8,297.7 1478.2,288.1 
				1479.9,288.1 1474.3,296.5 1493.9,286.7 1505.4,276.1 1510,266.7 1515.3,256.3 1516.7,253.9 1518.1,255.6 1518.1,260.9 
				1511.5,272.9 1548.6,252 1564.5,241.8 1577.8,232.9 1587.9,215.1 1594.2,204.2 1601.8,194 1605.5,191.2 1605.5,193.3 
				1608.3,192.2 1612.4,186.9 1616.3,182.8 1615.2,177.4 1617.9,175.1 1617.9,180.5 1618.8,182.7 1624.6,178.5 1632.8,170.2 
				1642.8,168.9 1654.5,164.9 1655.9,158.8 1658.1,158.8 1657.5,164 1661.7,162.2 1672.4,155.7 1674.1,157.1 1664,162.7 1677.1,161 
				1680.5,159 1684,161 1696.4,159 1699.4,155.7 1703.6,147 1705.2,147 1703.4,151.5 1701.7,157.3 1710.8,153.8 1715.1,151.3 
				1717.9,147.9 1720.9,144 1720.9,139.5 1723.7,141.7 1724.5,144.6 1719,151.3 1726.1,152.1 1724.8,154.8 1720.4,154.4 
				1716.5,155.7 1714.8,156.6 1715.5,158.5 1713.6,159.9 1709.5,156.8 1699.9,159.9 1690.2,162.9 1691.9,165.8 1695,169.9 
				1691.9,170.5 1688.8,166 1682.9,164 1674.6,165.2 1663.4,166.8 1654.5,169.1 1651.2,171.1 1647.2,172.1 1641.1,173 1633.4,176.6 
				1627.7,181.4 1623.6,184.5 1635.5,180.6 1635.5,184.5 1622.2,186.6 1623.5,188.4 1624.4,191.1 1619.4,189.1 1616.1,190.1 
				1606.3,198.9 1596.2,208.9 1600.4,210.7 1597.7,215.1 1597,221 1596.7,224.8 1596.5,228.2 1590.7,230.2 1589.9,233.2 
				1594.5,236.8 1593.2,239.7 1587.1,234.9 1581.2,237.4 1574,243.3 1571,245.5 1572.6,248.9 1572,251.9 1569.4,252.7 1569.4,248 
				1566.6,247.4 1559.9,251.6 1552.7,253.9 1556.6,258.3 1554.9,260.3 1551,257.7 1548,258 1543,260.3 1545,261.6 1542.6,264.4 
				1537.7,262.5 1526.5,269.3 1534.6,270.6 1538.7,270.4 1539.4,273.2 1536.9,275.1 1533.7,273.4 1531,271.7 1523.5,270.4 
				1517.6,274.3 1507.8,280.4 1503,282.9 1498,287.7 1506.1,289.6 1511.8,294.8 1510.4,297.1 1507.5,297.1 1507.5,293 1503.7,290.6 
				1497.3,289.5 1493.4,291.8 1475.5,297.9 1468.3,300.8 1463.3,302.6 1449.8,305.7 1439.3,308.5 1430.3,306.6 1424.8,305.7 			"/>
			<polygon class="st13" points="1684.9,202.9 1689,206.6 1684.9,209.6 1686,211.2 1683.2,210.3 1680.8,207.1 			"/>
			<circle class="st5" cx="1479.1" cy="268" r="21.3"/>
		</g>
		<polygon class="st4" points="1281.7,589.4 1281.7,593.3 1286.7,594.8 1288.1,601.2 1294.1,606 1297.4,611.8 1301.2,610.1 
			1307.8,616.3 1306.7,621 1314.2,618.8 1318.3,621.9 1324.5,619.6 1328.7,622.9 1334.7,617.9 1342.3,624.6 1346.2,627.9 
			1351.8,624.4 1356.4,625.2 1362.4,631 1367.7,629.9 1371.4,631 1371.4,627.2 1383.8,628.5 1386.9,624.8 1394.6,625.8 
			1401.2,624.2 1398.3,618.4 1404.7,620.6 1408.9,618 1414,617.7 1411.8,611.7 1416.9,611.7 1423.1,605.3 1428.1,601.8 
			1419.2,589.4 1415.5,587.2 1418.6,584.7 1411.8,580.9 1406.4,580.9 1404.5,578.1 1407,573.5 1402.9,574.8 1399.8,572.5 
			1396.9,571 1395.2,567.1 1393.8,564 1389.2,565.9 1386.1,564 1380.9,564 1380.9,558.6 1374.1,560.1 1371.9,559.7 1367.7,564 
			1366.1,562.1 1364,564 1349.7,570.2 1322.9,578.5 1302.2,582 1286.7,585.7 		"/>
		<path class="st7" d="M1286.7,585.7h10.5h4.6h3.9l2.5-2.5l5,2.5h3.5l5.8-1.3l3.3-1.3l2.1-2.7h4.5l3.9-2.1v-2.7h7l6.4-3.7
			c0,0,4.1,0.4,5,0s5,0,5,0l-1-4.1l6-2.1l-0.8-1.7l-6.6,2.1l-9.7,0.8l-7.4,4.8l-9.3,0.6l-10.5,3.7H1310l-8.1,3.9l-13,1.7
			L1286.7,585.7z"/>
		<polygon class="st12" points="1187.7,633 1194.5,633 1199.3,636.7 1199.3,647.5 1202.7,649.1 1206.6,650.9 1206.6,657.5 
			1202.4,663.5 1204.3,667.7 1204.3,676.1 1201.9,676.1 1191.1,670.3 1187.7,673 1184,674.3 1181.9,671.9 1181.9,661.3 
			1181.9,654.6 1184.6,652.5 1183.5,648.5 1185.3,645.6 1181.9,640.6 1184.8,639.9 1184.8,633 		"/>
		<polygon class="st12" points="1217,639.9 1227.1,648.4 1241.4,655.3 1238.9,662.4 1235.3,668.8 1236.3,678.5 1235,683.2 
			1235.7,691.1 1234,699 1234.1,705.1 1229,717 1230.4,719.9 1200.2,725.3 1207,702.9 1209.7,676.3 1211.4,654.7 		"/>
		<polygon class="st12" points="1337.6,682.4 1347.3,679.4 1360.4,679.4 1359,685.1 1364.8,688.9 1364.8,695.8 1352.8,697.1 
			1345.8,705.3 1339.1,705.3 1335.4,696.4 1330.3,687.6 		"/>
		<polygon class="st12" points="1373.2,713 1392.6,717.9 1394.2,711.4 1409.9,714.7 1412.7,714.7 1412.7,720.5 1418.7,725 
			1416.9,727.1 1412.1,727.1 1412.5,729.1 1416.5,733.6 1418.7,739.5 1411.2,746.4 1411.2,753.2 1414.7,759.2 1414.7,763.8 
			1416.9,768 1413.6,776 1413.9,793.9 1408.5,800.3 1388.9,780.2 1383.6,772.5 1379.1,751 1373.2,748.6 1378.7,740.2 1366.1,736.9 
			1364.8,731.3 1372.1,726.5 1371.2,718.7 		"/>
		<polygon class="st12" points="1432.6,702.8 1449.9,701.7 1452.8,728 1455,739.7 1449.7,741.3 1439.5,728.9 1434.2,719.8 		"/>
		<polygon class="st12" points="1423.6,694.4 1428.4,701.7 1450.5,692.4 1466,679.4 1478.8,658.6 1480.3,654.7 1486.8,637 
			1467.6,635.9 1458.9,633 1455,633.9 1455,643.1 1449.4,646.7 1442.6,656.4 1441,661.3 1428.1,665.2 1421.4,667.3 1428.1,675.4 
			1425.8,688.2 		"/>
		<polygon class="st12" points="1485,659.3 1485,667.3 1492.8,673.9 1495.4,672.8 1499.6,673.9 1505.8,668.3 1504,660.8 
			1506.9,661.5 1506.9,655.7 1510.7,653.3 1513.5,653.3 1513.5,645.1 1513.5,640.5 1508.7,638.1 1505.4,635.4 1506.9,628.8 
			1496.3,628.8 1489.4,631 1487.9,639.8 1485,645.6 1482.4,655.5 		"/>
		<polygon class="st12" points="1660.2,605.3 1666.5,608.3 1666.5,613.5 1671.4,613.5 1683,613.5 1690,612 1696.1,609.4 
			1700.1,605.3 1696.1,594.9 1683.3,585.8 1666.5,585.8 1660.2,587 1655.6,591.2 1655.6,604 		"/>
		<polygon class="st12" points="1610.8,701.7 1636.1,683.5 1663.5,677.8 1687,679.6 1689.1,686 1700.1,709.7 1703.4,721.5 
			1703.4,728.3 1696.4,728.3 1689.1,728.3 1672.9,721.5 1664.7,720.1 1647.4,721.5 1640,725.6 1637,728.3 		"/>
		<polygon class="st12" points="1607.1,760.6 1618.4,774.6 1630,760.6 1632.4,755.9 1626,747.2 		"/>
		<polygon class="st12" points="1811.2,800.3 1819.2,789.6 1823.1,783.8 1827.4,783.8 1832.3,783.8 1836.8,786.5 1828.9,800.3 		"/>
		<polygon class="st12" points="1890.7,694.2 1903.2,694.2 1906.6,691.2 1901.4,682.3 1895.3,682.3 1890.7,684.8 		"/>
		<path class="st14" d="M1519.7,447.8l312.2,55.4l9.7,5.8l2.7,9.1l-2.7,11L1831,537l-32-3.4l-280.9-46v10.7c0,0,288.5,53,308.3,50.3
			l12.5-4l14-10.1l3.4-9.1v-17.7l-10.1-9.5l-21.6-9.3l-309.2-56L1519.7,447.8z"/>
		<polygon class="st11" points="1441.4,467.3 1451.2,457.2 1467.6,460 1471.9,469.4 1467,474 1456.7,479.8 1445.1,484.3 
			1435.3,482.8 1435.3,474.6 		"/>
		<polygon class="st14" points="1441.4,442.6 1453.6,435.6 1453.6,421.9 1442.7,421.9 1439.3,427.7 1439.3,439.8 		"/>
		<polygon class="st11" points="1455.8,444.4 1471.9,443.5 1473.4,449.3 1473.4,454.8 1468.9,462.7 1455.8,465.4 1451.2,457.2 		"/>
		<path class="st14" d="M1464.3,430.7h11v5.2l-3.4,7.6c0,0-6.4,2.7-7.6,2.7s-4-1.8-4-3.7c0-1.8,0-6.4,0-6.4L1464.3,430.7z"/>
		<path class="st8" d="M1473.4,399l12.8-1.5l4.3,2.8v13c0,0-2.4,8.8-4.3,8.5s-12.5-2.1-12.8-2.1s-4.3-2.7-4.3-4.9
			S1473.4,399,1473.4,399z"/>
		<path class="st11" d="M1456.4,388.4l9.7,2.7v9.2c0,0,3.7,8.8,0,9.4c-3.7,0.6-12.5,3.3-12.5,3.3l-6.1-3.3l6.1-21.3H1456.4z"/>
		<polygon class="st9" points="1439.3,391.7 1447.5,391.7 1449.1,399 1439.3,407.9 1430.5,406 1428.1,399.8 1435.3,393.8 		"/>
		<path class="st8" d="M1417.1,400.7l10.7,5.3l11.5,1.8c0,0,1,7.9-0.7,8.5c-1.7,0.6-10.8,5.5-10.8,5.5h-6.7l-5.5-6.7l-2.1-7.3
			L1417.1,400.7z"/>
		<polygon class="st9" points="1404.9,411.3 1397.6,419.4 1394.8,425.8 1406.4,432.8 1421,432.8 1427.8,421.9 1420.7,418.2 
			1408.2,415.2 		"/>
		<polygon class="st8" points="1393.3,435.9 1397.6,442.6 1408.2,443.5 1417.4,435.9 1417.4,426.4 1406.4,421.9 1394.8,428.6 		"/>
		<path class="st11" d="M1393.3,445l4.3-6.5h12.2l5.5,9.6c0,0-1.5,11.3-1.8,12.2c-0.3,0.9-12.5,1.5-12.5,1.5l-6.1-7.3L1393.3,445z"
			/>
		<polygon class="st9" points="1387.2,457.2 1391.2,451.7 1397.3,451.7 1404.3,451.7 1404.3,463.3 1397.9,467.6 1388.7,465.4 		"/>
		<polygon class="st14" points="1394.8,463.3 1393.3,470.8 1393.3,480.4 1404.3,480.4 1410.1,471.8 1404.3,463.3 		"/>
		<polygon class="st11" points="1410.1,454.5 1411.3,465.4 1417.4,465.4 1417.4,470.8 1424.4,471.8 1433.5,467.6 1428.1,447.8 
			1415.2,448.1 		"/>
		<polygon class="st11" points="1425,438.5 1439.3,439.8 1438.6,451.7 1430.7,457.2 1421.8,454.5 1421.8,446.2 		"/>
		<path class="st8" d="M1473.4,449.3l11.6,2.4c0,0,0.6,1.5,2.1,2.7c1.5,1.2,4.9,13.1,4.9,13.1l-1.5,12.8l-7.8,2.4l-6.2-7.6
			l-1.2-11.9L1473.4,449.3z"/>
		<path class="st14" d="M1488.7,438.5l12.7,4.1v7.5v7.1l-9.3,2.4l-9.3-5.2c0,0-1.4-11,0-11.9
			C1484.1,441.7,1488.7,438.5,1488.7,438.5z"/>
		<polygon class="st14" points="1507.2,417.6 1513.3,420.4 1515.5,432.8 1503.9,438.5 1495,432.8 1497.5,428 		"/>
		<path class="st9" d="M1498.1,407.9l7.2,1.8l2.6,3.3v12.2h-7.7c0,0-6.6-0.2-6.6-3.2s2.7-10.8,2.7-10.8L1498.1,407.9z"/>
		<polygon class="st9" points="1485.6,407.9 1493.5,406.3 1496.3,411.3 1494.9,415 1490.5,427.1 1482.7,427.1 1479.8,420.8 		"/>
		<polygon class="st8" points="1500.1,425.2 1500.7,432.8 1488.7,438.5 1485.6,430.7 1485.6,417.6 1496.3,417.6 		"/>
		<polygon class="st11" points="1510.6,432.7 1518.2,438.5 1519.7,447.8 1510.6,454.5 1501.3,452.9 1496.3,442.6 1500.7,436.4 		"/>
		<polygon class="st14" points="1515.5,446.2 1519.7,451.7 1519.7,461.8 1515.5,467.6 1507.8,467.6 1501.3,465.4 		"/>
		<path class="st11" d="M1500.7,485.5l4.6,5.2l2.6,9.7l-6.5,10.4l-9.3,2.1c0,0-7.6-7.9-6.4-9.1s2.4-8.8,2.4-8.8l2.4-6.7
			L1500.7,485.5z"/>
		<path class="st14" d="M1460.3,521.2l-11.2,9.7l-2.6-6.1l-2-11.9l7.9-3.7c0,0,6.1,0.9,7.9,0c1.8-0.9,3.4,1.5,3.4,3.7
			C1463.7,515.1,1460.3,521.2,1460.3,521.2z"/>
		<path class="st11" d="M1466.4,520l7,4.2l6.4-4.2c0,0-0.6-2.5,0-7.1s-10.7-8.8-10.7-8.8h-11.5l-1.3,8.8L1466.4,520z"/>
		<path class="st9" d="M1469.2,501.1l5.2,8c0,0,6.4-0.2,8.4,0c2,0.2,2.9-5.3,2.9-5.3l-2.9-13l-13.6,1.8V501.1z"/>
		<path class="st9" d="M1410.1,520l7.3,2.7l4.4-1.3l2.9,2.9h10.7c0,0-3.8-14.7-4.8-15.1c-1-0.4-7.8-5-7.8-5s-7.8-0.9-9.3,0
			c-1.5,0.9-7,5-7,5L1410.1,520z"/>
		<polygon class="st14" points="1400.3,490.8 1404.3,484.3 1420.9,478.8 1426.5,485.5 1417.4,494.7 1406.4,494.7 1397.3,494.7 		"/>
		<path class="st8" d="M1398.5,482.8l1.8,8c0,0,9.8-1.9,11-2.5c1.2-0.6,6.8-1.5,8.2-5.5c1.4-4,2.5-0.9,1.4-4c-1.1-3-5.7-5.2-5.7-5.2
			h-13.6L1398.5,482.8z"/>
		<polygon class="st9" points="1417.4,490.8 1413.4,504.1 1422.7,504.1 1433.5,503.7 1433.5,493.5 1426.5,488.9 		"/>
		<path class="st8" d="M1428.1,514.2l11.5,5.8c0,0,5.8-1.3,6.9-1.6s1.1-6.9,1.1-6.9l-3-7.4l-11-0.4L1428.1,514.2z"/>
		<polygon class="st14" points="1451.2,503.7 1463.7,501.4 1462.3,492.2 1454.1,486.8 1442,488.9 1439.6,495.2 1440.8,499.9 		"/>
		<polygon class="st8" points="1457.6,496.5 1470.7,496.5 1473.4,488.9 1469.2,480.4 1460.3,480.4 1451.6,478.8 1454.1,486.8 		"/>
		<path class="st8" d="M1437.8,463.3l6.7,4.3l7.2-4.3c0,0,2.3-3.9,2.4-5.6c0.2-1.7-6.5-9.9-6.5-9.9l-3-9.3l-11,4.1v7.5L1437.8,463.3
			z"/>
		<path class="st8" d="M1428.1,441.1l11.2-1.2l4.5-9.1l-6-8.8h-10.1l-6.9,5.2c0,0,0.2,8.2,0,9.1
			C1420.7,437.1,1428.1,441.1,1428.1,441.1z"/>
		<polygon class="st14" points="1449.1,425.2 1449.1,415.2 1456.4,406.3 1467.7,406.3 1475.2,409.7 1473.4,419.7 1463.7,428 
			1449.1,428 		"/>
		<path class="st11" d="M1451.2,430.7l5.2-5.5l7.3,2.8l4.1,8.5l-3.5,9.7l-12,7.9c0,0-7.5-4.2-7.8-4.8c-0.3-0.6,0-10.8,0-10.8
			L1451.2,430.7z"/>
		<polygon class="st8" points="1460.3,436.2 1475.2,438.5 1482.7,427.1 1479.8,420.8 1469.2,414.9 1463.7,420 		"/>
		<polygon class="st14" points="1482.1,473.7 1479.8,487.7 1469.2,488.9 1462.5,484.3 1462.2,470.8 1475.2,470.8 		"/>
		<path class="st14" d="M1500.7,473.7h5.9l3.9,6.7l-2.5,14.3c0,0-10.8,0-11.7-2.1c-0.9-2.1-1.2-12.7-1.2-12.7L1500.7,473.7z"/>
		<polygon class="st8" points="1502.8,504.1 1515.5,503.7 1518.2,495.2 1518.2,487.7 1505.3,485.5 1501.3,490.8 		"/>
		<path class="st11" d="M1513.9,479.8l5.8-8c0,0-2.4-8.5-4.3-8.5c-1.8,0-10.2,0-10.2,0l-1.1,7.5c0,0-2.4,4.7,0,6.9
			C1506.6,479.8,1513.9,479.8,1513.9,479.8z"/>
		<path class="st9" d="M1495,479.8l9.1-2.2l1.1-14.3c0,0-5.5-5.7-6.9-5.3s-0.3-1.7-3.3,0c-3,1.7-7,5.3-7,5.3v10.4L1495,479.8z"/>
		<path class="st9" d="M1441.7,416.5l2.7-8.7l11.9-1.5c0,0,0.4,4.9,1.3,6.7c0.9,1.8,0,8.8,0,8.8l-8.5,6.2l-6.4-6.2L1441.7,416.5z"/>
		<path class="st11" d="M1424.4,471.8l17.1-4.6c0,0,0.3,0.9,0.3,3.5c0,2.6-4.6,1.1-2.1,9.6c2.4,8.5-13.1,5.2-13.1,5.2h-3
			L1424.4,471.8z"/>
		<g>
			<path class="st5" d="M1673.5,303.5c0,0-0.9-7,4.7-9.2c5.5-2.1,11.9-3.4,11.9-3.4s6.4-4.5,11.3-4.5c4.9,0,9.8,5.8,9.8,5.8
				s6-1.9,10.4,2.8c4.5,4.7,6,10.4,6,10.4s8.9,3.8,10,10c0,0,3.6,5.3,2.1,9.4c0,0,7.5,1.7,6,15.3c0,0,3.6,7.9-3.2,14.7
				c0,0,0,5.3-4.5,8.7c0,0-1.7,6-10.9,9.2c0,0-2.1,7.7-15.8,3.2c0,0-10,4.3-17.5-1.1c0,0-7.2,3.6-14.7-0.2c0,0-8.1-2.6-9.2-6.4
				c0,0-10.9,0.4-11.7-12.6c0,0-7.2-8.9-3-17c0,0-5.1-11.7,4.7-16c0,0,0.4-7.9,8.3-10.4C1668.3,312.3,1667.1,305.7,1673.5,303.5z"/>
			<path class="st6" d="M1677.7,310.6c0,0,2.8,6,7.5,6.6c0,0-1.5,5.3,0.9,7c0,0-1.7,7.7,1.5,11.1c0,0-0.9,5.1,1.9,7.9
				c0,0-3-1.5-8.7,1.9c0,0-3.4-1.7-6.4-0.9c0,0-0.9-3.8-4.3-4c0,0,1.7-4.3,0-7c0,0,5.5-6,4-12.1L1677.7,310.6z"/>
		</g>
		<path class="st5" d="M1058.9,450.3l13.2-6.3c0,0,12.1,4.1,13,3.2c0.8-0.9,4.5,2.4,6.2,3.2c1.7,0.7,13.2,12.5,13.2,12.5l11,28.2
			l1.7,13.7l-2.5,11.7l-9.9,14.4l-23.4,9.6l-24.2,4.5l-14.2-1.2c0,0-10.4-5.8-10.4-7.2s0-18.2,0-21.5c0-3.3,1.9-18.7,1.9-18.7
			l9.7,2.1l8.2-9L1058.9,450.3z"/>
		<path class="st5" d="M1112.8,391.9l-4.4-10.1l2.8-7.8l7.2-1.8l5.8,2.6c0,0,1-2.9,6.7,0.6c5.6,3.6,6,6.9,6,6.9s5.8,2,7.7,11.1
			c0,0,3.3,1.9,3.5,12.7c0,0,3.2,7-0.6,20.3c0,0,1.4,8.7-8.5,15.1c0,0-5.8,8.5-17.4,9c0,0-11.3,4.3-33.1-5.2c0,0-8.5-1.9-10-8.7
			c0,0-11.8-3-9.5-14.3l9.4-19.3l27.4-1C1105.8,402.1,1106.8,397,1112.8,391.9z"/>
		<path class="st6" d="M1110.4,382.5c0,0-6.3-1.5-10.3,4.4l3.5,14.2l4,4.6l9.6-14L1110.4,382.5z"/>
		<path class="st10" d="M1014.1,353.1l8.8-9.1l4.7-1.3v-3.4l3.9,3l0.8,4.6l2.7,0.2l9.1-3.7l2.4,2.9l5.4-2.2l-0.8,4.9l3.5-0.5
			l3.9,1.9l4.9-0.5l3.4,3.4h2.9l0.7,1.7l7.1,1.5l-3.2,4.7l3.2,2.5l3.2-0.7l0.9,2.4l2.6,2l0.6,1.5l1.9-1v3.5l-4.7,2.3l5.6,0.4
			l2.7-1.9l3,4.3l5.6,2.6l1,2.9l1-1.3l0.7,2.7l-1.5,3.5h2.4l0.7-1.5l3.3,7.3l-1.6,1.1l-0.9,3.5l1.7,4.7l-0.3,4.3l-1.8,2.8l-4.9-0.8
			l-2.2,0.8v2.6v2.2l-3.3,2.2l-0.5,2.2l-1.7,1.2l-6.2-0.9l1.2,2.5l-3.2,0.6l-4.2-0.3l-3.6-1.6l0.3,2.6h-2.2l-5.3-2.1l-1.7-2.4
			c0,0-0.6-0.5-1.1,0.8c-0.5,1.3-1,2.4-1,2.4l-3.9,1.3l-35.9-39.7L1014.1,353.1z"/>
		<g>
			<path class="st6" d="M776.4,522.7c0,0-5.1-2.7-4.3-9l1.1-3.1c0,0-4.1-4.9-1.8-11c2.4-6.2,3.7-8.4,3.7-8.4s-1.6-7,2.5-9.4
				c0,0-0.8-6.7,8.1-6.5c0,0,0.4-4.4,6-8.1c0,0,0.9-3,8.3-5.1c0,0,4.1-2.3,8.6-1.5c0,0,1.2-2.8,6.5-2.2c0,0,5.3,0.5,8.2,2.8
				c0,0,7.5,1.1,12.2,3.4c0,0,12.2,7.2,15.5,14.3c0,0,4,4.5,1.2,7.6l-14.3-1.7l-17.4-14.4l-15-1.7l-3.1,17.1l-14.6-2.6l-7.7,17.1
				L776.4,522.7z"/>
			<path class="st5" d="M794.4,484.3c0,0-4.4-4.2,0-8.7c4.4-4.5,7.4-2.3,7.4-2.3s-3.9-4.8,2.1-7.3c6-2.4,6-2.4,6-2.4
				s0.8-3.1,8.1-2.3c0,0,6.2-1,7.3,4c0,0,1.8-2.1,6,0.5c0,0,5.7,2.5,5.2,6.9c0,0,3.1-2,5.7,3.1l2.9,5.3c0,0,7.2-1.9,7.2,6.3
				c0,0,6,1.6,7.4,6.5c0,0,4.2,6.8,1.1,9.2c0,0,3.7,6.2-0.3,9.7c0,0,3.2,9.7-2.4,15.1c0,0-3.4,16.7-11.5,19.1c0,0-3.2,5.2-11.5,6.2
				c0,0-10.7,7.4-17,3.9c0,0-11.2,2.4-16.7-2.7c0,0-11.9-1.8-11.1-9.6c0,0-13.8-5.8-11.3-13.9c0,0-5.5-5.5-3.1-10.7
				c0,0-2.6-8.6,1.9-10.6c0,0-3.4-11.9,1.6-14.7c0,0-3.6-11.5,2.3-15.5C781.6,479.5,788.1,474.2,794.4,484.3z"/>
			<path class="st6" d="M816.3,491.8c0,0,3.4,5.2-6.4,10.5c0,0,3.8,6.2-3.6,12.6c0,0-2.1,2.9,0,5c0,0,3.6-0.6,6,2.4
				c0,0,2.6-0.7,4.5,1.3c0,0,1.4-2.5,7.4-2.7c0,0,1.9-0.7,5.4,0.8c0,0-0.8-2.4,2.8-5.9c0,0,1.1-3.9,4.5-6.1c0,0-2.4-2.5-1.7-6.5
				c0,0-5.8,0-7-5.8c0,0-6-3.2-6.8-7.3C821.5,490.1,820.2,491.8,816.3,491.8z"/>
		</g>
		<g>
			<circle class="st5" cx="958.8" cy="414.8" r="16.5"/>
			<circle class="st5" cx="929.8" cy="433.8" r="16.5"/>
			<circle class="st5" cx="958.8" cy="452.8" r="16.5"/>
			<path class="st5" d="M1009.3,408.8c0,9.1-6.9,13.5-16,13.5c-9.1,0-17-4.4-17-13.5s7.9-15.5,17-15.5
				C1002.4,393.3,1009.3,399.7,1009.3,408.8z"/>
			<path class="st5" d="M1009.5,444.9c-1.4,9.3-9.1,12.8-18.4,11.4s-16.8-7.1-15.4-16.4s10.4-14.7,19.8-13.3
				S1010.9,435.5,1009.5,444.9z"/>
			<circle class="st5" cx="911.8" cy="462.8" r="17.5"/>
			<path class="st5" d="M893.3,461.3c0,7.2-6.8,12-14,12s-14-8.8-14-16c0-7.2,7.8-12,15-12S893.3,454.2,893.3,461.3z"/>
			<path class="st14" d="M703.9,486.3c0,0-3.5-4.1,0-5.9c3.5-1.8,5.3,2.1,5.3,2.1s1.7,3.5,6.3,3.9c4.6,0.4,27,2.6,27,2.6l24.6,3
				l44.7,3.7l6.7-1.2l4.1-0.4l25.2-5.1l18.5-5.5l6.1-5.1l7-15.5v-3.5l2.6-1.7l3.5,1.7l-3.3,3.5l-6.9,13.8l-0.8,3.7l21.2-11
				l17.7-11.7l8.2-8.5l5.3-7.6v-3.6h2.5v3.6l-4.3,6.2l15.2-9.8l7.1-1.6l8.7-5.5v-4.4h2.3v2.8l4.6-3.9l1.6,1.1l-5.7,5l13-5l3.7-1.1
				l6-3h1.7l4.9-5l2.9-1.4l0.9,1.4l-0.7,2.5l-7.2,4.7l-5.3,2.5l-10.5,3.5l7.1,0.9l4,1.8l-2.4,1.2l-3.6-1.9l-9.3-0.5l-5.5,2.7
				l-8.9,2.7l-3.6,1.7l-4,2l4,0.5h4.3l-0.1,1.6l-4.1-0.4l-6.9-0.1l-7.6,6.4l-14.8,9l-15.7,11.4l-1.2,1.7l4.8,2.3l4.4-1.3l3.1-1.2
				l1.9,0.8v2.4h-2.5l-2.4-0.7l-3.5,1.4l-4.3-0.5l-3.9-2.4l-16.6,7.8l-14.6,6.2l-8.9,4.5l-23.5,4.3l-12.1,2l-2.7,1.7h-6.1l-17.9-0.5
				l-31.2-3.6l-24.6-1.6l-29.9-4.4l-3.3-0.7L703.9,486.3z"/>
		</g>
	</g>
	<g>
		<g>
			<g>
				<rect y="0.3" class="st1" width="1920" height="800"/>
			</g>
		</g>
		<circle class="st0" cx="1453.9" cy="454.1" r="65.9"/>
		<g>
			<defs>
				<polygon id="SVGID_9_" points="747.3,633.3 786.3,659.3 839.3,688.3 929.3,705.3 1034.3,698.3 1107.3,670.3 1169.3,626.3 
					1227.3,553.3 1257.3,486.3 1269.3,431.3 1273.3,381.3 1264.3,321.3 1248.3,273.3 1213.3,214.3 1166.3,164.3 1092.3,117.3 
					1034.3,97.3 970.3,89.3 873.3,100.3 782.3,143.3 732.4,188.8 683.8,250.8 650.2,328.8 643.4,410.5 656.4,497.5 678.2,544 
					730.8,613.1 				"/>
			</defs>
			<use xlink:href="#SVGID_9_"  style="overflow:visible;fill:#FFFFFF;"/>
			<clipPath id="SVGID_10_">
				<use xlink:href="#SVGID_9_"  style="overflow:visible;"/>
			</clipPath>
			<g class="st15">
				<defs>
					<rect id="SVGID_11_" x="0.3" y="0.3" width="1920" height="8222"/>
				</defs>
				<use xlink:href="#SVGID_11_"  style="overflow:visible;fill:#FFFFFF;"/>
				<clipPath id="SVGID_12_">
					<use xlink:href="#SVGID_11_"  style="overflow:visible;"/>
				</clipPath>
			</g>
		</g>
		<g>
			<defs>
				<polygon id="SVGID_13_" points="732.4,251.8 702.7,318.8 694.5,441.6 705.3,492.2 734.5,544.7 782.3,601.3 840.3,635.3 
					917.3,661.3 1001.3,656.3 1111.3,614.3 1187.3,544.3 1215.3,484.3 1231.3,424.3 1225.3,321.3 1192.3,252.3 1111.3,181.3 
					1031.3,137.3 942.3,130.3 848.3,151.3 781.3,200.3 				"/>
			</defs>
			<use xlink:href="#SVGID_13_"  style="overflow:visible;fill:#F8A2B7;"/>
			<clipPath id="SVGID_14_">
				<use xlink:href="#SVGID_13_"  style="overflow:visible;"/>
			</clipPath>
			<g class="st16">
				<defs>
					<rect id="SVGID_15_" x="0.3" y="0.3" width="1920" height="8222"/>
				</defs>
				<use xlink:href="#SVGID_15_"  style="overflow:visible;fill:#F8A2B7;"/>
				<clipPath id="SVGID_16_">
					<use xlink:href="#SVGID_15_"  style="overflow:visible;"/>
				</clipPath>
			</g>
		</g>
		<polygon class="st0" points="816.4,571.2 813.5,565.1 808.3,561.7 803.7,561.7 803,558.9 801.3,558.9 801.3,554.5 796.2,551.4 
			789.4,552.8 788.9,555.1 786.8,556.1 782.2,553.2 776.6,553.7 772.2,557.1 771.7,560.7 772.5,567.1 771.7,571.2 771.7,575 
			772.9,578.6 774.8,583.4 777.3,582.5 779.1,584.9 778.2,588.1 780.5,589.6 782.8,591.6 781.8,595.3 780.4,597.5 784.9,597.5 
			786.6,597.5 786.8,598.7 785.5,600.8 787.4,602.4 790.3,603.7 790.1,606 788.1,606 791.7,609 791.9,611.3 793.4,615.8 
			795.8,616.5 797,618.6 800.5,623.4 802.2,625.9 804.2,626.9 805,629.5 806.2,632.1 810.6,632.1 814.4,629.7 816.4,634.1 
			818.8,636.1 821.3,635.6 822.4,635.2 824.3,636.7 827.2,635.6 829.6,633.3 831,635.7 835.4,642.1 839.6,645.5 844.9,645.9 
			848,645.9 854.5,641.7 858,641.4 859,638.6 861.9,637.8 866.6,631.7 864.2,627.9 867.6,626.4 869.4,624.6 868.4,621.5 
			869.4,618.1 871.4,614.4 871.4,608.9 868.7,607 871.4,606.6 868.5,603.2 866.5,599.2 866,593.7 868,589.8 867.6,584 865.7,581 
			866.3,578.5 864.3,576.1 862.2,576.6 863.6,573.7 860.9,572.2 858.6,572.2 857.9,570.7 855.4,569.4 855.5,567 855.4,564.6 
			852,563.6 847.7,562.1 846,560.4 842.5,557.7 836.2,555.9 831.9,555.9 827.5,559.1 820.8,562.4 819.8,565.4 		"/>
		<polygon class="st4" points="997.3,170.3 986.3,186.3 983.3,198.3 983.3,205.3 979.3,206.3 979.3,208.3 977.3,210.3 977.3,217.3 
			973.3,218.3 970.3,216.8 970.3,231.3 976.3,245.3 991.3,253.3 998.3,257.3 1002.3,250.3 1008.3,244.3 1007.3,240.3 1010.3,233.3 
			1005.3,230.3 1006.3,224.3 1008.3,223.3 1007.3,218.3 1008.3,210.3 1005.3,208.3 1003.3,206.3 1006.3,202.3 1008.3,195.3 
			1004.3,193.3 1004.3,188.3 999.3,188.3 999.3,183.3 1000.3,179.3 		"/>
		<polygon class="st0" points="995.3,264.3 983.3,269.3 979.3,272.3 949.3,272.3 946.3,271.3 942.3,272.3 937.3,268.3 928.3,267.3 
			926.3,270.3 923.3,267.3 919.3,267.3 917.3,262.3 913.3,263.3 904.3,258.3 905.3,254.3 900.3,254.3 896.3,248.3 889.3,244.3 
			893.3,240.3 887.3,238.3 879.3,224.3 883.3,223.3 876.3,216.3 876.3,205.3 891.3,198.3 893.3,198.3 893.3,194.3 897.3,195.3 
			899.3,193.3 902.3,194.3 906.3,193.3 910.3,194.3 910.3,188.3 916.3,190.3 920.3,190.3 925.3,192.3 927.3,189.3 933.3,192.3 
			936.3,191.3 939.3,195.3 942.3,193.3 947.3,197.3 949.3,195.3 951.3,200.3 954.3,200.3 955.3,204.3 960.3,205.3 962.3,209.3 
			965.3,208.3 970.3,214.3 970.3,224.3 974.3,240.3 988.3,251.3 		"/>
		<polygon class="st4" points="1080.3,150.3 1088.3,154.3 1081.1,164 1080.3,169.3 1078.3,171.3 1082.3,173.3 1078.3,176.3 
			1079.3,178.3 1077.3,180.3 1078.3,182.3 1073.3,184.3 1075.3,188.3 1071.3,190.3 1048.3,204.3 1039.3,220.3 1041.3,224.3 
			1041.3,228.3 1043.3,231.3 1043.3,233.3 1039.3,233.3 1041.3,237.3 1040.3,240.3 1036.3,240.3 1034.3,242.3 1034.3,245.3 
			1032.3,246.3 1030.3,252.3 1025.3,252.3 1018.3,260.3 1018.3,265.3 1006.3,267.3 1006.3,260.3 1005.3,255.3 1005.3,243.3 
			1008.3,228.3 1012.3,223.3 1012.3,220.3 1014.3,216.3 1016.3,216.3 1015.3,212.3 1017.3,208.3 1019.3,208.3 1019.3,205.3 
			1030.3,194.3 1032.3,194.3 1032.3,189.3 1036.3,180.3 1039.3,180.3 1040.3,174.3 1041.3,170.3 1050.3,169.3 1053.3,163.3 
			1057.3,163.3 1064,155.4 1068.3,154.3 1071.3,151.3 1073.3,156.3 		"/>
		<polygon class="st0" points="1039.3,220.3 1039.3,211.3 1043.3,205.3 1045.3,205.3 1045.3,203.3 1046.3,197.3 1050.3,197.3 
			1052.3,196.3 1054.3,193.3 1059.3,192.3 1068.3,188.3 1071.3,190.3 1065.3,195.3 1055.3,202.3 1048.3,209.3 		"/>
		<polygon class="st0" points="1004.3,214.3 1008.3,210.3 1007.3,218.3 1008.3,223.3 1006.3,224.3 1005.3,230.3 1005.3,221.3 		"/>
		<g>
			<path class="st5" d="M946.3,278.3l8-5h6l5-4h10l4,3l6.4-3l12.6,4l3,3l2,5h9l3,6l1,10l4,4c0,0,2,6,0,12c0,0,1,9-5,15c0,0-1,8-7,14
				c0,0-4,10-13,12c0,0-10,7-20,3c0,0-11,3-15-4c0,0-11,0-12-8l-4.6-8.7l-10.4-26.3c0,0-1-6,2-6c0,0-4-6,2-9c0,0-1-7,4-8
				C941.3,287.3,941.3,279.3,946.3,278.3z"/>
			<path class="st6" d="M960.3,287.3l8-3h11l3,7l3-4c0,0,2,3,6,4c0,0-2,4-1,8c0,0-4,0-4,4c0,0-3-1-5,0c0,0-2-4-6-4c0,0-5,0-7,2
				c0,0,0-6-3-8L960.3,287.3z"/>
		</g>
		<path class="st4" d="M782.3,348.3l4,1l4,2l3,4l2-4l4,4l6,1l2,5c0,0,2-1,3,2l2,2c0,0,2,0,2,2l2,4c0,0,0,2,2,2c0,0,2,0,2,2h2l1,4h2
			c0,0-1,0,0,2s1,3,1,4l2,2l4,2v3c0,0,2,1,2,2c0,0,2.4,1.6,2.4,3.4v2.1l3,1.8c0,0,2,4.7,1.7,8.2l0,4.2c0,0,3,2.1,3.6,6v5l-3.9,2.6
			l-15.4,5.3c0,0-6.4,1.8-7.5,0c0,0-3.3,0.5-6.7-1.7l-2.7-2.2l-3.2-0.2l-1.2-1.2c0,0-2.4,0.7-3.4-1.5l-2.6,0.2l-5-4.8l-9.6-3
			l-0.9-2.7l1.6-1.8l-3.8-2.6l-2.9-2.1l1.3-2.5l0.8-1.5l-1.6-1.4l1.4-0.9l-2.7-2.6l-0.7-2.6l1.8-0.4l-1.8-1.5l-1.1-6.3l1.5-2.6
			l2.8,1.2l-2-3.1l-2.2-4.1l0.7-3.4l2,0.9l2.4-3.3l1.5,1.7l3.1-6.2l1.1,0.4l0.7-4.1l1.8-1.8c0,0-1-2.6-0.7-5l-1.2-4.3l-3.1-3
			L782.3,348.3z"/>
		<polygon class="st0" points="800.5,565.8 794.8,572.5 792.2,581.6 792.2,593.4 792.8,596.6 793.4,600.7 793.8,588.5 794.8,578.6 
			797,572.1 		"/>
		<polygon class="st0" points="814.1,573.6 809.4,579.4 805.3,591.5 803.1,609.2 804.2,608.4 805.5,598.7 806.8,589.6 810.2,582 		
			"/>
		<polygon class="st0" points="819.4,578.4 819.4,588.9 822.7,598.2 828.7,609.7 828.7,620.5 836.3,636.1 834.6,630.2 830.2,620.1 
			829.6,609.2 826.9,602.9 822.5,595.1 820.6,588.2 		"/>
		<polygon class="st0" points="824.9,568.2 829.5,568.7 835.4,569.6 840.5,574.6 847.1,585.5 852,597.8 852,594.9 847.2,584.3 
			839.9,572 835.1,568.2 		"/>
		<path class="st5" d="M875.9,506.8l5.5,11.9l12.9,7.6l9.7,13.1l4.3,15c0,0,8.3,15.9,23.8,16.8s37.3,4,49.5-13.4
			c12.2-17.4,27.5-44.6,30.9-56.6c3.4-11.9,17.1-40.5,15-44.7c-2.1-4.2-64.6,16.7-64.6,16.7l-29.7,4.4l-14.8,13.8l-32.4,8.3
			L875.9,506.8z"/>
		<polygon class="st6" points="982.3,477.1 949.2,502.8 923.9,516.6 907.1,532.5 898.8,532.5 897.3,524.8 908.9,519 916.8,519 
			937.9,504.8 948,494.9 964.2,482.6 		"/>
		<polygon class="st6" points="1027.6,459.3 1018,494.6 1009.3,517.5 998.2,546.8 985.9,556.3 962.9,568.2 943.8,573.6 927.2,572.1 
			908.3,554.5 911.8,549 927.2,560.9 937,565.8 964.2,557.2 976.3,551.4 999.1,525.1 1009.3,498.4 		"/>
		<path class="st7" d="M885.3,520.4l-10.5-1.2l-10.4-3.2l-9.2-1l4.6,5.9l7.6,5.9l-9.6-2.5l-1.3-0.8l3.5,4.6l2.8,1.5H854l-7.5,1.6
			l5.6,3.5l7.1,2l8.1-1.7l4.8,5.6l4.6,2.4l3.6,1.2l-11.4,3.4l-4.9,5.3l-4.3,5.2l1.7,2.1c0,0,2.1,0.5,2.1,0s3.7-5.9,3.7-5.9l8.7-3.6
			l7.6-0.4l-6.5,7.4l-4,2.7l-0.9-0.9l2.5,2.5l4.3,3.9l-2.4,3.7l-4.6,1.6l4.1,1.3l10.7-1.7l9.2-1.8l5.3-2.2l2.2-2.4l4.3-6.6
			l-0.9-13.9l-2.2-10.1l-11.8-12.7L885.3,520.4z"/>
		<path class="st8" d="M924.2,593.2c0,0-4.8-4,9.4-6.1s29.3-3.5,29.3-3.5s22.2,1,28.5,7.1c6.3,6.1,4,7.9,4,7.9l-4.1,7.5l1.8,4.4
			c0,0-8.9,3-29.1,0C943.6,607.7,925.9,605.9,924.2,593.2z"/>
		<path class="st9" d="M1055,445.3c0,0,5.1,2.6,0,19.7c-5.1,17.1-9,29.4-9,29.4s-0.6,2.4-11.4,1.8c-10.8-0.6-11.1-8.2-10-19.2
			c1.1-10.9,5.2-26.8,5.2-26.8L1055,445.3z"/>
		<path class="st8" d="M1027.6,452.8c0,0,6.4,12.2,10.9,12.2s14.4-2.5,17.1-12.2c2.7-9.7,6-20.9,4.5-30.5
			c-1.5-9.6-0.6-24.6-5.1-31.3c-4.5-6.8-12.9-16.7-12.9-16.7l-14.3-6.6l-10-11.4l-8-19.2l-14.4,17.3c0,0-13,7.1-2.5,16.1
			c10.5,9,16.5,18,16.5,18l8.7,7.4l3.2,17.5L1027.6,452.8z"/>
		<polygon class="st8" points="1137.9,354.8 1154.6,334.6 1162.6,339.3 1176.7,349 1191.8,377 1190.2,393.3 1180,398.3 
			1165.8,391.4 1151,378.9 1140.5,372.2 		"/>
		<path class="st6" d="M1090.2,372.2l40-18.8l19.7-26.4l10.3-19.1l-3-25.2l-12.7-15.4l-10.9-2.2l-9.7-9.7l-13.6-8.2l-9.4-16.9
			l-15.5-1.9l-22.1,7.9c0,0-3-1.5-10.9,12.7c-7.9,14.2-19.7,46.7-19.7,46.7l-3,25.6l23.9,19.6L1090.2,372.2z"/>
		<polygon class="st5" points="1106.5,276.4 1083.8,287.8 1066.7,303.3 1066.7,332.3 1091.9,316.1 1103.9,293.8 		"/>
		<polygon class="st10" points="1131,239.4 1128.4,232.9 1134,222.8 1139.3,210.4 1142.2,201.1 1146,207.1 1148.3,200 1150.4,203.9 
			1150.4,209.9 1152.5,212.2 1148.8,226.5 1137.9,241.8 		"/>
		<polygon class="st10" points="1123.9,212.2 1130,207.4 1128.4,217.8 1126.1,229.3 1118.6,219.5 1117.8,208.8 1114.6,205.2 
			1118.1,195.4 1119.5,193 		"/>
		<polygon class="st10" points="1097,211.2 1101,215 1103.9,218.9 1097,217.9 1089.9,217.6 1084.8,216.3 1083.8,208.3 1093.8,213.6 
					"/>
		<polygon class="st10" points="1145.6,232.6 1154,227.9 1156.2,227 1153.8,233.8 1162.5,230.4 1164.1,232.4 1160.2,235.5 
			1157.5,238.5 1161,240.6 1151.5,247.3 1145.6,251.6 1143.4,244.3 1137.9,242.8 1137.9,241.8 		"/>
		<polygon class="st10" points="1165.8,267.3 1172.8,265.7 1174,268.5 1169.9,270.9 1181.1,273.3 1185,274.9 1184.1,277.5 
			1179.5,277.5 1184.2,280.3 1180.7,280.3 1175.4,278.4 1168.1,273 		"/>
		<polygon class="st4" points="1075.5,219.8 1084.8,216.3 1099.4,217 1109.9,220.3 1109.4,212.5 1112.4,214.1 1112.4,208.3 
			1111.1,206.5 1113.9,207.9 1114.6,205.2 1117.8,208.8 1118.6,219.5 1126.1,229.3 1128.4,232.9 1131,239.4 1137.9,239.9 
			1140.5,239.9 1144.4,245.1 1145.6,251.6 1144.5,257.7 1165.8,267.3 1168.1,273 1174.4,277.7 1176.7,283.4 1176.7,287.1 
			1173.6,284.9 1175.4,294 1174.9,297 1172.2,290.9 1169.4,287.1 1168.3,288.4 1168.4,290.9 1164.6,285.9 1164.1,281 1157.2,276.6 
			1150.4,271.6 1145.8,270.3 1137.9,266.6 1111.5,250.3 1101.7,239.3 1084.3,223.9 		"/>
		<polygon class="st0" points="1114.1,250.8 1112.9,243.1 1114.6,239.3 1117.9,243.5 1120.2,241.8 1123.7,236.3 1124.3,243 
			1126.9,241.8 1129.2,245.3 1133.8,247.1 1133.8,252.4 1137.9,255.8 1136.1,258.3 1140.5,261.2 1141.2,267.3 1126.7,265.7 
			1115.8,253.7 		"/>
		<g>
			<path class="st6" d="M823.3,321.3l-6,26l9,31c0,0,32,41,46,40s20-9,40-8c0,0,10,2,16-9s18-61,15-73s-9.1-26-21.5-29
				s-56.5-8-56.5-8l-22,7L823.3,321.3z"/>
			<path class="st10" d="M845.3,305.3l-14,12l-8,4l-7-8h12c0,0,7-22,17-22h11l10-4c0,0,2-20,12-21l4,5c0,0,8-5,8-10c0,0,7,9,7,14
				l32,25l-30-4l-0.9,0.1l-15.1,1.9l-1,8l-18-5l-3-6l3,11l-6,8l-2-3v3l-1-1v6l-6-4c0,0,1-6,0-8S845.3,305.3,845.3,305.3z"/>
		</g>
		<g>
			<polygon class="st11" points="899,299.2 898,299.2 895.7,298.5 895.7,296.3 898.4,296.4 			"/>
			<polygon class="st11" points="909,296.7 911.5,297.8 911.5,295.6 908.4,295.1 			"/>
			<polygon class="st11" points="911.5,300.1 911.5,304.8 914,304.1 915.8,303.6 			"/>
			<path class="st11" d="M898.5,307.3h2.1l0.8,3.9l-1.5,0.4C899.9,311.5,897.7,310.1,898.5,307.3z"/>
			<polygon class="st11" points="884.9,314 888.3,315.1 888.3,317.7 887.1,317.7 			"/>
			<polygon class="st11" points="874.4,310.5 876.5,313.1 875.4,314 874.4,313.4 			"/>
			<polygon class="st11" points="862.4,310 863.5,312.2 863.5,314.4 861.3,313.1 			"/>
			<polygon class="st11" points="855.9,324.5 858.4,327.2 857.6,329.4 856.4,330.3 855.1,329.4 			"/>
			<polygon class="st11" points="870.2,322.8 871.9,325 871.9,327.8 871.1,328.4 869.4,326.2 			"/>
			<polygon class="st11" points="880.6,328.4 882.5,330.3 882.5,332.8 882.5,333.9 879.7,332.4 879.7,328.8 			"/>
			<polygon class="st11" points="893,332.8 894.8,333.9 894.8,336.7 894.8,338.7 893,337.9 892.1,333.9 			"/>
			<polygon class="st11" points="898.3,321 899,324.5 900.6,324.5 900.6,322.3 			"/>
			<polygon class="st11" points="910.9,312.2 914,314.4 915.2,312.9 912.7,310 			"/>
			<polygon class="st11" points="925.7,308.3 925.7,310 928,312.2 928.3,309.4 			"/>
			<polygon class="st11" points="931.4,310.2 934,312.2 933.3,310.3 931.4,309.4 			"/>
			<polygon class="st11" points="927,319.5 928.3,321.3 927.7,323.7 925.7,321.6 			"/>
			<polygon class="st11" points="935.2,331.9 936.4,334.7 935.2,337 934.4,334.4 			"/>
			<polygon class="st11" points="921.5,331.2 924.1,332.8 924.1,334.4 924.1,337 922.8,336.3 			"/>
			<polygon class="st11" points="910.9,326.1 913.6,327.7 913.1,331.9 911.5,330.3 			"/>
			<polygon class="st11" points="904,340.6 906.4,340.6 906.4,342.8 907.1,346.3 905.6,346.7 904,343.6 			"/>
			<polygon class="st11" points="862.4,334.8 865.2,336.4 863.8,340.6 862.4,341.5 861.3,338.1 			"/>
			<polygon class="st11" points="848.3,338.1 850.7,338.7 850.7,340.9 849.5,343.1 848.3,341.8 			"/>
			<polygon class="st11" points="841.6,325.6 844.2,327.9 842.9,331.2 841,331.2 840.7,327.4 			"/>
			<polygon class="st11" points="830.5,327.4 831.2,329 831.2,331.5 829.3,334.8 827.8,332.8 828.5,329.7 			"/>
			<polygon class="st11" points="824.4,338.1 825.8,340.6 825.1,343.6 823.6,343.1 823,340.9 			"/>
			<polygon class="st11" points="820.7,347.1 822,348.3 821.3,351.4 820.7,352.8 819.4,351.6 			"/>
			<polygon class="st11" points="830,350.9 831.2,353.2 830.6,355.6 829.1,356.2 827.8,352.8 			"/>
			<polygon class="st11" points="833.6,342.8 835,340.9 835.6,337.4 834.3,337.4 832.9,340.6 			"/>
			<polygon class="st11" points="841.3,350 842.4,351.9 841.8,354.5 840.7,356.2 840.7,352.8 			"/>
			<polygon class="st11" points="851.7,358.5 853.5,359.3 854.2,361.8 854.2,363.6 850.7,362.2 			"/>
			<polygon class="st11" points="835.6,357.8 837.8,360.5 837.8,363.6 836.7,364.1 836.1,361.9 			"/>
			<polygon class="st11" points="825.8,358.9 827.8,359.6 827.8,361.5 827.8,363.6 826.2,363 			"/>
			<polygon class="st11" points="845.7,368.3 845.7,366.9 847.8,367.6 848.3,371.7 847,372.9 			"/>
			<polygon class="st11" points="840.7,374.7 842.4,375.2 843.3,377 843.7,380.2 842.2,380.2 			"/>
			<polygon class="st11" points="864.5,356.2 867.5,356.2 867.5,359.4 866,362.8 864.5,359.5 			"/>
			<polygon class="st11" points="871.3,349.4 872.4,345.1 871.3,343.6 869.9,343.6 869.9,346.5 			"/>
			<polygon class="st11" points="880.6,346.5 882.5,347.1 883.3,350 883.3,353.1 881.1,352.4 880.6,349 			"/>
			<polygon class="st11" points="893.1,350.9 894.4,351.5 897,353.5 897,355.7 895.1,356.2 892.7,353.5 			"/>
			<polygon class="st11" points="886.6,364.1 888.8,364.7 888.8,366.9 888.8,369.4 887.7,369.4 886.6,368 			"/>
			<polygon class="st11" points="876.1,362 878.9,363.6 878.1,366.9 876.8,366.7 875.3,364.9 			"/>
			<polygon class="st11" points="862.8,368.1 863.5,369.9 863.5,371.9 862.1,371.2 			"/>
			<polygon class="st11" points="857.1,375.4 858.4,376.7 858.9,379.6 858,381.2 857.1,379.3 			"/>
			<polygon class="st11" points="866.7,381.6 868.1,382.7 868.1,385.2 866.7,385.6 			"/>
			<polygon class="st11" points="870.6,372.4 871.9,371.7 873.7,372 874.1,374.7 874.1,376.2 871.2,374.7 			"/>
			<polygon class="st11" points="881.1,376.9 882.5,376.2 884.1,377.4 884.8,379.4 884.8,381.6 882.9,380.2 			"/>
			<polygon class="st11" points="891.1,378.9 894.4,380.2 894.4,382.6 893.4,384.1 891.1,382.8 			"/>
			<polygon class="st11" points="897,369 898.3,368.6 899.2,369.9 899.6,371.9 899.6,373.3 897.7,373.3 			"/>
			<path class="st11" d="M876.3,383.6c1.8,1.3,1.8,1.3,1.8,1.3v3.3l-1.8,1l-0.4-2.4L876.3,383.6z"/>
			<polygon class="st11" points="886.1,388.6 888.8,389.8 889.3,393 887.7,393 885.6,391 			"/>
			<polygon class="st11" points="871.9,393.8 873.6,394.4 873.6,397.3 872.4,397.7 			"/>
			<polygon class="st11" points="860.7,387.3 863.2,388.2 863.2,392.2 861.3,392.2 			"/>
			<polygon class="st11" points="851.4,382.9 852.8,384.1 852.1,386.4 850.7,385.1 			"/>
			<polygon class="st11" points="849.5,389.2 850.7,391.4 850.7,393 848.8,393 			"/>
			<polygon class="st11" points="858.9,394.3 860.7,395.8 860.7,398.3 858,397 			"/>
			<polygon class="st11" points="858.4,400.3 860.1,402.4 858.9,404.3 858,402.9 			"/>
			<polygon class="st11" points="867.4,399.8 869,400.7 869.9,402.9 868.7,404.3 866.7,402.7 			"/>
			<polygon class="st11" points="878.9,403.3 880.2,404.8 880.6,406.7 880.1,408.8 878.1,407.7 878.1,405.2 			"/>
			<polygon class="st11" points="881.9,396.9 884.1,397.7 884.1,399.8 884.1,402.3 881.9,402 881.9,399.2 			"/>
			<polygon class="st11" points="891.5,400.7 894.8,402.7 894.8,404.3 892.7,404.3 891.1,402.3 			"/>
			<polygon class="st11" points="896.1,393.8 898.3,393.8 898.3,395.4 899.6,397.7 898.3,399 896.6,396.9 			"/>
			<polygon class="st11" points="899.6,385.6 901.3,384.1 903.3,384.8 904,387.3 904,389.5 901.1,389.2 899.6,386.4 			"/>
			<polygon class="st11" points="906.6,375.4 907.5,373.3 909,374.4 909,377.4 909,379.4 906.6,378.3 906.6,376.2 			"/>
			<polygon class="st11" points="913.4,364.1 914,362.8 915.6,362.8 916.8,364.4 916.8,368.6 914.5,366.9 			"/>
			<polygon class="st11" points="921,371 922.4,373.3 921.7,377.4 			"/>
			<polygon class="st11" points="914.7,382.9 914.7,387.3 913.4,387.7 			"/>
			<polygon class="st11" points="909,395 911,397.3 909,401.1 907.8,398.6 			"/>
			<polygon class="st11" points="917.9,395 921,394.3 920.4,391.5 918.7,390.8 			"/>
			<path class="st11" d="M924,382.9l1.5-1.3c0,0,0.7-1.8,0.7-2.2s-0.7-1.1-0.7-1.1L924,382.9z"/>
			<polygon class="st11" points="929.3,368.1 930.1,365.7 929.7,362.8 928.2,363.6 928.2,366.5 			"/>
			<polygon class="st11" points="924.1,354 926.7,356.2 924.6,359.5 921.7,360.3 923.8,354.8 			"/>
			<polygon class="st11" points="918.5,349.4 916.8,346.5 915.1,345.3 915.1,348.4 918.5,350.9 			"/>
			<polygon class="st11" points="930.1,342.9 930.1,345.3 930.1,347.1 932.1,346 931.1,343.3 			"/>
			<polygon class="st11" points="938.9,342.1 938.9,345.3 940.7,345.3 940.7,342.9 			"/>
			<polygon class="st11" points="935.4,350.3 936.4,352.5 935.4,354.8 934.9,352.6 			"/>
			<polygon class="st11" points="938.9,357.6 938.9,361.6 937.2,364.1 937.2,362 			"/>
			<polygon class="st11" points="933.6,371 934.9,373.9 934.3,375.4 933.2,374.9 			"/>
			<polygon class="st11" points="929.8,385.6 931.1,389.5 929.1,390.8 928.6,388.6 			"/>
			<polygon class="st11" points="914,402.9 915.8,404.9 914.9,407.4 913.3,406 			"/>
			<polygon class="st11" points="920.1,402 922.4,400.7 923.6,398 922.4,396.9 			"/>
			<polygon class="st11" points="903.1,404.3 905.5,405.2 905.5,408.8 904,408.2 			"/>
			<polygon class="st11" points="887.4,408.8 889.3,411 889.3,412.7 887.4,412.3 			"/>
			<polygon class="st11" points="876.2,410.2 878.1,411.7 878.1,414.3 875.9,413.7 			"/>
			<polygon class="st11" points="866.7,405.2 868.3,406.6 868.1,408.8 866,407.9 			"/>
			<polygon class="st11" points="866,410.8 867.5,411.4 868.1,414.3 867.1,414.3 			"/>
			<polygon class="st11" points="841.5,382.4 842.4,382.4 843.7,385.6 843.1,386.8 841.1,385.3 			"/>
		</g>
		<path class="st12" d="M1357.6,110.4l15.4-0.8l9,0.8l2.3,1.7v5.6l-2.9,2v4.4l2.3,3h5.9l3.3,4.4v5.9l2.4,4l-0.9,6.5l2.4,2.6l1.7,6.5
			l5.6,11.3l5.2,7.3l-3,7.9l-7.5,5l-11.1,11c0,0-9.1-1.1-15.8-22.2C1365.2,156.2,1356.1,132.7,1357.6,110.4z"/>
		<polygon class="st12" points="1369.5,0 1366,12.2 1369.5,19.4 1378.4,19.4 1385.2,19.4 1386.6,9.7 1379.7,0 		"/>
		<polygon class="st12" points="1433.1,0.5 1379.7,0 1383.4,11.8 1389.7,11.8 1399.6,11.8 1406.4,11.8 1416.7,11.8 1424.2,14.6 
			1428,14.6 		"/>
		<path class="st8" d="M1519.7,29.6l12.7-2.1l19.9-13l5.5,16.8l-3.4,12.7l5.8,24.3l6.2,31.8v5.1l-16.9,4.3l-6.3-1.6l-1.4,3.8h-9.6
			c0,0-13.3-9.6-14-18.1c-0.7-8.6-4.8-20.2-4.8-20.2l-2.1-13.1L1519.7,29.6z"/>
		<polygon class="st12" points="1538.7,151.5 1546.1,147 1554.3,154.6 1562.2,160.7 1571,167.2 1568.7,172.7 1556.7,175.1 
			1545.4,164.8 		"/>
		<polygon class="st12" points="1573.7,162.9 1578.3,164 1579.6,158.7 1576.6,155.7 1574.9,158.3 		"/>
		<polygon class="st11" points="1558,36.2 1566.3,36.2 1576.6,39 1577.7,51.9 1575.3,60.3 1563.9,63.2 1558,66.7 1551.4,46.8 		"/>
		<polygon class="st12" points="1571,22.5 1576.6,23.8 1577.7,21.6 1579.6,16.1 1573.7,14.6 1571,18.1 1568.4,21 		"/>
		<polygon class="st8" points="1584.9,27.4 1590.6,30.1 1590.6,36.2 1594,41.9 1591.8,44.9 1584.9,41.9 1582.1,43.6 1579.6,38.1 
			1579.6,33.5 		"/>
		<polygon class="st12" points="1581.1,52.9 1589.7,55.7 1589.7,64.6 1586.8,74.9 1584.2,80.7 1580.6,81 1574,81.7 1562,71.3 
			1562,61.8 1569.6,52.9 		"/>
		<polygon class="st8" points="1588.7,86.8 1594,92.5 1596.3,107.9 1596.3,113.4 1588.7,115.8 1575.9,111.8 1571,106.2 1564.6,99.1 
			1560.5,86.8 1566.3,82.6 1574,81.7 1576.6,79.4 		"/>
		<path class="st8" d="M1381.7,291c0,0,23.5-10.3,33.1-10.7c9.6-0.5,21.9-2.7,21.9-2.7l4.4-35.2c0,0-22.7-8.7-36.1-3.3
			s-43.7,29.5-43.7,29.5L1381.7,291z"/>
		<polygon class="st11" points="1267.8,143.6 1262.8,141.5 1263.8,136.2 1270.8,128.2 1281.3,128.2 1288.4,129.1 1294.9,128.2 
			1298.1,129.5 1296.8,138.3 1291.8,141.1 1285.3,144.8 1285.3,147.2 1280.5,146.1 1274.8,147.2 		"/>
		<polygon class="st8" points="1312.5,178 1321.8,177.4 1326.4,174.9 1329.3,178 1330.6,188.5 1337.1,197.6 1334.2,202.6 
			1327,202.6 1321,206.6 1314.2,205.1 1307.7,201.8 1302,197.3 1306.2,182.4 		"/>
		<g>
			<circle class="st6" cx="1427.8" cy="299.2" r="21.3"/>
			
				<ellipse transform="matrix(0.239 -0.971 0.971 0.239 902.3566 1654.1418)" class="st6" cx="1506.5" cy="251.4" rx="21.3" ry="23.8"/>
			<circle class="st6" cx="1489.2" cy="297" r="19.1"/>
			<ellipse class="st5" cx="1520.5" cy="305.8" rx="19.2" ry="15.6"/>
			<circle class="st6" cx="1541.9" cy="279.3" r="21.3"/>
			<circle class="st5" cx="1569" cy="267.1" r="21.3"/>
			<circle class="st6" cx="1563.2" cy="219.7" r="21.3"/>
			<ellipse class="st5" cx="1601.9" cy="243" rx="19.6" ry="20.1"/>
			<circle class="st5" cx="1614.8" cy="208.7" r="21.3"/>
			<circle class="st5" cx="1609.6" cy="162.9" r="21.3"/>
			<circle class="st6" cx="1646.4" cy="141.6" r="21.3"/>
			<circle class="st5" cx="1678.4" cy="148.9" r="21.3"/>
			<circle class="st6" cx="1652.3" cy="184.2" r="21.3"/>
			<circle class="st6" cx="1689" cy="185.3" r="21.3"/>
			<circle class="st5" cx="1706" cy="175.6" r="21.1"/>
			<circle class="st6" cx="1738" cy="155.6" r="21.1"/>
			<polygon class="st13" points="1422,299.7 1424.5,299 1428.6,302.6 1435.4,302.6 1449.5,302.6 1466.8,297.7 1478.2,288.1 
				1479.9,288.1 1474.3,296.5 1493.9,286.7 1505.4,276.1 1510,266.7 1515.3,256.3 1516.7,253.9 1518.1,255.6 1518.1,260.9 
				1511.5,272.9 1548.6,252 1564.5,241.8 1577.8,232.9 1587.9,215.1 1594.2,204.2 1601.8,194 1605.5,191.2 1605.5,193.3 
				1608.3,192.2 1612.4,186.9 1616.3,182.8 1615.2,177.4 1617.9,175.1 1617.9,180.5 1618.8,182.7 1624.6,178.5 1632.8,170.2 
				1642.8,168.9 1654.5,164.9 1655.9,158.8 1658.1,158.8 1657.5,164 1661.7,162.2 1672.4,155.7 1674.1,157.1 1664,162.7 1677.1,161 
				1680.5,159 1684,161 1696.4,159 1699.4,155.7 1703.6,147 1705.2,147 1703.4,151.5 1701.7,157.3 1710.8,153.8 1715.1,151.3 
				1717.9,147.9 1720.9,144 1720.9,139.5 1723.7,141.7 1724.5,144.6 1719,151.3 1726.1,152.1 1724.8,154.8 1720.4,154.4 
				1716.5,155.7 1714.8,156.6 1715.5,158.5 1713.6,159.9 1709.5,156.8 1699.9,159.9 1690.2,162.9 1691.9,165.8 1695,169.9 
				1691.9,170.5 1688.8,166 1682.9,164 1674.6,165.2 1663.4,166.8 1654.5,169.1 1651.2,171.1 1647.2,172.1 1641.1,173 1633.4,176.6 
				1627.7,181.4 1623.6,184.5 1635.5,180.6 1635.5,184.5 1622.2,186.6 1623.5,188.4 1624.4,191.1 1619.4,189.1 1616.1,190.1 
				1606.3,198.9 1596.2,208.9 1600.4,210.7 1597.7,215.1 1597,221 1596.7,224.8 1596.5,228.2 1590.7,230.2 1589.9,233.2 
				1594.5,236.8 1593.2,239.7 1587.1,234.9 1581.2,237.4 1574,243.3 1571,245.5 1572.6,248.9 1572,251.9 1569.4,252.7 1569.4,248 
				1566.6,247.4 1559.9,251.6 1552.7,253.9 1556.6,258.3 1554.9,260.3 1551,257.7 1548,258 1543,260.3 1545,261.6 1542.6,264.4 
				1537.7,262.5 1526.5,269.3 1534.6,270.6 1538.7,270.4 1539.4,273.2 1536.9,275.1 1533.7,273.4 1531,271.7 1523.5,270.4 
				1517.6,274.3 1507.8,280.4 1503,282.9 1498,287.7 1506.1,289.6 1511.8,294.8 1510.4,297.1 1507.5,297.1 1507.5,293 1503.7,290.6 
				1497.3,289.5 1493.4,291.8 1475.5,297.9 1468.3,300.8 1463.3,302.6 1449.8,305.7 1439.3,308.5 1430.3,306.6 1424.8,305.7 			"/>
			<polygon class="st13" points="1684.9,202.9 1689,206.6 1684.9,209.6 1686,211.2 1683.2,210.3 1680.8,207.1 			"/>
			<circle class="st5" cx="1479.1" cy="268" r="21.3"/>
		</g>
		<polygon class="st4" points="1281.7,589.4 1281.7,593.3 1286.7,594.8 1288.1,601.2 1294.1,606 1297.4,611.8 1301.2,610.1 
			1307.8,616.3 1306.7,621 1314.2,618.8 1318.3,621.9 1324.5,619.6 1328.7,622.9 1334.7,617.9 1342.3,624.6 1346.2,627.9 
			1351.8,624.4 1356.4,625.2 1362.4,631 1367.7,629.9 1371.4,631 1371.4,627.2 1383.8,628.5 1386.9,624.8 1394.6,625.8 
			1401.2,624.2 1398.3,618.4 1404.7,620.6 1408.9,618 1414,617.7 1411.8,611.7 1416.9,611.7 1423.1,605.3 1428.1,601.8 
			1419.2,589.4 1415.5,587.2 1418.6,584.7 1411.8,580.9 1406.4,580.9 1404.5,578.1 1407,573.5 1402.9,574.8 1399.8,572.5 
			1396.9,571 1395.2,567.1 1393.8,564 1389.2,565.9 1386.1,564 1380.9,564 1380.9,558.6 1374.1,560.1 1371.9,559.7 1367.7,564 
			1366.1,562.1 1364,564 1349.7,570.2 1322.9,578.5 1302.2,582 1286.7,585.7 		"/>
		<path class="st7" d="M1286.7,585.7h10.5h4.6h3.9l2.5-2.5l5,2.5h3.5l5.8-1.3l3.3-1.3l2.1-2.7h4.5l3.9-2.1v-2.7h7l6.4-3.7
			c0,0,4.1,0.4,5,0s5,0,5,0l-1-4.1l6-2.1l-0.8-1.7l-6.6,2.1l-9.7,0.8l-7.4,4.8l-9.3,0.6l-10.5,3.7H1310l-8.1,3.9l-13,1.7
			L1286.7,585.7z"/>
		<polygon class="st12" points="1187.7,633 1194.5,633 1199.3,636.7 1199.3,647.5 1202.7,649.1 1206.6,650.9 1206.6,657.5 
			1202.4,663.5 1204.3,667.7 1204.3,676.1 1201.9,676.1 1191.1,670.3 1187.7,673 1184,674.3 1181.9,671.9 1181.9,661.3 
			1181.9,654.6 1184.6,652.5 1183.5,648.5 1185.3,645.6 1181.9,640.6 1184.8,639.9 1184.8,633 		"/>
		<polygon class="st8" points="1217,639.9 1227.1,648.4 1241.4,655.3 1238.9,662.4 1235.3,668.8 1236.3,678.5 1235,683.2 
			1235.7,691.1 1234,699 1234.1,705.1 1229,717 1230.4,719.9 1200.2,725.3 1207,702.9 1209.7,676.3 1211.4,654.7 		"/>
		<polygon class="st12" points="1337.6,682.4 1347.3,679.4 1360.4,679.4 1359,685.1 1364.8,688.9 1364.8,695.8 1352.8,697.1 
			1345.8,705.3 1339.1,705.3 1335.4,696.4 1330.3,687.6 		"/>
		<polygon class="st8" points="1373.2,713 1392.6,717.9 1394.2,711.4 1409.9,714.7 1412.7,714.7 1412.7,720.5 1418.7,725 
			1416.9,727.1 1412.1,727.1 1412.5,729.1 1416.5,733.6 1418.7,739.5 1411.2,746.4 1411.2,753.2 1414.7,759.2 1414.7,763.8 
			1416.9,768 1413.6,776 1413.9,793.9 1408.5,800.3 1388.9,780.2 1383.6,772.5 1379.1,751 1373.2,748.6 1378.7,740.2 1366.1,736.9 
			1364.8,731.3 1372.1,726.5 1371.2,718.7 		"/>
		<polygon class="st11" points="1432.6,702.8 1449.9,701.7 1452.8,728 1455,739.7 1449.7,741.3 1439.5,728.9 1434.2,719.8 		"/>
		<polygon class="st8" points="1423.6,694.4 1428.4,701.7 1450.5,692.4 1466,679.4 1478.8,658.6 1480.3,654.7 1486.8,637 
			1467.6,635.9 1458.9,633 1455,633.9 1455,643.1 1449.4,646.7 1442.6,656.4 1441,661.3 1428.1,665.2 1421.4,667.3 1428.1,675.4 
			1425.8,688.2 		"/>
		<polygon class="st12" points="1485,659.3 1485,667.3 1492.8,673.9 1495.4,672.8 1499.6,673.9 1505.8,668.3 1504,660.8 
			1506.9,661.5 1506.9,655.7 1510.7,653.3 1513.5,653.3 1513.5,645.1 1513.5,640.5 1508.7,638.1 1505.4,635.4 1506.9,628.8 
			1496.3,628.8 1489.4,631 1487.9,639.8 1485,645.6 1482.4,655.5 		"/>
		<polygon class="st11" points="1660.2,605.3 1666.5,608.3 1666.5,613.5 1671.4,613.5 1683,613.5 1690,612 1696.1,609.4 
			1700.1,605.3 1696.1,594.9 1683.3,585.8 1666.5,585.8 1660.2,587 1655.6,591.2 1655.6,604 		"/>
		<polygon class="st8" points="1610.8,701.7 1636.1,683.5 1663.5,677.8 1687,679.6 1689.1,686 1700.1,709.7 1703.4,721.5 
			1703.4,728.3 1696.4,728.3 1689.1,728.3 1672.9,721.5 1664.7,720.1 1647.4,721.5 1640,725.6 1637,728.3 		"/>
		<polygon class="st12" points="1607.1,760.6 1618.4,774.6 1630,760.6 1632.4,755.9 1626,747.2 		"/>
		<polygon class="st12" points="1811.2,800.3 1819.2,789.6 1823.1,783.8 1827.4,783.8 1832.3,783.8 1836.8,786.5 1828.9,800.3 		"/>
		<polygon class="st11" points="1890.7,694.2 1903.2,694.2 1906.6,691.2 1901.4,682.3 1895.3,682.3 1890.7,684.8 		"/>
		<path class="st14" d="M1519.7,447.8l312.2,55.4l9.7,5.8l2.7,9.1l-2.7,11L1831,537l-32-3.4l-280.9-46v10.7c0,0,288.5,53,308.3,50.3
			l12.5-4l14-10.1l3.4-9.1v-17.7l-10.1-9.5l-21.6-9.3l-309.2-56L1519.7,447.8z"/>
		<polygon class="st11" points="1441.4,467.3 1451.2,457.2 1467.6,460 1471.9,469.4 1467,474 1456.7,479.8 1445.1,484.3 
			1435.3,482.8 1435.3,474.6 		"/>
		<polygon class="st14" points="1441.4,442.6 1453.6,435.6 1453.6,421.9 1442.7,421.9 1439.3,427.7 1439.3,439.8 		"/>
		<polygon class="st11" points="1455.8,444.4 1471.9,443.5 1473.4,449.3 1473.4,454.8 1468.9,462.7 1455.8,465.4 1451.2,457.2 		"/>
		<path class="st14" d="M1464.3,430.7h11v5.2l-3.4,7.6c0,0-6.4,2.7-7.6,2.7s-4-1.8-4-3.7c0-1.8,0-6.4,0-6.4L1464.3,430.7z"/>
		<path class="st8" d="M1473.4,399l12.8-1.5l4.3,2.8v13c0,0-2.4,8.8-4.3,8.5s-12.5-2.1-12.8-2.1s-4.3-2.7-4.3-4.9
			S1473.4,399,1473.4,399z"/>
		<path class="st11" d="M1456.4,388.4l9.7,2.7v9.2c0,0,3.7,8.8,0,9.4c-3.7,0.6-12.5,3.3-12.5,3.3l-6.1-3.3l6.1-21.3H1456.4z"/>
		<polygon class="st9" points="1439.3,391.7 1447.5,391.7 1449.1,399 1439.3,407.9 1430.5,406 1428.1,399.8 1435.3,393.8 		"/>
		<path class="st8" d="M1417.1,400.7l10.7,5.3l11.5,1.8c0,0,1,7.9-0.7,8.5c-1.7,0.6-10.8,5.5-10.8,5.5h-6.7l-5.5-6.7l-2.1-7.3
			L1417.1,400.7z"/>
		<polygon class="st9" points="1404.9,411.3 1397.6,419.4 1394.8,425.8 1406.4,432.8 1421,432.8 1427.8,421.9 1420.7,418.2 
			1408.2,415.2 		"/>
		<polygon class="st8" points="1393.3,435.9 1397.6,442.6 1408.2,443.5 1417.4,435.9 1417.4,426.4 1406.4,421.9 1394.8,428.6 		"/>
		<path class="st11" d="M1393.3,445l4.3-6.5h12.2l5.5,9.6c0,0-1.5,11.3-1.8,12.2c-0.3,0.9-12.5,1.5-12.5,1.5l-6.1-7.3L1393.3,445z"
			/>
		<polygon class="st9" points="1387.2,457.2 1391.2,451.7 1397.3,451.7 1404.3,451.7 1404.3,463.3 1397.9,467.6 1388.7,465.4 		"/>
		<polygon class="st14" points="1394.8,463.3 1393.3,470.8 1393.3,480.4 1404.3,480.4 1410.1,471.8 1404.3,463.3 		"/>
		<polygon class="st11" points="1410.1,454.5 1411.3,465.4 1417.4,465.4 1417.4,470.8 1424.4,471.8 1433.5,467.6 1428.1,447.8 
			1415.2,448.1 		"/>
		<polygon class="st11" points="1425,438.5 1439.3,439.8 1438.6,451.7 1430.7,457.2 1421.8,454.5 1421.8,446.2 		"/>
		<path class="st8" d="M1473.4,449.3l11.6,2.4c0,0,0.6,1.5,2.1,2.7c1.5,1.2,4.9,13.1,4.9,13.1l-1.5,12.8l-7.8,2.4l-6.2-7.6
			l-1.2-11.9L1473.4,449.3z"/>
		<path class="st14" d="M1488.7,438.5l12.7,4.1v7.5v7.1l-9.3,2.4l-9.3-5.2c0,0-1.4-11,0-11.9
			C1484.1,441.7,1488.7,438.5,1488.7,438.5z"/>
		<polygon class="st14" points="1507.2,417.6 1513.3,420.4 1515.5,432.8 1503.9,438.5 1495,432.8 1497.5,428 		"/>
		<path class="st9" d="M1498.1,407.9l7.2,1.8l2.6,3.3v12.2h-7.7c0,0-6.6-0.2-6.6-3.2s2.7-10.8,2.7-10.8L1498.1,407.9z"/>
		<polygon class="st9" points="1485.6,407.9 1493.5,406.3 1496.3,411.3 1494.9,415 1490.5,427.1 1482.7,427.1 1479.8,420.8 		"/>
		<polygon class="st8" points="1500.1,425.2 1500.7,432.8 1488.7,438.5 1485.6,430.7 1485.6,417.6 1496.3,417.6 		"/>
		<polygon class="st11" points="1510.6,432.7 1518.2,438.5 1519.7,447.8 1510.6,454.5 1501.3,452.9 1496.3,442.6 1500.7,436.4 		"/>
		<polygon class="st14" points="1515.5,446.2 1519.7,451.7 1519.7,461.8 1515.5,467.6 1507.8,467.6 1501.3,465.4 		"/>
		<path class="st11" d="M1500.7,485.5l4.6,5.2l2.6,9.7l-6.5,10.4l-9.3,2.1c0,0-7.6-7.9-6.4-9.1s2.4-8.8,2.4-8.8l2.4-6.7
			L1500.7,485.5z"/>
		<path class="st14" d="M1460.3,521.2l-11.2,9.7l-2.6-6.1l-2-11.9l7.9-3.7c0,0,6.1,0.9,7.9,0c1.8-0.9,3.4,1.5,3.4,3.7
			C1463.7,515.1,1460.3,521.2,1460.3,521.2z"/>
		<path class="st11" d="M1466.4,520l7,4.2l6.4-4.2c0,0-0.6-2.5,0-7.1s-10.7-8.8-10.7-8.8h-11.5l-1.3,8.8L1466.4,520z"/>
		<path class="st9" d="M1469.2,501.1l5.2,8c0,0,6.4-0.2,8.4,0c2,0.2,2.9-5.3,2.9-5.3l-2.9-13l-13.6,1.8V501.1z"/>
		<path class="st9" d="M1410.1,520l7.3,2.7l4.4-1.3l2.9,2.9h10.7c0,0-3.8-14.7-4.8-15.1c-1-0.4-7.8-5-7.8-5s-7.8-0.9-9.3,0
			c-1.5,0.9-7,5-7,5L1410.1,520z"/>
		<polygon class="st14" points="1400.3,490.8 1404.3,484.3 1420.9,478.8 1426.5,485.5 1417.4,494.7 1406.4,494.7 1397.3,494.7 		"/>
		<path class="st8" d="M1398.5,482.8l1.8,8c0,0,9.8-1.9,11-2.5c1.2-0.6,6.8-1.5,8.2-5.5c1.4-4,2.5-0.9,1.4-4c-1.1-3-5.7-5.2-5.7-5.2
			h-13.6L1398.5,482.8z"/>
		<polygon class="st9" points="1417.4,490.8 1413.4,504.1 1422.7,504.1 1433.5,503.7 1433.5,493.5 1426.5,488.9 		"/>
		<path class="st8" d="M1428.1,514.2l11.5,5.8c0,0,5.8-1.3,6.9-1.6s1.1-6.9,1.1-6.9l-3-7.4l-11-0.4L1428.1,514.2z"/>
		<polygon class="st14" points="1451.2,503.7 1463.7,501.4 1462.3,492.2 1454.1,486.8 1442,488.9 1439.6,495.2 1440.8,499.9 		"/>
		<polygon class="st8" points="1457.6,496.5 1470.7,496.5 1473.4,488.9 1469.2,480.4 1460.3,480.4 1451.6,478.8 1454.1,486.8 		"/>
		<path class="st8" d="M1437.8,463.3l6.7,4.3l7.2-4.3c0,0,2.3-3.9,2.4-5.6c0.2-1.7-6.5-9.9-6.5-9.9l-3-9.3l-11,4.1v7.5L1437.8,463.3
			z"/>
		<path class="st8" d="M1428.1,441.1l11.2-1.2l4.5-9.1l-6-8.8h-10.1l-6.9,5.2c0,0,0.2,8.2,0,9.1
			C1420.7,437.1,1428.1,441.1,1428.1,441.1z"/>
		<polygon class="st14" points="1449.1,425.2 1449.1,415.2 1456.4,406.3 1467.7,406.3 1475.2,409.7 1473.4,419.7 1463.7,428 
			1449.1,428 		"/>
		<path class="st11" d="M1451.2,430.7l5.2-5.5l7.3,2.8l4.1,8.5l-3.5,9.7l-12,7.9c0,0-7.5-4.2-7.8-4.8c-0.3-0.6,0-10.8,0-10.8
			L1451.2,430.7z"/>
		<polygon class="st8" points="1460.3,436.2 1475.2,438.5 1482.7,427.1 1479.8,420.8 1469.2,414.9 1463.7,420 		"/>
		<polygon class="st14" points="1482.1,473.7 1479.8,487.7 1469.2,488.9 1462.5,484.3 1462.2,470.8 1475.2,470.8 		"/>
		<path class="st14" d="M1500.7,473.7h5.9l3.9,6.7l-2.5,14.3c0,0-10.8,0-11.7-2.1c-0.9-2.1-1.2-12.7-1.2-12.7L1500.7,473.7z"/>
		<polygon class="st8" points="1502.8,504.1 1515.5,503.7 1518.2,495.2 1518.2,487.7 1505.3,485.5 1501.3,490.8 		"/>
		<path class="st11" d="M1513.9,479.8l5.8-8c0,0-2.4-8.5-4.3-8.5c-1.8,0-10.2,0-10.2,0l-1.1,7.5c0,0-2.4,4.7,0,6.9
			C1506.6,479.8,1513.9,479.8,1513.9,479.8z"/>
		<path class="st9" d="M1495,479.8l9.1-2.2l1.1-14.3c0,0-5.5-5.7-6.9-5.3s-0.3-1.7-3.3,0c-3,1.7-7,5.3-7,5.3v10.4L1495,479.8z"/>
		<path class="st9" d="M1441.7,416.5l2.7-8.7l11.9-1.5c0,0,0.4,4.9,1.3,6.7c0.9,1.8,0,8.8,0,8.8l-8.5,6.2l-6.4-6.2L1441.7,416.5z"/>
		<path class="st11" d="M1424.4,471.8l17.1-4.6c0,0,0.3,0.9,0.3,3.5c0,2.6-4.6,1.1-2.1,9.6c2.4,8.5-13.1,5.2-13.1,5.2h-3
			L1424.4,471.8z"/>
		<g>
			<path class="st5" d="M1673.5,303.5c0,0-0.9-7,4.7-9.2c5.5-2.1,11.9-3.4,11.9-3.4s6.4-4.5,11.3-4.5c4.9,0,9.8,5.8,9.8,5.8
				s6-1.9,10.4,2.8c4.5,4.7,6,10.4,6,10.4s8.9,3.8,10,10c0,0,3.6,5.3,2.1,9.4c0,0,7.5,1.7,6,15.3c0,0,3.6,7.9-3.2,14.7
				c0,0,0,5.3-4.5,8.7c0,0-1.7,6-10.9,9.2c0,0-2.1,7.7-15.8,3.2c0,0-10,4.3-17.5-1.1c0,0-7.2,3.6-14.7-0.2c0,0-8.1-2.6-9.2-6.4
				c0,0-10.9,0.4-11.7-12.6c0,0-7.2-8.9-3-17c0,0-5.1-11.7,4.7-16c0,0,0.4-7.9,8.3-10.4C1668.3,312.3,1667.1,305.7,1673.5,303.5z"/>
			<path class="st6" d="M1677.7,310.6c0,0,2.8,6,7.5,6.6c0,0-1.5,5.3,0.9,7c0,0-1.7,7.7,1.5,11.1c0,0-0.9,5.1,1.9,7.9
				c0,0-3-1.5-8.7,1.9c0,0-3.4-1.7-6.4-0.9c0,0-0.9-3.8-4.3-4c0,0,1.7-4.3,0-7c0,0,5.5-6,4-12.1L1677.7,310.6z"/>
		</g>
		<path class="st5" d="M1058.9,450.3l13.2-6.3c0,0,12.1,4.1,13,3.2c0.8-0.9,4.5,2.4,6.2,3.2c1.7,0.7,13.2,12.5,13.2,12.5l11,28.2
			l1.7,13.7l-2.5,11.7l-9.9,14.4l-23.4,9.6l-24.2,4.5l-14.2-1.2c0,0-10.4-5.8-10.4-7.2s0-18.2,0-21.5c0-3.3,1.9-18.7,1.9-18.7
			l9.7,2.1l8.2-9L1058.9,450.3z"/>
		<path class="st5" d="M1112.8,391.9l-4.4-10.1l2.8-7.8l7.2-1.8l5.8,2.6c0,0,1-2.9,6.7,0.6c5.6,3.6,6,6.9,6,6.9s5.8,2,7.7,11.1
			c0,0,3.3,1.9,3.5,12.7c0,0,3.2,7-0.6,20.3c0,0,1.4,8.7-8.5,15.1c0,0-5.8,8.5-17.4,9c0,0-11.3,4.3-33.1-5.2c0,0-8.5-1.9-10-8.7
			c0,0-11.8-3-9.5-14.3l9.4-19.3l27.4-1C1105.8,402.1,1106.8,397,1112.8,391.9z"/>
		<path class="st6" d="M1110.4,382.5c0,0-6.3-1.5-10.3,4.4l3.5,14.2l4,4.6l9.6-14L1110.4,382.5z"/>
		<path class="st10" d="M1014.1,353.1l8.8-9.1l4.7-1.3v-3.4l3.9,3l0.8,4.6l2.7,0.2l9.1-3.7l2.4,2.9l5.4-2.2l-0.8,4.9l3.5-0.5
			l3.9,1.9l4.9-0.5l3.4,3.4h2.9l0.7,1.7l7.1,1.5l-3.2,4.7l3.2,2.5l3.2-0.7l0.9,2.4l2.6,2l0.6,1.5l1.9-1v3.5l-4.7,2.3l5.6,0.4
			l2.7-1.9l3,4.3l5.6,2.6l1,2.9l1-1.3l0.7,2.7l-1.5,3.5h2.4l0.7-1.5l3.3,7.3l-1.6,1.1l-0.9,3.5l1.7,4.7l-0.3,4.3l-1.8,2.8l-4.9-0.8
			l-2.2,0.8v2.6v2.2l-3.3,2.2l-0.5,2.2l-1.7,1.2l-6.2-0.9l1.2,2.5l-3.2,0.6l-4.2-0.3l-3.6-1.6l0.3,2.6h-2.2l-5.3-2.1l-1.7-2.4
			c0,0-0.6-0.5-1.1,0.8c-0.5,1.3-1,2.4-1,2.4l-3.9,1.3l-35.9-39.7L1014.1,353.1z"/>
		<g>
			<path class="st6" d="M776.4,522.7c0,0-5.1-2.7-4.3-9l1.1-3.1c0,0-4.1-4.9-1.8-11c2.4-6.2,3.7-8.4,3.7-8.4s-1.6-7,2.5-9.4
				c0,0-0.8-6.7,8.1-6.5c0,0,0.4-4.4,6-8.1c0,0,0.9-3,8.3-5.1c0,0,4.1-2.3,8.6-1.5c0,0,1.2-2.8,6.5-2.2c0,0,5.3,0.5,8.2,2.8
				c0,0,7.5,1.1,12.2,3.4c0,0,12.2,7.2,15.5,14.3c0,0,4,4.5,1.2,7.6l-14.3-1.7l-17.4-14.4l-15-1.7l-3.1,17.1l-14.6-2.6l-7.7,17.1
				L776.4,522.7z"/>
			<path class="st5" d="M794.4,484.3c0,0-4.4-4.2,0-8.7c4.4-4.5,7.4-2.3,7.4-2.3s-3.9-4.8,2.1-7.3c6-2.4,6-2.4,6-2.4
				s0.8-3.1,8.1-2.3c0,0,6.2-1,7.3,4c0,0,1.8-2.1,6,0.5c0,0,5.7,2.5,5.2,6.9c0,0,3.1-2,5.7,3.1l2.9,5.3c0,0,7.2-1.9,7.2,6.3
				c0,0,6,1.6,7.4,6.5c0,0,4.2,6.8,1.1,9.2c0,0,3.7,6.2-0.3,9.7c0,0,3.2,9.7-2.4,15.1c0,0-3.4,16.7-11.5,19.1c0,0-3.2,5.2-11.5,6.2
				c0,0-10.7,7.4-17,3.9c0,0-11.2,2.4-16.7-2.7c0,0-11.9-1.8-11.1-9.6c0,0-13.8-5.8-11.3-13.9c0,0-5.5-5.5-3.1-10.7
				c0,0-2.6-8.6,1.9-10.6c0,0-3.4-11.9,1.6-14.7c0,0-3.6-11.5,2.3-15.5C781.6,479.5,788.1,474.2,794.4,484.3z"/>
			<path class="st6" d="M816.3,491.8c0,0,3.4,5.2-6.4,10.5c0,0,3.8,6.2-3.6,12.6c0,0-2.1,2.9,0,5c0,0,3.6-0.6,6,2.4
				c0,0,2.6-0.7,4.5,1.3c0,0,1.4-2.5,7.4-2.7c0,0,1.9-0.7,5.4,0.8c0,0-0.8-2.4,2.8-5.9c0,0,1.1-3.9,4.5-6.1c0,0-2.4-2.5-1.7-6.5
				c0,0-5.8,0-7-5.8c0,0-6-3.2-6.8-7.3C821.5,490.1,820.2,491.8,816.3,491.8z"/>
		</g>
		<g>
			<circle class="st5" cx="958.8" cy="414.8" r="16.5"/>
			<circle class="st5" cx="929.8" cy="433.8" r="16.5"/>
			<circle class="st5" cx="958.8" cy="452.8" r="16.5"/>
			<path class="st5" d="M1009.3,408.8c0,9.1-6.9,13.5-16,13.5c-9.1,0-17-4.4-17-13.5s7.9-15.5,17-15.5
				C1002.4,393.3,1009.3,399.7,1009.3,408.8z"/>
			<path class="st5" d="M1009.5,444.9c-1.4,9.3-9.1,12.8-18.4,11.4s-16.8-7.1-15.4-16.4s10.4-14.7,19.8-13.3
				S1010.9,435.5,1009.5,444.9z"/>
			<circle class="st5" cx="911.8" cy="462.8" r="17.5"/>
			<path class="st5" d="M893.3,461.3c0,7.2-6.8,12-14,12s-14-8.8-14-16c0-7.2,7.8-12,15-12S893.3,454.2,893.3,461.3z"/>
			<path class="st14" d="M703.9,486.3c0,0-3.5-4.1,0-5.9c3.5-1.8,5.3,2.1,5.3,2.1s1.7,3.5,6.3,3.9c4.6,0.4,27,2.6,27,2.6l24.6,3
				l44.7,3.7l6.7-1.2l4.1-0.4l25.2-5.1l18.5-5.5l6.1-5.1l7-15.5v-3.5l2.6-1.7l3.5,1.7l-3.3,3.5l-6.9,13.8l-0.8,3.7l21.2-11
				l17.7-11.7l8.2-8.5l5.3-7.6v-3.6h2.5v3.6l-4.3,6.2l15.2-9.8l7.1-1.6l8.7-5.5v-4.4h2.3v2.8l4.6-3.9l1.6,1.1l-5.7,5l13-5l3.7-1.1
				l6-3h1.7l4.9-5l2.9-1.4l0.9,1.4l-0.7,2.5l-7.2,4.7l-5.3,2.5l-10.5,3.5l7.1,0.9l4,1.8l-2.4,1.2l-3.6-1.9l-9.3-0.5l-5.5,2.7
				l-8.9,2.7l-3.6,1.7l-4,2l4,0.5h4.3l-0.1,1.6l-4.1-0.4l-6.9-0.1l-7.6,6.4l-14.8,9l-15.7,11.4l-1.2,1.7l4.8,2.3l4.4-1.3l3.1-1.2
				l1.9,0.8v2.4h-2.5l-2.4-0.7l-3.5,1.4l-4.3-0.5l-3.9-2.4l-16.6,7.8l-14.6,6.2l-8.9,4.5l-23.5,4.3l-12.1,2l-2.7,1.7h-6.1l-17.9-0.5
				l-31.2-3.6l-24.6-1.6l-29.9-4.4l-3.3-0.7L703.9,486.3z"/>
		</g>
	</g>
</g>
</svg>
