<?xml version="1.0" encoding="UTF-8"?>
<svg width="1761px" height="1021px" viewBox="0 0 1761 1021" version="1.1" xmlns="http://www.w3.org/2000/svg" xmlns:xlink="http://www.w3.org/1999/xlink">
    <!-- Generator: Sketch 52.6 (67491) - http://www.bohemiancoding.com/sketch -->
    <title>Group 7</title>
    <desc>Created with Sketch.</desc>
    <g id="Page-1" stroke="none" stroke-width="1" fill="none" fill-rule="evenodd">
        <g id="Afterfit-Home-–-final-intro-–-3" transform="translate(-87.000000, -31.000000)">
            <g id="Group-7" transform="translate(87.000000, 31.000000)">
                <path d="M1178.19676,952.989636 C1182.16463,953.822294 1186.1257,954.301497 1190.04938,954.468028 L1190.0239,924.082832 L1195.92727,954.476524 C1212.71296,953.805301 1228.48077,947.261294 1240.71573,936.477531 L1233.40364,923.836434 L1247.61829,929.498503 C1247.97685,929.082175 1248.3303,928.662448 1248.68206,928.237622 L1232.09008,914.218392 L1255.1258,919.047804 C1258.7844,912.83686 1261.55256,905.966587 1263.24846,898.583126 L1221.27743,889.782448 C1217.38094,904.792371 1202.33363,914.238783 1186.99574,911.023706 C1171.65785,907.80693 1169.96875,894.851462 1172.91703,879.641021 L1122.16062,869 C1121.58966,872.007762 1121.20901,875.008727 1121.02209,877.991 L1142.83771,882.565517 L1121,886.637042 C1121.38914,893.34928 1122.71629,899.88649 1124.8761,906.088937 L1162.94044,898.999455 L1129.05808,915.756259 C1134.70996,926.579105 1143.07052,935.925259 1153.44985,942.734357 L1173.4999,920.619657 L1159.99215,946.544189 C1165.61514,949.433 1171.71053,951.628497 1178.19676,952.989636" id="Fill-14" fill="#C0BEDC" opacity="0.9"></path>
                <path d="M231.712122,522.304846 C210.154728,516.002462 209.202729,497.373324 215.123592,476.064741 L214.930114,476.005636 C222.218514,455.13925 244.754291,443.410117 266.2897,449.694988 C287.844896,455.995183 288.799093,474.624322 282.873833,495.937282 L283.069509,495.992009 C275.783308,516.862774 253.247531,528.589718 231.712122,522.304846 Z M356.978412,492.327632 C357.175591,482.694312 356.018804,473.221255 353.641694,464.127998 L298.632965,469.958923 L348.766976,449.85804 C341.937989,433.774699 331.077774,419.495959 317.062686,408.611274 L286.022233,437.917378 L308.167694,402.442261 C300.486453,397.684876 292.051548,393.862723 282.972522,391.195338 C277.409866,389.566368 271.82092,388.429162 266.253882,387.75079 L262.882111,431.116096 L257.886894,387.076809 C233.903281,386.145968 210.710577,393.713437 192.074913,407.724341 L201.070685,426.584835 L181.464459,416.907608 C180.903592,417.458648 180.351489,418.020665 179.80815,418.587072 L201.861594,440.461821 L169.60301,430.982178 C163.700767,439.41243 159.00351,448.878901 155.75881,459.197179 L143.654173,455.636275 C142.50615,459.864574 141.621032,464.110435 141.018539,468.343125 L171.579188,477.328808 L140.021687,480.674564 C139.824507,490.303493 140.974721,499.780941 143.358404,508.874197 L198.362751,503.038882 L148.22874,523.139765 C155.062109,539.225301 165.922324,553.504041 179.935221,564.390922 L210.975674,535.082623 L188.828022,570.555544 C196.513645,575.315124 204.941978,579.139473 214.027576,581.802467 C219.58585,583.435828 225.174797,584.568643 230.741834,585.24921 L234.117987,541.883904 L239.111013,585.923192 C263.090245,586.854032 286.28733,579.286563 304.922994,565.273464 L295.929413,546.410774 L315.535639,556.092392 C316.096506,555.539157 316.644227,554.97714 317.191948,554.412928 L295.131931,532.535984 L327.397088,542.015627 C333.292759,533.585375 337.996588,524.118904 341.239097,513.802821 L353.341543,517.36153 C354.491758,513.137622 355.374684,508.88737 355.977177,504.656876 L325.42091,495.673388 L356.978412,492.327632 Z" id="Fill-1-Copy-10" fill="#C0BEDC" opacity="0.7"></path>
                <polygon id="Fill-3-Copy-7" fill="#C0BEDC" opacity="0.2" transform="translate(1247.454553, 615.771930) rotate(17.000000) translate(-1247.454553, -615.771930) " points="1187.44619 505.009658 1182.68711 532.962379 1156.24966 532.160498 1145.23892 584.12165 1118.6162 585.18397 1114.57767 624.596039 1148.30642 628.046865 1142.92972 680.576871 1163.54784 682.684377 1160.6622 710.825574 1190.64407 713.889168 1198.53585 636.966925 1277.06586 646.887623 1286.23748 723.659084 1314.35621 726.534202 1317.62272 694.637189 1340.11427 696.940025 1344.92482 650.03346 1377.36002 647.662088 1380.33144 618.770413 1337.21147 614.363499 1337.04678 579.08077 1318.3021 577.158314 1311.28871 534.737481 1288.79716 532.441499 1280.97744 608.620118 1204.13215 600.75895 1208.05745 507.12059"></polygon>
                <path d="M419.369903,807.538913 C456.10661,807.839705 492.827276,808.136486 529.559973,808.445299 C529.596068,808.894481 529.636173,809.343664 529.668258,809.800867 C498.061053,809.808889 467.239918,813.983879 438.287703,827.318983 C409.572111,840.541791 382.180002,855.765868 361.437399,881.425415 L366.205952,885.768849 C427.792074,864.998172 488.780623,844.420001 549.761151,823.84584 C549.853394,824.118558 549.957668,824.391276 550.049911,824.663994 C491.287222,849.260744 432.528542,873.873535 373.765853,898.474296 C418.908689,901.762953 460.939332,889.526742 502.023484,873.440395 C480.867793,896.007803 459.756218,918.523073 438.48422,941.214808 C438.002953,940.845837 505.30011,892.065425 536.678712,865.475428 C536.762934,866.830996 536.201456,867.492738 535.635967,868.142449 C523.800812,881.790376 511.456316,895.029227 500.254828,909.182484 C485.291438,928.076221 475.188843,949.300092 473.596652,973.844704 C472.971005,983.518169 475.549794,992.481765 479.379876,1002.11111 C513.148771,948.911068 546.476504,896.392816 579.800227,843.886596 C580.028829,844.006913 580.25342,844.135251 580.482022,844.255568 C561.33562,882.75291 542.193229,921.242231 523.050838,959.739573 C524.237963,959.731552 524.711208,959.330496 525.124296,958.873293 C549.095399,932.215117 573.210881,905.681268 596.961403,878.818553 C605.531965,869.121025 612.90337,858.448931 617.094402,845.948023 C620.415144,836.017882 620.298838,826.167953 615.229493,816.987787 C611.796456,810.759391 607.621465,804.85585 603.213863,799.265133 C588.422926,780.531818 570.118741,767.016239 546.195765,762.247686 C527.646937,758.545942 509.992462,762.861301 492.514452,768.492124 C470.701029,775.526642 451.249825,787.393882 431.517882,798.655528 C427.210543,801.114 423.0917,803.905348 418.884625,806.536274 C419.041037,806.87316 419.20547,807.206037 419.369903,807.538913" id="Fill-1-Copy-9" fill="#8C90B6" opacity="0.5" transform="translate(490.394903, 881.489748) rotate(98.000000) translate(-490.394903, -881.489748) "></path>
                <path d="M1586.77764,494.215628 C1564.05498,487.581539 1563.05152,467.97192 1569.29243,445.541833 L1569.0885,445.479617 C1576.77087,423.515 1600.52479,411.168544 1623.22428,417.784198 C1645.94462,424.415982 1646.9504,444.025602 1640.70485,466.460297 L1640.9111,466.517904 C1633.23105,488.48713 1609.47713,500.831282 1586.77764,494.215628 Z M1718.97722,462.149762 C1719.1853,451.983947 1717.96454,441.987254 1715.45598,432.391355 L1657.40529,438.544592 L1710.31169,417.332605 C1703.10507,400.360235 1691.64429,385.292218 1676.85417,373.805867 L1644.0972,404.731906 L1667.46729,367.295853 C1659.36128,362.275498 1650.45993,358.242069 1640.87884,355.427242 C1635.00857,353.708227 1629.11056,352.508161 1623.23566,351.792291 L1619.67743,397.554674 L1614.40598,351.081055 C1589.09609,350.098761 1564.62084,358.084532 1544.95463,372.869908 L1554.44787,392.772942 L1533.75742,382.560793 C1533.16554,383.142292 1532.58291,383.735375 1532.00952,384.333092 L1555.28251,407.416997 L1521.24004,397.413354 C1515.01141,406.3096 1510.0544,416.299343 1506.63027,427.187978 L1493.85625,423.43024 C1492.64474,427.892264 1491.71067,432.372821 1491.07486,436.839478 L1523.3255,446.321857 L1490.02289,449.852555 C1489.8148,460.013736 1491.02862,470.015063 1493.54412,479.610962 L1551.59018,473.453092 L1498.68379,494.665079 C1505.89504,511.639765 1517.35582,526.707782 1532.14362,538.19645 L1564.9006,507.268094 L1541.52819,544.70183 C1549.63882,549.724503 1558.53324,553.760248 1568.12127,556.570442 C1573.98691,558.29409 1579.88492,559.489523 1585.75982,560.207709 L1589.32267,514.445326 L1594.59181,560.918946 C1619.89708,561.90124 1644.37695,553.915469 1664.04316,539.127776 L1654.55224,519.222425 L1675.24268,529.439208 C1675.83456,528.855392 1676.41257,528.262309 1676.99058,527.666909 L1653.71066,504.580686 L1687.76006,514.58433 C1693.98176,505.688084 1698.94571,495.698341 1702.36753,484.812023 L1715.13923,488.567443 C1716.35305,484.110053 1717.2848,479.624862 1717.92062,475.160522 L1685.6746,465.68046 L1718.97722,462.149762 Z" id="Fill-1-Copy-10" fill="#8C90B6" opacity="0.3"></path>
                <path d="M1773.83999,54.0354018 C1769.42801,48.8229426 1764.86927,43.736854 1759.93258,38.1231358 C1745.70307,45.5425197 1731.7502,53.0648239 1717.55057,60.0920683 C1712.71518,62.4813835 1709.94357,65.8087069 1708.29152,70.7905724 C1706.36022,76.6127369 1703.87174,82.2564193 1701.62354,87.9743606 C1701.34171,87.9001017 1701.06507,87.8284483 1700.78972,87.7594004 C1700.91051,81.9268136 1701.0274,76.0942268 1701.16507,69.5581339 C1671.30856,88.0811894 1640.73642,104.274858 1620.64938,134.017533 C1631.13708,141.758706 1641.5014,149.413895 1651.86572,157.066478 C1651.71117,157.299677 1651.55791,157.528968 1651.40205,157.76347 C1639.29476,152.867588 1627.18487,147.971707 1614.88666,142.998961 C1596.1062,166.634161 1585.45226,193.999246 1575.91267,221.265319 L1577.64005,224.117124 C1588.40959,220.819765 1598.48558,217.732155 1608.53949,214.653664 C1608.05894,208.800233 1607.62514,203.467917 1607.19135,198.140812 C1607.48747,198.099123 1607.7836,198.061342 1608.08102,198.020956 C1610.49546,202.652371 1612.9138,207.2903 1615.55684,212.356847 C1621.47021,210.314074 1627.19526,208.339046 1632.91382,206.354898 C1661.61052,196.38335 1693.39703,189.586699 1718.59479,172.382066 C1724.94586,168.047687 1731.49694,157.581079 1733.37629,152.119788 C1721.77033,147.958679 1715.38549,141.487726 1715.38549,141.487726 C1715.38549,141.487726 1722.14827,140.048144 1732.34505,141.219351 C1740.02478,142.098734 1744.48221,139.619526 1748.65132,133.261915 C1758.05194,118.911693 1766.48236,104.235774 1770.61121,86.8578704 C1762.45353,85.5238144 1754.71925,84.2522922 1746.98627,82.987284 C1754.61665,81.0422198 1762.19377,79.9270324 1769.70335,78.4822393 C1770.98006,78.2360121 1772.80745,76.6830875 1772.9672,75.5366331 C1773.80882,69.4786638 1774.24521,63.3685829 1774.6855,57.2624104 C1774.76473,56.1980317 1774.49458,54.8079558 1773.83999,54.0354018" id="Fill-1-Copy-12" fill="#C0BEDC" opacity="0.7" transform="translate(1675.305795, 131.120130) rotate(95.000000) translate(-1675.305795, -131.120130) "></path>
                <path d="M200.647524,91.2888953 C197.250524,87.2878953 193.740524,83.3838953 189.939524,79.0748953 C178.983524,84.7698953 168.240524,90.5438953 157.307524,95.9378953 C153.584524,97.7718953 151.450524,100.325895 150.178524,104.149895 C148.691524,108.618895 146.775524,112.950895 145.044524,117.339895 C144.827524,117.282895 144.614524,117.227895 144.402524,117.174895 C144.495524,112.697895 144.585524,108.220895 144.691524,103.203895 C121.703524,117.421895 98.1645241,129.851895 82.6985241,152.681895 C90.7735241,158.623895 98.7535241,164.499895 106.733524,170.373895 C106.614524,170.552895 106.496524,170.728895 106.376524,170.908895 C97.0545241,167.150895 87.7305241,163.392895 78.2615241,159.575895 C63.8015241,177.717895 55.5985241,198.722895 48.2535241,219.651895 L49.5835241,221.840895 C57.8755241,219.309895 65.6335241,216.939895 73.3745241,214.576895 C73.0045241,210.083895 72.6705241,205.990895 72.3365241,201.901895 C72.5645241,201.869895 72.7925241,201.840895 73.0215241,201.809895 C74.8805241,205.364895 76.7425241,208.924895 78.7775241,212.813895 C83.3305241,211.245895 87.7385241,209.729895 92.1415241,208.206895 C114.236524,200.552895 138.710524,195.335895 158.111524,182.129895 C163.001524,178.802895 168.045524,170.768895 169.492524,166.576895 C160.556524,163.382895 155.640524,158.415895 155.640524,158.415895 C155.640524,158.415895 160.847524,157.310895 168.698524,158.209895 C174.611524,158.884895 178.043524,156.981895 181.253524,152.101895 C188.491524,141.086895 194.982524,129.821895 198.161524,116.482895 C191.880524,115.458895 185.925524,114.482895 179.971524,113.511895 C185.846524,112.018895 191.680524,111.162895 197.462524,110.053895 C198.445524,109.864895 199.852524,108.672895 199.975524,107.792895 C200.623524,103.142895 200.959524,98.4528953 201.298524,93.7658953 C201.359524,92.9488953 201.151524,91.8818953 200.647524,91.2888953" id="Fill-1-Copy-11" fill="#C0BEDC" opacity="0.9" transform="translate(124.781192, 150.457895) rotate(95.000000) translate(-124.781192, -150.457895) "></path>
                <g id="Group-5" opacity="0.7" transform="translate(1574.000000, 773.000000)" fill="#8C90B6">
                    <path d="M45,117.011433 C45,117.011433 40.4390996,113.618663 35.2679887,115.64582 C30.0968779,117.675339 27,124.770386 27,124.770386 C27,124.770386 39.594935,127.085786 45,117.011433" id="Fill-25"></path>
                    <path d="M166,134.203724 C166,134.203724 159.560502,132.791131 155.155415,137.405283 C150.755132,142.017053 151.002528,151 151.002528,151 C151.002528,151 165.298645,147.441124 166,134.203724" id="Fill-27"></path>
                    <path d="M172.174644,0 C172.174644,0 161.841141,5.27356625 161.043509,16.5805717 C160.245877,27.8923713 170.679381,40 170.679381,40 C170.679381,40 186.103444,19.0423683 172.174644,0" id="Fill-29"></path>
                    <path d="M49,167.513053 C49,167.513053 42.8167529,157.852334 31.3991131,158.001715 C19.9838877,158.153429 0,170.103871 0,170.103871 C0,170.103871 31.0755851,182.684513 49,167.513053" id="Fill-31"></path>
                    <path d="M91,140.774627 C91,140.774627 88.6827909,135.118661 82.7633749,134.133593 C76.843959,133.143858 70,137.978156 70,137.978156 C70,137.978156 80.3455194,147.081858 91,140.774627" id="Fill-33"></path>
                    <path d="M140.997279,78.5891318 C140.997279,78.5891318 141.523643,61.9782423 127.93389,53.2389399 C114.33696,44.4972471 92,49.3354167 92,49.3354167 C92,49.3354167 107.573187,83.0759126 140.997279,78.5891318" id="Fill-35"></path>
                    <path d="M140.555496,98 C140.555496,98 133.066429,99.0882296 130.68047,106.073882 C128.289846,113.057095 132.966139,123 132.966139,123 C132.966139,123 146.320981,113.088815 140.555496,98" id="Fill-37"></path>
                    <path d="M146.951496,223 C146.951496,223 139.367843,224.614524 137.419945,231.62036 C135.469658,238.623804 140.945281,248 140.945281,248 C140.945281,248 153.899395,237.332185 146.951496,223" id="Fill-39"></path>
                    <path d="M130,180.354029 C130,180.354029 122.33967,178.378176 117.342635,183.762077 C112.348041,189.143583 113.031563,200 113.031563,200 C113.031563,200 129.74612,196.304555 130,180.354029" id="Fill-41"></path>
                    <path d="M184.956172,91 C184.956172,91 177.130305,91.6744186 174.30941,98.2959831 C171.488514,104.915189 174.103593,120 174.103593,120 C174.103593,120 190.179066,105.863148 184.956172,91" id="Fill-43"></path>
                    <path d="M182.980446,167 C182.980446,167 174.50392,167.617305 171.224356,174.863926 C167.942324,182.110548 172.297803,193 172.297803,193 C172.297803,193 188.095974,183.440315 182.980446,167" id="Fill-45"></path>
                    <path d="M63.8460814,187 C63.8460814,187 57.9905556,196.289058 63.0774115,205.245089 C68.166618,214.205878 82.9429469,218 82.9429469,218 C82.9429469,218 85.0373963,194.240945 63.8460814,187" id="Fill-47"></path>
                </g>
                <g id="Group-10" transform="translate(0.000000, 675.000000)"></g>
                <path d="M25.4733734,990.172673 C17.2046741,987.941957 8.99902447,985.475388 3.19744231e-13,982.858612 C0.773671787,962.668851 1.81005046,942.737341 2.15025588,922.793973 C2.26716045,916.004321 4.54876977,911.060643 9.30113739,906.508295 C14.8613287,901.182509 19.9144957,895.323091 25.1857094,889.694255 C24.9545273,889.416239 24.7246588,889.135587 24.4947903,888.857571 C17.9520752,892.12393 11.4133008,895.390289 4.08771919,899.049296 C9.05156584,855.096412 10.9982239,811.582292 33.9036375,772.750963 C48.2960344,780.548588 62.5202989,788.25398 76.7432498,795.959372 C76.923204,795.658956 77.1031582,795.358541 77.2831125,795.058126 C65.2485099,783.887415 53.2125938,772.716705 40.9875287,761.369435 C57.6825515,727.301271 82.9562677,700.489195 108.714678,675 L112.870701,675.440082 C114.909307,689.476598 116.817872,702.611867 118.721184,715.715513 C111.833009,718.313843 105.56745,720.675003 99.3005768,723.036163 C99.4135408,723.394553 99.5265047,723.754261 99.6407822,724.113969 C106.182184,724.381444 112.726212,724.650237 119.886289,724.944064 C120.740086,732.77463 121.575494,740.356166 122.391199,747.93902 C126.484172,785.9811 127.398392,824.020544 121.427064,861.951944 C119.921754,871.513851 117.24083,880.889975 114.842316,891.482254 C103.908456,880.489421 94.2618587,870.793118 84.6165753,861.098132 C89.9048649,873.210935 95.1550621,885.159036 101.946035,896.151869 C107.058311,904.430422 106.644548,910.836649 101.679388,918.993982 C90.4696847,937.399697 78.3746596,954.872543 60.9099056,968.895883 C55.0226443,960.319549 49.4414364,952.187251 43.8602286,944.054953 C45.7517182,953.790784 48.548233,963.019335 50.9375522,972.354613 C51.3421208,973.937064 50.5645084,976.856891 49.3508025,977.652729 C42.9460086,981.854592 36.2588048,985.634819 29.5821092,989.407141 C28.4156906,990.064629 26.7002146,990.504711 25.4733734,990.172673" id="Fill-8" fill="#C0BEDC" opacity="0.2"></path>
                <g id="Group-13" transform="translate(1117.000000, 2.000000)"></g>
                <path d="M1198.2732,224.831 C1192.4322,226.738 1186.5372,228.48 1180.1062,230.445 C1172.6722,218.047 1165.4992,205.7 1157.9022,193.62 C1155.3152,189.507 1154.7532,185.65 1155.8282,181.059 C1157.0852,175.686 1157.8302,170.193 1158.7962,164.753 C1158.5482,164.678 1158.3002,164.601 1158.0532,164.523 C1155.4002,169.047 1152.7482,173.57 1149.7772,178.636 C1135.5672,150.358 1119.7152,123.528 1118.2892,91.279 C1129.9872,90.303 1141.5482,89.336 1153.1092,88.371 C1153.0992,88.121 1153.0902,87.871 1153.0822,87.62 C1141.4802,85.65 1129.8782,83.682 1118.0922,81.681 C1114.7972,54.723 1119.4972,28.743 1125.0042,3.366 L1127.6732,2 C1134.3892,9.608 1140.6742,16.727 1146.9452,23.831 C1143.8212,28.09 1140.9792,31.963 1138.1382,35.836 C1138.3462,36.007 1138.5552,36.178 1138.7642,36.349 C1142.7992,33.942 1146.8372,31.535 1151.2542,28.901 C1154.8312,33.258 1158.2982,37.472 1161.7542,41.693 C1179.0962,62.876 1194.5252,85.305 1205.7742,110.37 C1208.6112,116.688 1210.6672,123.356 1213.3702,130.643 C1202.4992,128.35 1192.9112,126.326 1183.3222,124.303 C1191.2372,129.484 1199.0662,134.581 1207.4462,138.501 C1213.7572,141.454 1216.0142,145.455 1216.2212,152.289 C1216.6862,167.714 1216.2532,182.927 1211.2432,198.18 C1204.3512,195.352 1197.8162,192.671 1191.2812,189.989 C1196.2262,195.079 1201.5172,199.511 1206.6042,204.165 C1207.4662,204.954 1208.1412,207.009 1207.7232,207.961 C1205.5192,212.992 1202.9792,217.88 1200.4432,222.76 C1200.0002,223.611 1199.1402,224.548 1198.2732,224.831" id="Fill-11" fill="#C0BEDC" opacity="0.7"></path>
                <g id="Group-49" transform="translate(332.000000, 0.000000)" fill="#8C90B6" opacity="0.2">
                    <path d="M134.005575,130.851005 C141.206942,130.507963 148.235705,129.565482 155.056273,128.103134 L141.406239,76.1765041 L165.174132,125.502028 C193.746495,116.885313 217.939672,98.682877 234.157429,74.8025685 L215.918236,56.4480627 L242.905124,59.8006776 C243.337526,58.9306952 243.759252,58.0554081 244.170301,57.173048 L209.350347,40.5903354 L251.136783,38.5957417 C254.652943,26.3505632 256.334508,13.3750946 255.944812,0 L179.804634,3.63376778 C179.825987,31.024066 158.17384,53.8717125 130.348839,55.1996733 C102.525618,56.5276342 93.8188499,35.1299584 92.0750051,7.82099994 L0,12.2168864 C0.366563293,17.611838 1.05164518,22.913072 2.06592225,28.0940645 L41.6458608,26.2037979 L5.90238079,42.8819963 C9.57691089,54.1846939 14.7870921,64.7694793 21.2820242,74.4100155 L83.5835486,45.3487146 L32.8038559,89.0724011 C47.3738571,105.060979 65.9422452,117.314999 86.8470296,124.334979 L111.431682,77.6070238 L99.8066435,127.933381 C110.771512,130.371808 122.239961,131.413311 134.005575,130.851005" id="Fill-16"></path>
                </g>
            </g>
        </g>
    </g>
</svg>