<?xml version="1.0" encoding="UTF-8"?>
<svg width="56px" height="56px" viewBox="0 0 56 56" version="1.1" xmlns="http://www.w3.org/2000/svg" xmlns:xlink="http://www.w3.org/1999/xlink">
    <!-- Generator: Sketch 52.6 (67491) - http://www.bohemiancoding.com/sketch -->
    <title>Group 10</title>
    <desc>Created with Sketch.</desc>
    <defs>
        <polygon id="path-1" points="0.329953846 0.756 9.84184615 0.756 9.84184615 7 0.329953846 7"></polygon>
    </defs>
    <g id="Page-1" stroke="none" stroke-width="1" fill="none" fill-rule="evenodd">
        <g id="Afterfit-Home-–-final-illu" transform="translate(-1460.000000, -1739.000000)">
            <g id="Group-71" transform="translate(375.000000, 1510.000000)">
                <g id="Group-57">
                    <g id="Group-12" transform="translate(0.000000, 68.000000)">
                        <g id="Group-15" transform="translate(1086.000000, 162.000000)">
                            <g id="Group-10">
                                <circle id="Oval" fill="#FFE399" cx="27" cy="27" r="25"></circle>
                                <circle id="Oval" stroke="#FFB800" stroke-linecap="square" cx="27" cy="27" r="27.5"></circle>
                                <g id="Group-70" transform="translate(11.000000, 6.000000)">
                                    <path d="M3.39402824,30.6866832 C0.708866582,24.7602397 0.244190502,20.1451637 2,16.8414551 C3.7558095,13.5377465 6.46137895,11.5905948 10.1167084,11 L21.5302727,11 C23.4428191,10.7711585 25.2660615,11.0618963 27,11.8722133 C28.7339385,12.6825304 30.091828,13.8784228 31.0736687,15.4598907 L31.0736687,26.5423083 C30.2342786,30.9793569 28.876389,33.6473698 27,34.5463472 C25.123611,35.4453245 22.9706104,35.4453245 20.5409981,34.5463472 L17.9928645,34.9531137 C16.0752527,35.6406986 14.5944376,36.102844 13.5504191,36.3395496 C12.5064006,36.5762553 11.3618304,36.3323688 10.1167084,35.6078899 L3.39402824,30.6866832 Z" id="Line-6" fill="#112682"></path>
                                    <g id="Group-8" transform="translate(18.504441, 22.362757) rotate(10.000000) translate(-18.504441, -22.362757) translate(12.504441, 16.362757)">
                                        <g id="Group-3" transform="translate(1.384615, 4.902548)">
                                            <mask id="mask-2" fill="white">
                                                <use xlink:href="#path-1"></use>
                                            </mask>
                                            <g id="Clip-2"></g>
                                            <path d="M4.99610769,7 C2.88456923,7 0.936415385,5.5958 0.329953846,3.437 L2.10918462,2.9288 C2.56195385,4.536 4.22210769,5.4684 5.81441538,5.0148 C7.40395385,4.557 8.32887692,2.8728 7.87749231,1.2698 L9.65533846,0.756 C10.3891846,3.3558 8.89241538,6.069 6.32118462,6.811 C5.87949231,6.9384 5.43087692,7 4.99610769,7" id="Fill-1" fill="#8286C0" mask="url(#mask-2)"></path>
                                        </g>
                                        <path d="M1.32507692,2.097088 C1.32507692,2.008888 1.35276923,1.929088 1.37492308,1.849288 C1.24476923,1.846488 1.11461538,1.840888 0.983076923,1.878688 C0.265846154,2.085888 -0.150923077,2.844688 0.0512307692,3.572688 C0.257538462,4.299288 1.008,4.717888 1.728,4.514888 C2.41892308,4.313288 2.81907692,3.597888 2.664,2.900688 C2.53523077,2.972088 2.39261538,3.022488 2.23615385,3.022488 C1.73353846,3.022488 1.32507692,2.610888 1.32507692,2.097088" id="Fill-4" fill="#FFE399"></path>
                                        <path d="M7.78707692,0.000588 C7.66107692,0.000588 7.53507692,-0.005012 7.41046154,0.031388 C6.69323077,0.234388 6.27646154,0.991788 6.47861538,1.719788 C6.68492308,2.449188 7.434,2.870588 8.15261538,2.661988 C8.87123077,2.457588 9.28938462,1.698788 9.08446154,0.972188 C9.07061538,0.920388 9.03461538,0.883988 9.01523077,0.834988 C8.91415385,0.874188 8.80753846,0.900788 8.69261538,0.900788 C8.19969231,0.900788 7.80092308,0.501788 7.78707692,0.000588" id="Fill-6" fill="#FFE399"></path>
                                    </g>
                                    <path d="M16.933868,8 L13.9601193,6.75761079 L12,4.3362953 L13.9601193,1 C14.3314642,2.98188625 14.9760258,4.27933443 15.8938041,4.89234452 C16.8115825,5.50535461 17.1582705,5.83853776 16.933868,5.89189394 L16.933868,8 Z" id="Line-3-Copy-2" fill="#112682"></path>
                                    <polygon id="Line-3-Copy-2" fill="#112682" transform="translate(18.500000, 4.500000) scale(-1, 1) translate(-18.500000, -4.500000) " points="21 9 17.9863921 7.40264244 16 4.28952253 17.9863921 0 19.5945288 3.26252057 21 6.28957793"></polygon>
                                    <rect id="Rectangle" fill="#112682" x="15" y="7" width="3" height="10"></rect>
                                </g>
                            </g>
                        </g>
                    </g>
                </g>
            </g>
        </g>
    </g>
</svg>