<?xml version="1.0" encoding="UTF-8"?>
<svg width="56px" height="56px" viewBox="0 0 56 56" version="1.1" xmlns="http://www.w3.org/2000/svg" xmlns:xlink="http://www.w3.org/1999/xlink">
    <!-- Generator: Sketch 52.6 (67491) - http://www.bohemiancoding.com/sketch -->
    <title>Group 7</title>
    <desc>Created with Sketch.</desc>
    <g id="Page-1" stroke="none" stroke-width="1" fill="none" fill-rule="evenodd">
        <g id="Afterfit-Home-–-final-illu" transform="translate(-844.000000, -1607.000000)">
            <g id="Group-71" transform="translate(375.000000, 1510.000000)">
                <g id="Group-57">
                    <g id="Group-12" transform="translate(0.000000, 68.000000)">
                        <g id="Group-7" transform="translate(470.000000, 30.000000)">
                            <g id="Group-6">
                                <g id="Group-11">
                                    <circle id="Mask" fill="#616AB1" cx="27" cy="27" r="25"></circle>
                                    <circle id="Oval" stroke="#112682" stroke-linecap="square" cx="27" cy="27" r="27.5"></circle>
                                    <g id="Group-69" transform="translate(12.000000, 13.000000)">
                                        <g id="Group-68">
                                            <path d="M4.68603656,24.7823523 L4.68603656,20.9504421 L0.784876098,14.2467166 C-1.14316664,7.81256919 0.480958411,3.53289702 5.65725124,1.40770006 C13.4216905,-1.78009538 25.5569368,1.10693536 27.6000737,3.55646383 C29.6432105,6.0059923 32.9890743,11.6490418 29.5336548,16.7353409 C26.0782353,21.8216399 10.3686677,21.9109461 10.3686677,21.866293 C10.3686677,21.8365243 8.47445731,22.8085441 4.68603656,24.7823523 Z" id="Line-2" fill="#FFB800"></path>
                                            <polygon id="Line-3" fill="#112682" points="9.53276408 15.6823371 8 14.1495731 8.76638204 13 11.044857 13 11.044857 14.3411686"></polygon>
                                            <polygon id="Line-3" fill="#112682" points="16.6532194 16.0655282 14 14.1495731 14.766382 13 15.9842258 13 17.044857 14.3411686"></polygon>
                                            <polygon id="Line-3" fill="#112682" points="22.5327641 15.6823371 21 14.1495731 21.766382 13 24.044857 13 24.044857 14.3411686"></polygon>
                                        </g>
                                    </g>
                                </g>
                            </g>
                        </g>
                    </g>
                </g>
            </g>
        </g>
    </g>
</svg>