<?xml version="1.0" encoding="UTF-8"?>
<svg width="1170px" height="511px" viewBox="0 0 1170 511" version="1.1" xmlns="http://www.w3.org/2000/svg" xmlns:xlink="http://www.w3.org/1999/xlink">
    <!-- Generator: Sketch 52.1 (67048) - http://www.bohemiancoding.com/sketch -->
    <title>Group 21</title>
    <desc>Created with Sketch.</desc>
    <defs>
        <rect id="path-1" x="0" y="0" width="1170" height="520"></rect>
    </defs>
    <g id="Page-1" stroke="none" stroke-width="1" fill="none" fill-rule="evenodd">
        <g id="Afterfit-Home-–-final" transform="translate(-375.000000, -1578.000000)">
            <g id="Group-57" transform="translate(375.000000, 1510.000000)">
                <g id="Group-12" transform="translate(0.000000, 68.000000)">
                    <g id="Group-21">
                        <mask id="mask-2" fill="white">
                            <use xlink:href="#path-1"></use>
                        </mask>
                        <g id="Mask"></g>
                        <path d="M89.6598985,307.5845 C79.8548985,304.7055 79.4218985,296.1955 82.1148985,286.4615 L82.0268985,286.4345 C85.3418985,276.9025 95.5918985,271.5445 105.386899,274.4155 C115.190899,277.2935 115.624899,285.8035 112.929899,295.5395 L113.018899,295.5645 C109.704899,305.0985 99.4548985,310.4555 89.6598985,307.5845 Z M147.036899,293.6545 C147.126899,289.2665 146.598899,284.9515 145.513899,280.8095 L120.405899,283.4655 L143.288899,274.3095 C140.171899,266.9835 135.214899,260.4795 128.817899,255.5215 L114.649899,268.8705 L124.757899,252.7115 C121.251899,250.5445 117.401899,248.8035 113.257899,247.5885 C110.718899,246.8465 108.167899,246.3285 105.626899,246.0195 L104.087899,265.7725 L101.807899,245.7125 C90.8608985,245.2885 80.2748985,248.7355 71.7688985,255.1175 L75.8748985,263.7085 L66.9258985,259.3005 C66.6698985,259.5515 66.4178985,259.8075 66.1698985,260.0655 L76.2358985,270.0295 L61.5118985,265.7115 C58.8178985,269.5515 56.6738985,273.8635 55.1928985,278.5635 L49.6678985,276.9415 C49.1438985,278.8675 48.7398985,280.8015 48.4648985,282.7295 L62.4138985,286.8225 L48.0098985,288.3465 C47.9198985,292.7325 48.4448985,297.0495 49.5328985,301.1915 L74.6388985,298.5335 L51.7558985,307.6895 C54.8748985,315.0165 59.8318985,321.5205 66.2278985,326.4795 L80.3958985,313.1295 L70.2868985,329.2875 C73.7948985,331.4555 77.6418985,333.1975 81.7888985,334.4105 C84.3258985,335.1545 86.8768985,335.6705 89.4178985,335.9805 L90.9588985,316.2275 L93.2378985,336.2875 C104.182899,336.7115 114.770899,333.2645 123.276899,326.8815 L119.171899,318.2895 L128.120899,322.6995 C128.376899,322.4475 128.626899,322.1915 128.876899,321.9345 L118.807899,311.9695 L133.534899,316.2875 C136.225899,312.4475 138.372899,308.1355 139.852899,303.4365 L145.376899,305.0575 C145.901899,303.1335 146.304899,301.1975 146.579899,299.2705 L132.632899,295.1785 L147.036899,293.6545 Z" id="Fill-1-Copy-10" fill-opacity="0.1" fill="#616AB1" mask="url(#mask-2)"></path>
                        <polygon id="Fill-3-Copy-7" fill-opacity="0.1" fill="#616AB1" mask="url(#mask-2)" transform="translate(354.081239, 165.378113) rotate(17.000000) translate(-354.081239, -165.378113) " points="314.169464 91.6158407 311.004181 110.23099 293.420545 109.696977 286.097262 144.30057 268.390392 145.008023 265.704352 171.254539 288.137466 173.552621 284.561404 208.535044 298.274587 209.93854 296.355335 228.679205 316.296388 230.719409 321.545235 179.492946 373.775825 186.099647 379.875898 237.225697 398.577767 239.140385 400.750333 217.89853 415.709546 219.432106 418.909061 188.194621 440.481821 186.615403 442.458126 167.374957 413.778884 164.440167 413.669342 140.94359 401.20219 139.663328 396.537563 111.413121 381.57835 109.88411 376.377427 160.615355 325.267352 155.380201 327.878083 93.0216188"></polygon>
                        <path d="M195.369903,301.538913 C232.10661,301.839705 268.827276,302.136486 305.559973,302.445299 C305.596068,302.894481 305.636173,303.343664 305.668258,303.800867 C274.061053,303.808889 243.239918,307.983879 214.287703,321.318983 C185.572111,334.541791 158.180002,349.765868 137.437399,375.425415 L142.205952,379.768849 C203.792074,358.998172 264.780623,338.420001 325.761151,317.84584 C325.853394,318.118558 325.957668,318.391276 326.049911,318.663994 C267.287222,343.260744 208.528542,367.873535 149.765853,392.474296 C194.908689,395.762953 236.939332,383.526742 278.023484,367.440395 C256.867793,390.007803 235.756218,412.523073 214.48422,435.214808 C214.002953,434.845837 281.30011,386.065425 312.678712,359.475428 C312.762934,360.830996 312.201456,361.492738 311.635967,362.142449 C299.800812,375.790376 287.456316,389.029227 276.254828,403.182484 C261.291438,422.076221 251.188843,443.300092 249.596652,467.844704 C248.971005,477.518169 251.549794,486.481765 255.379876,496.111114 C289.148771,442.911068 322.476504,390.392816 355.800227,337.886596 C356.028829,338.006913 356.25342,338.135251 356.482022,338.255568 C337.33562,376.75291 318.193229,415.242231 299.050838,453.739573 C300.237963,453.731552 300.711208,453.330496 301.124296,452.873293 C325.095399,426.215117 349.210881,399.681268 372.961403,372.818553 C381.531965,363.121025 388.90337,352.448931 393.094402,339.948023 C396.415144,330.017882 396.298838,320.167953 391.229493,310.987787 C387.796456,304.759391 383.621465,298.85585 379.213863,293.265133 C364.422926,274.531818 346.118741,261.016239 322.195765,256.247686 C303.646937,252.545942 285.992462,256.861301 268.514452,262.492124 C246.701029,269.526642 227.249825,281.393882 207.517882,292.655528 C203.210543,295.114 199.0917,297.905348 194.884625,300.536274 C195.041037,300.87316 195.20547,301.206037 195.369903,301.538913" id="Fill-1-Copy-9" fill-opacity="0.200000018" fill="#616AB1" mask="url(#mask-2)" transform="translate(266.394903, 375.489748) rotate(98.000000) translate(-266.394903, -375.489748) "></path>
                        <path d="M1100.65262,452.306148 C1085.55777,447.873911 1084.89116,434.772719 1089.03705,419.787172 L1088.90158,419.745606 C1094.00504,405.071039 1109.78497,396.822369 1124.86443,401.242289 C1139.95774,405.672986 1140.62588,418.774178 1136.47692,433.762804 L1136.61393,433.801291 C1131.51201,448.478937 1115.73208,456.726068 1100.65262,452.306148 Z M1188.98483,430.860836 C1189.12339,424.105485 1188.31053,417.462519 1186.64016,411.085887 L1147.98626,415.174814 L1183.21476,401.079101 C1178.41612,389.800684 1170.7848,379.78774 1160.93658,372.154872 L1139.12486,392.705731 L1154.68619,367.828861 C1149.28868,364.492753 1143.36158,361.812474 1136.98187,359.941974 C1133.07307,358.799661 1129.14579,358.002197 1125.23391,357.52649 L1122.86461,387.936343 L1119.35453,357.053862 C1102.50157,356.401112 1086.20436,361.707787 1073.10933,371.532911 L1079.43054,384.758803 L1065.6535,377.972663 C1065.25939,378.359079 1064.87143,378.753192 1064.48964,379.150385 L1079.9863,394.490018 L1057.31862,387.842433 C1053.17119,393.754134 1049.87049,400.392482 1047.59049,407.628158 L1039.08472,405.13108 C1038.27802,408.096168 1037.65606,411.073571 1037.23269,414.041738 L1058.70725,420.342934 L1036.53222,422.68914 C1036.39366,429.441412 1037.2019,436.087457 1038.87688,442.464089 L1077.52771,438.372083 L1042.2992,452.467796 C1047.10092,463.747753 1054.73225,473.760696 1064.57893,481.395104 L1086.39064,460.842706 L1070.82778,485.718036 C1076.22837,489.055684 1082.15084,491.737502 1088.53517,493.604923 C1092.4409,494.750315 1096.36818,495.5447 1100.28006,496.021946 L1102.65244,465.612094 L1106.16097,496.494574 C1123.01086,497.147325 1139.31114,491.840649 1152.40618,482.013986 L1146.08651,468.786554 L1159.86354,475.575773 C1160.25766,475.187818 1160.64253,474.793705 1161.02741,474.398052 L1145.52613,459.056879 L1168.19843,465.704464 C1172.34124,459.792763 1175.64655,453.154415 1177.92502,445.920279 L1186.42925,448.415817 C1187.23749,445.453808 1187.85791,442.473326 1188.28128,439.506699 L1166.80979,433.207042 L1188.98483,430.860836 Z" id="Fill-1-Copy-10" fill-opacity="0.1" fill="#616AB1" mask="url(#mask-2)"></path>
                        <path d="M77.6475241,314.288895 C74.2505241,310.287895 70.7405241,306.383895 66.9395241,302.074895 C55.9835241,307.769895 45.2405241,313.543895 34.3075241,318.937895 C30.5845241,320.771895 28.4505241,323.325895 27.1785241,327.149895 C25.6915241,331.618895 23.7755241,335.950895 22.0445241,340.339895 C21.8275241,340.282895 21.6145241,340.227895 21.4025241,340.174895 C21.4955241,335.697895 21.5855241,331.220895 21.6915241,326.203895 C-1.2964759,340.421895 -24.8354759,352.851895 -40.3014759,375.681895 C-32.2264759,381.623895 -24.2464759,387.499895 -16.2664759,393.373895 C-16.3854759,393.552895 -16.5034759,393.728895 -16.6234759,393.908895 C-25.9454759,390.150895 -35.2694759,386.392895 -44.7384759,382.575895 C-59.1984759,400.717895 -67.4014759,421.722895 -74.7464759,442.651895 L-73.4164759,444.840895 C-65.1244759,442.309895 -57.3664759,439.939895 -49.6254759,437.576895 C-49.9954759,433.083895 -50.3294759,428.990895 -50.6634759,424.901895 C-50.4354759,424.869895 -50.2074759,424.840895 -49.9784759,424.809895 C-48.1194759,428.364895 -46.2574759,431.924895 -44.2224759,435.813895 C-39.6694759,434.245895 -35.2614759,432.729895 -30.8584759,431.206895 C-8.7634759,423.552895 15.7105241,418.335895 35.1115241,405.129895 C40.0015241,401.802895 45.0455241,393.768895 46.4925241,389.576895 C37.5565241,386.382895 32.6405241,381.415895 32.6405241,381.415895 C32.6405241,381.415895 37.8475241,380.310895 45.6985241,381.209895 C51.6115241,381.884895 55.0435241,379.981895 58.2535241,375.101895 C65.4915241,364.086895 71.9825241,352.821895 75.1615241,339.482895 C68.8805241,338.458895 62.9255241,337.482895 56.9715241,336.511895 C62.8465241,335.018895 68.6805241,334.162895 74.4625241,333.053895 C75.4455241,332.864895 76.8525241,331.672895 76.9755241,330.792895 C77.6235241,326.142895 77.9595241,321.452895 78.2985241,316.765895 C78.3595241,315.948895 78.1515241,314.881895 77.6475241,314.288895" id="Fill-1-Copy-8" fill-opacity="0.200000018" fill="#616AB1" mask="url(#mask-2)" transform="translate(1.781192, 373.457895) rotate(95.000000) translate(-1.781192, -373.457895) "></path>
                        <path d="M1177.29228,-8.09956697 C1174.38954,-11.5184338 1171.39023,-14.8544139 1168.14227,-18.5364677 C1158.78033,-13.6700726 1149.6004,-8.73617177 1140.25812,-4.12698209 C1137.07681,-2.55982342 1135.2533,-0.377422518 1134.16637,2.89019731 C1132.89572,6.70897163 1131.25849,10.410679 1129.77935,14.1610931 C1129.59392,14.1123864 1129.41191,14.0653888 1129.23076,14.0201001 C1129.31023,10.1944897 1129.38713,6.3688794 1129.47771,2.08183738 C1109.83439,14.2311624 1089.72024,24.8526358 1076.5045,44.3609414 C1083.40461,49.4383988 1090.22355,54.459459 1097.04248,59.4788101 C1096.9408,59.6317662 1096.83996,59.7821587 1096.73742,59.9359693 C1088.77175,56.7247467 1080.80436,53.513524 1072.71307,50.2518857 C1060.35695,65.7542809 1053.34747,83.7031183 1047.07114,101.587014 L1048.20763,103.457521 C1055.29317,101.294773 1061.9224,99.2696012 1068.53711,97.2504104 C1068.22095,93.411128 1067.93554,89.9136468 1067.65014,86.4195837 C1067.84496,86.3922396 1068.03979,86.367459 1068.23547,86.3409694 C1069.82399,89.3787279 1071.41508,92.4207589 1073.15399,95.7439214 C1077.04455,94.4040606 1080.81119,93.1086339 1084.57357,91.8072257 C1103.45382,85.266859 1124.36693,80.8089163 1140.94514,69.5243485 C1145.12366,66.6814167 1149.43377,59.8163389 1150.67024,56.2342619 C1143.0344,53.504979 1138.83366,49.2606622 1138.83366,49.2606622 C1138.83366,49.2606622 1143.28306,48.3164362 1149.99177,49.0846345 C1155.04444,49.6614241 1157.9771,48.0353047 1160.72005,43.8653296 C1166.90494,34.4529781 1172.45152,24.8270007 1175.16799,13.428784 C1169.80086,12.5537728 1164.71229,11.7197778 1159.62458,10.8900553 C1164.64478,9.61428215 1169.62996,8.8828275 1174.57069,7.93518357 C1175.41067,7.77368249 1176.61295,6.7551148 1176.71806,6.00315208 C1177.27178,2.02971269 1177.55889,-1.97790681 1177.84857,-5.98296281 C1177.90069,-6.68109183 1177.72295,-7.59284663 1177.29228,-8.09956697" id="Fill-1-Copy-12" fill-opacity="0.200000018" fill="#616AB1" mask="url(#mask-2)" transform="translate(1112.464269, 42.460527) rotate(95.000000) translate(-1112.464269, -42.460527) "></path>
                        <path d="M132.647524,-28.7111047 C129.250524,-32.7121047 125.740524,-36.6161047 121.939524,-40.9251047 C110.983524,-35.2301047 100.240524,-29.4561047 89.3075241,-24.0621047 C85.5845241,-22.2281047 83.4505241,-19.6741047 82.1785241,-15.8501047 C80.6915241,-11.3811047 78.7755241,-7.04910474 77.0445241,-2.66010474 C76.8275241,-2.71710474 76.6145241,-2.77210474 76.4025241,-2.82510474 C76.4955241,-7.30210474 76.5855241,-11.7791047 76.6915241,-16.7961047 C53.7035241,-2.57810474 30.1645241,9.85189526 14.6985241,32.6818953 C22.7735241,38.6238953 30.7535241,44.4998953 38.7335241,50.3738953 C38.6145241,50.5528953 38.4965241,50.7288953 38.3765241,50.9088953 C29.0545241,47.1508953 19.7305241,43.3928953 10.2615241,39.5758953 C-4.1984759,57.7178953 -12.4014759,78.7228953 -19.7464759,99.6518953 L-18.4164759,101.840895 C-10.1244759,99.3098953 -2.3664759,96.9398953 5.3745241,94.5768953 C5.0045241,90.0838953 4.6705241,85.9908953 4.3365241,81.9018953 C4.5645241,81.8698953 4.7925241,81.8408953 5.0215241,81.8098953 C6.8805241,85.3648953 8.7425241,88.9248953 10.7775241,92.8138953 C15.3305241,91.2458953 19.7385241,89.7298953 24.1415241,88.2068953 C46.2365241,80.5528953 70.7105241,75.3358953 90.1115241,62.1298953 C95.0015241,58.8028953 100.045524,50.7688953 101.492524,46.5768953 C92.5565241,43.3828953 87.6405241,38.4158953 87.6405241,38.4158953 C87.6405241,38.4158953 92.8475241,37.3108953 100.698524,38.2098953 C106.611524,38.8848953 110.043524,36.9818953 113.253524,32.1018953 C120.491524,21.0868953 126.982524,9.82189526 130.161524,-3.51710474 C123.880524,-4.54110474 117.925524,-5.51710474 111.971524,-6.48810474 C117.846524,-7.98110474 123.680524,-8.83710474 129.462524,-9.94610474 C130.445524,-10.1351047 131.852524,-11.3271047 131.975524,-12.2071047 C132.623524,-16.8571047 132.959524,-21.5471047 133.298524,-26.2341047 C133.359524,-27.0511047 133.151524,-28.1181047 132.647524,-28.7111047" id="Fill-1-Copy-11" fill-opacity="0.200000018" fill="#616AB1" mask="url(#mask-2)" transform="translate(56.781192, 30.457895) rotate(95.000000) translate(-56.781192, -30.457895) "></path>
                    </g>
                </g>
            </g>
        </g>
    </g>
</svg>