<?xml version="1.0" encoding="UTF-8"?>
<svg width="556px" height="420px" viewBox="0 0 556 420" version="1.1" xmlns="http://www.w3.org/2000/svg" xmlns:xlink="http://www.w3.org/1999/xlink">
    <!-- Generator: Sketch 52.5 (67469) - http://www.bohemiancoding.com/sketch -->
    <title>Group 49</title>
    <desc>Created with Sketch.</desc>
    <defs>
        <polygon id="path-1" points="0.6875 0.7403 96.3707677 0.7403 96.3707677 218.934 0.6875 218.934"></polygon>
        <polygon id="path-3" points="0.671 0.162 99.3635009 0.162 99.3635009 213.934 0.671 213.934"></polygon>
        <polygon id="path-5" points="0.6325 0.3988 117.7895 0.3988 117.7895 123.934 0.6325 123.934"></polygon>
    </defs>
    <g id="Page-1" stroke="none" stroke-width="1" fill="none" fill-rule="evenodd">
        <g id="Afterfit–-Dieta-sportowa" transform="translate(-981.000000, -1011.000000)">
            <g id="Group-14" transform="translate(375.000000, 1011.000000)">
                <g id="Group-49" transform="translate(596.000000, 0.688000)">
                    <g id="Group-10" transform="translate(467.000000, 200.000000)">
                        <mask id="mask-2" fill="white">
                            <use xlink:href="#path-1"></use>
                        </mask>
                        <g id="Clip-9"></g>
                        <path d="M20.0805,239.9403 C13.7855,238.2473 7.5385,236.3753 0.6875,234.3893 C1.2765,219.0663 2.0655,203.9393 2.3245,188.8033 C2.4135,183.6503 4.1505,179.8983 7.7685,176.4433 C12.0015,172.4013 15.8485,167.9543 19.8615,163.6823 C19.6855,163.4713 19.5105,163.2583 19.3355,163.0473 C14.3545,165.5263 9.3765,168.0053 3.7995,170.7823 C7.5785,137.4243 9.0605,104.3993 26.4985,74.9283 C37.4555,80.8463 48.2845,86.6943 59.1125,92.5423 C59.2495,92.3143 59.3865,92.0863 59.5235,91.8583 C50.3615,83.3803 41.1985,74.9023 31.8915,66.2903 C44.6015,40.4343 63.8425,20.0853 83.4525,0.7403 L86.6165,1.0743 C88.1685,11.7273 89.6215,21.6963 91.0705,31.6413 C85.8265,33.6133 81.0565,35.4053 76.2855,37.1973 C76.3715,37.4693 76.4575,37.7423 76.5445,38.0153 C81.5245,38.2183 86.5065,38.4223 91.9575,38.6453 C92.6075,44.5883 93.2435,50.3423 93.8645,56.0973 C96.9805,84.9693 97.6765,113.8393 93.1305,142.6273 C91.9845,149.8843 89.9435,157.0003 88.1175,165.0393 C79.7935,156.6963 72.4495,149.3373 65.1065,141.9793 C69.1325,151.1723 73.1295,160.2403 78.2995,168.5833 C82.1915,174.8663 81.8765,179.7283 78.0965,185.9193 C69.5625,199.8883 60.3545,213.1493 47.0585,223.7923 C42.5765,217.2833 38.3275,211.1113 34.0785,204.9393 C35.5185,212.3283 37.6475,219.3323 39.4665,226.4173 C39.7745,227.6183 39.1825,229.8343 38.2585,230.4383 C33.3825,233.6273 28.2915,236.4963 23.2085,239.3593 C22.3205,239.8583 21.0145,240.1923 20.0805,239.9403" id="Fill-8" fill="#FBD2CB" mask="url(#mask-2)"></path>
                    </g>
                    <g id="Group-13" transform="translate(0.000000, 205.000000)">
                        <mask id="mask-4" fill="white">
                            <use xlink:href="#path-3"></use>
                        </mask>
                        <g id="Clip-12"></g>
                        <path d="M91.2729,222.993 C85.4319,224.9 79.5369,226.642 73.1059,228.607 C65.6719,216.209 58.4989,203.862 50.9019,191.782 C48.3149,187.669 47.7529,183.812 48.8279,179.221 C50.0849,173.848 50.8299,168.355 51.7959,162.915 C51.5479,162.84 51.2999,162.763 51.0529,162.685 C48.3999,167.209 45.7479,171.732 42.7769,176.798 C28.5669,148.52 12.7149,121.69 11.2889,89.441 C22.9869,88.465 34.5479,87.498 46.1089,86.533 C46.0989,86.283 46.0899,86.033 46.0819,85.782 C34.4799,83.812 22.8779,81.844 11.0919,79.843 C7.7969,52.885 12.4969,26.905 18.0039,1.528 L20.6729,0.162 C27.3889,7.77 33.6739,14.889 39.9449,21.993 C36.8209,26.252 33.9789,30.125 31.1379,33.998 C31.3459,34.169 31.5549,34.34 31.7639,34.511 C35.7989,32.104 39.8369,29.697 44.2539,27.063 C47.8309,31.42 51.2979,35.634 54.7539,39.855 C72.0959,61.038 87.5249,83.467 98.7739,108.532 C101.6109,114.85 103.6669,121.518 106.3699,128.805 C95.4989,126.512 85.9109,124.488 76.3219,122.465 C84.2369,127.646 92.0659,132.743 100.4459,136.663 C106.7569,139.616 109.0139,143.617 109.2209,150.451 C109.6859,165.876 109.2529,181.089 104.2429,196.342 C97.3509,193.514 90.8159,190.833 84.2809,188.151 C89.2259,193.241 94.5169,197.673 99.6039,202.327 C100.4659,203.116 101.1409,205.171 100.7229,206.123 C98.5189,211.154 95.9789,216.042 93.4429,220.922 C92.9999,221.773 92.1399,222.71 91.2729,222.993" id="Fill-11" fill="#FFE7B9" mask="url(#mask-4)"></path>
                    </g>
                    <path d="M456.659,49.426 C458.994,49.916 461.325,50.198 463.634,50.296 L463.619,32.415 L467.093,50.301 C476.971,49.906 486.25,46.055 493.45,39.709 L489.147,32.27 L497.512,35.602 C497.723,35.357 497.931,35.11 498.138,34.86 L488.374,26.61 L501.93,29.452 C504.083,25.797 505.712,21.754 506.71,17.409 L482.011,12.23 C479.718,21.063 470.863,26.622 461.837,24.73 C452.811,22.837 451.817,15.213 453.552,6.262 L423.683,0 C423.347,1.77 423.123,3.536 423.013,5.291 L435.851,7.983 L423,10.379 C423.229,14.329 424.01,18.176 425.281,21.826 L447.681,17.654 L427.742,27.515 C431.068,33.884 435.988,39.384 442.096,43.391 L453.895,30.377 L445.946,45.633 C449.255,47.333 452.842,48.625 456.659,49.426" id="Fill-14" fill="#FFD47C"></path>
                    <path d="M274.308,82 C278.355,81.806 282.305,81.273 286.138,80.446 L278.467,51.08 L291.824,78.975 C307.881,74.102 321.477,63.808 330.591,50.303 L320.341,39.923 L335.507,41.819 C335.75,41.327 335.987,40.832 336.218,40.333 L316.65,30.955 L340.133,29.827 C342.109,22.902 343.054,15.564 342.835,8 L300.046,10.055 C300.058,25.545 287.89,38.466 272.253,39.217 C256.617,39.968 251.724,27.867 250.744,12.423 L199,14.909 C199.206,17.96 199.591,20.958 200.161,23.888 L222.404,22.819 L202.317,32.251 C204.382,38.643 207.31,44.629 210.96,50.081 L245.972,33.646 L217.435,58.373 C225.623,67.415 236.058,74.345 247.806,78.315 L261.622,51.889 L255.089,80.35 C261.251,81.729 267.696,82.318 274.308,82" id="Fill-16" fill="#FBD2CB"></path>
                    <g id="Group-20" transform="translate(81.000000, 295.000000)">
                        <mask id="mask-6" fill="white">
                            <use xlink:href="#path-5"></use>
                        </mask>
                        <g id="Clip-19"></g>
                        <path d="M1.2875,53.4598 C13.4875,71.6378 25.6865,89.8138 37.8875,107.9878 C38.1235,107.8588 38.3605,107.7308 38.5985,107.6008 C28.2355,91.8678 20.2015,75.1618 17.3375,56.3828 C14.4955,37.7578 13.0835,19.1328 19.0465,0.3988 L22.7755,1.3478 C32.6405,38.8008 42.4105,75.8938 52.1825,112.9858 C52.3475,112.9458 52.5155,112.9058 52.6825,112.8668 C45.6445,75.5588 38.6095,38.2488 31.5755,0.9398 C48.0155,22.3178 55.7235,47.2478 61.1955,72.9648 C65.4815,55.0378 69.7585,37.1448 74.0685,19.1158 C73.7325,19.0038 71.5335,68.4858 68.6005,92.8238 C69.3025,92.4208 69.4455,91.9248 69.5865,91.4288 C72.4915,81.0628 75.0295,70.5748 78.3935,60.3588 C82.8885,46.7148 90.1365,34.7328 101.8265,25.8848 C106.4325,22.3988 111.7385,20.7428 117.7895,19.4908 C102.3945,53.7448 87.1995,87.5538 72.0035,121.3638 C72.1405,121.4348 72.2765,121.5068 72.4115,121.5778 C85.2855,99.4248 98.1585,77.2718 111.0315,55.1188 C111.4165,55.7108 111.3715,56.0768 111.2785,56.4328 C105.8815,77.1058 100.5945,97.8108 95.0155,118.4358 C93.0025,125.8808 90.1085,133.0508 85.2605,139.2358 C81.4105,144.1478 76.4735,147.3198 70.2435,147.8118 C66.0175,148.1448 61.7135,148.0048 57.4815,147.6438 C43.3095,146.4338 30.5825,141.7598 20.3595,131.4198 C12.4335,123.4038 8.7905,113.2058 5.8575,102.6628 C2.2005,89.5028 1.7255,75.9328 0.8575,62.4218 C0.6675,59.4698 0.7015,56.5058 0.6325,53.5468 C0.8515,53.5178 1.0705,53.4878 1.2875,53.4598" id="Fill-18" fill="#E7E6F0" mask="url(#mask-6)"></path>
                    </g>
                    <path d="M506.4965,72.2166 C506.4965,72.2166 504.6055,70.7806 502.4615,71.6386 C500.3175,72.4976 499.0335,75.5006 499.0335,75.5006 C499.0335,75.5006 504.2555,76.4806 506.4965,72.2166" id="Fill-25" fill="#F17171"></path>
                    <path d="M557.5551,78.824 C557.5551,78.824 554.8741,78.231 553.0401,80.168 C551.2081,82.104 551.3111,85.875 551.3111,85.875 C551.3111,85.875 557.2631,84.381 557.5551,78.824" id="Fill-27" fill="#F17171"></path>
                    <path d="M559.8276,22.5628 C559.8276,22.5628 555.4876,24.7628 555.1526,29.4798 C554.8176,34.1988 559.1996,39.2498 559.1996,39.2498 C559.1996,39.2498 565.6776,30.5068 559.8276,22.5628" id="Fill-29" fill="#F17171"></path>
                    <path d="M509.1342,92.9583 C509.1342,92.9583 506.5732,88.8193 501.8442,88.8833 C497.1162,88.9483 488.8392,94.0683 488.8392,94.0683 C488.8392,94.0683 501.7102,99.4583 509.1342,92.9583" id="Fill-31" fill="#F17171"></path>
                    <path d="M526.7748,81.6234 C526.7748,81.6234 525.7848,79.2004 523.2558,78.7784 C520.7268,78.3544 517.8028,80.4254 517.8028,80.4254 C517.8028,80.4254 522.2228,84.3254 526.7748,81.6234" id="Fill-33" fill="#F17171"></path>
                    <path d="M547.0141,56.0696 C547.0141,56.0696 547.2341,49.1206 541.5541,45.4646 C535.8711,41.8076 526.5351,43.8316 526.5351,43.8316 C526.5351,43.8316 533.0441,57.9466 547.0141,56.0696" id="Fill-35" fill="#F17171"></path>
                    <path d="M546.5639,64.1829 C546.5639,64.1829 543.3529,64.6289 542.3299,67.4919 C541.3049,70.3539 543.3099,74.4289 543.3099,74.4289 C543.3099,74.4289 549.0359,70.3669 546.5639,64.1829" id="Fill-37" fill="#F17171"></path>
                    <path d="M549.8666,116.2352 C549.8666,116.2352 546.6936,116.9102 545.8786,119.8392 C545.0626,122.7672 547.3536,126.6872 547.3536,126.6872 C547.3536,126.6872 552.7736,122.2272 549.8666,116.2352" id="Fill-39" fill="#F17171"></path>
                    <path d="M542.4399,97.7283 C542.4399,97.7283 539.3019,96.9033 537.2549,99.1513 C535.2089,101.3983 535.4889,105.9313 535.4889,105.9313 C535.4889,105.9313 542.3359,104.3883 542.4399,97.7283" id="Fill-41" fill="#F17171"></path>
                    <path d="M565.2612,60.8553 C565.2612,60.8553 562.0292,61.1413 560.8642,63.9493 C559.6992,66.7563 560.7792,73.1533 560.7792,73.1533 C560.7792,73.1533 567.4182,67.1583 565.2612,60.8553" id="Fill-43" fill="#F17171"></path>
                    <path d="M564.5639,92.8079 C564.5639,92.8079 561.1289,93.0609 559.7999,96.0309 C558.4699,99.0009 560.2349,103.4639 560.2349,103.4639 C560.2349,103.4639 566.6369,99.5459 564.5639,92.8079" id="Fill-45" fill="#F17171"></path>
                    <path d="M514.5327,100.5545 C514.5327,100.5545 512.0417,104.4595 514.2057,108.2245 C516.3707,111.9915 522.6567,113.5865 522.6567,113.5865 C522.6567,113.5865 523.5477,103.5985 514.5327,100.5545" id="Fill-47" fill="#F17171"></path>
                </g>
            </g>
        </g>
    </g>
</svg>