<?xml version="1.0" encoding="UTF-8"?>
<svg width="243px" height="165px" viewBox="0 0 243 165" version="1.1" xmlns="http://www.w3.org/2000/svg" xmlns:xlink="http://www.w3.org/1999/xlink">
    <!-- Generator: Sketch 51.3 (57544) - http://www.bohemiancoding.com/sketch -->
    <title>img_elastycznosc</title>
    <desc>Created with Sketch.</desc>
    <defs>
        <path d="M19.209,7.804 L22.357,14.389 L15.497,11.011 C15.301,11.203 15.107,11.399 14.917,11.598 L22.634,19.235 L11.347,15.926 C9.281,18.869 7.638,22.175 6.503,25.777 L2.267,24.534 C1.865,26.01 1.557,27.493 1.345,28.971 L12.038,32.108 L0.996,33.276 C0.927,36.64 1.329,39.948 2.164,43.125 L21.41,41.086 L3.868,48.105 C6.259,53.722 10.059,58.708 14.962,62.509 L25.823,52.275 L18.073,64.662 C20.763,66.323 23.711,67.659 26.89,68.588 C28.835,69.159 30.791,69.554 32.739,69.792 L33.92,54.65 L35.668,70.028 C44.057,70.353 52.174,67.709 58.694,62.817 L55.547,56.23 L62.407,59.611 C62.604,59.417 62.796,59.221 62.987,59.025 L55.269,51.386 L66.558,54.696 C68.621,51.752 70.267,48.447 71.402,44.845 L75.636,46.088 C76.038,44.611 76.348,43.129 76.558,41.651 L65.866,38.514 L76.908,37.345 C76.978,33.982 76.572,30.675 75.741,27.499 L56.493,29.535 L74.035,22.517 C71.645,16.9 67.846,11.915 62.942,8.114 L52.08,18.348 L59.83,5.959 C57.142,4.299 54.19,2.963 51.014,2.033 C49.068,1.463 47.112,1.067 45.164,0.83 L43.984,15.972 L42.236,0.594 C41.774,0.576 41.311,0.567 40.851,0.567 C32.954,0.567 25.37,3.182 19.209,7.804 Z M32.924,48.023 C25.408,45.817 25.077,39.294 27.14,31.833 L27.073,31.811 C29.614,24.503 37.472,20.397 44.98,22.598 C52.496,24.804 52.829,31.328 50.763,38.791 L50.831,38.811 C48.755,44.783 43.127,48.617 37.041,48.618 C35.68,48.618 34.297,48.426 32.924,48.023 Z" id="path-1"></path>
        <path d="M19.209,7.805 L22.357,14.39 L15.497,11.011 C15.301,11.204 15.107,11.399 14.917,11.598 L22.634,19.235 L11.347,15.926 C9.281,18.869 7.638,22.175 6.503,25.777 L2.267,24.534 C1.865,26.01 1.557,27.493 1.345,28.972 L12.038,32.109 L0.996,33.277 C0.927,36.64 1.329,39.948 2.164,43.125 L21.41,41.086 L3.868,48.105 C6.259,53.722 10.059,58.708 14.962,62.509 L25.823,52.275 L18.073,64.663 C20.763,66.323 23.711,67.66 26.89,68.588 C28.835,69.159 30.791,69.555 32.739,69.792 L33.92,54.651 L35.668,70.028 C44.057,70.353 52.174,67.71 58.694,62.818 L55.547,56.23 L62.407,59.611 C62.604,59.417 62.796,59.222 62.987,59.025 L55.269,51.386 L66.558,54.696 C68.621,51.753 70.267,48.447 71.402,44.845 L75.636,46.088 C76.038,44.612 76.348,43.129 76.558,41.652 L65.866,38.515 L76.908,37.345 C76.978,33.982 76.572,30.675 75.741,27.499 L56.493,29.535 L74.035,22.517 C71.645,16.9 67.846,11.915 62.942,8.114 L52.08,18.348 L59.83,5.96 C57.142,4.299 54.19,2.964 51.014,2.034 C49.068,1.463 47.112,1.068 45.164,0.83 L43.984,15.973 L42.236,0.594 C41.774,0.576 41.311,0.567 40.851,0.567 C32.954,0.567 25.369,3.182 19.209,7.805 Z M32.924,48.024 C25.408,45.817 25.077,39.294 27.14,31.833 L27.073,31.811 C29.614,24.504 37.472,20.397 44.98,22.598 C52.496,24.804 52.829,31.328 50.763,38.791 L50.831,38.811 C48.754,44.784 43.127,48.617 37.042,48.618 C35.68,48.618 34.297,48.427 32.924,48.024 Z" id="path-3"></path>
        <polygon id="path-5" points="0 0.3541 172.0509 0.3541 172.0509 57.2221 0 57.2221"></polygon>
    </defs>
    <g id="Page-1" stroke="none" stroke-width="1" fill="none" fill-rule="evenodd">
        <g id="Afterfit-Home-–-final" transform="translate(-439.000000, -1028.000000)">
            <g id="img_elastycznosc" transform="translate(439.000000, 1027.000000)">
                <g>
                    <g id="Group-7" transform="translate(77.000000, 23.760000)">
                        <path d="M8.2572,36.7026 C8.2572,36.7026 8.7362,35.2266 10.0342,35.3146 C11.3312,35.4016 12.7202,35.7376 12.7202,35.7376 C12.7202,35.7376 14.4032,35.4376 15.3772,35.8906 C16.3512,36.3426 16.7952,37.9376 16.7952,37.9376 C16.7952,37.9376 18.1572,38.1066 18.6142,39.4516 C19.0712,40.7956 18.8372,42.0766 18.8372,42.0766 C18.8372,42.0766 20.2612,43.6646 19.9032,44.9906 C19.9032,44.9906 20.1322,46.3846 19.4622,47.0516 C19.4622,47.0516 20.7872,48.0776 19.2332,50.6496 C19.2332,50.6496 19.2252,52.5516 17.2412,53.2776 C17.2412,53.2776 16.7502,54.3366 15.5462,54.6006 C15.5462,54.6006 14.6572,55.6296 12.5412,55.4196 C12.5412,55.4196 11.4102,56.7476 9.1122,54.5996 C9.1122,54.5996 6.7292,54.5236 5.7382,52.7766 C5.7382,52.7766 3.9642,52.8286 2.8362,51.3786 C2.8362,51.3786 1.4622,50.1236 1.6042,49.2636 C1.6042,49.2636 -0.5948,48.3456 0.4352,45.6826 C0.4352,45.6826 -0.1798,43.2356 1.4142,42.0196 C1.4142,42.0196 1.4792,39.2196 3.8202,39.2756 C3.8202,39.2756 4.6322,37.7486 6.4352,37.9676 C6.4352,37.9676 6.7902,36.5366 8.2572,36.7026" id="Fill-1" fill="#F1466F"></path>
                        <path d="M8.4554,38.4937 C8.4554,38.4937 8.4554,39.9347 9.3284,40.4947 C9.3284,40.4947 8.5404,41.4157 8.8494,41.9707 C8.8494,41.9707 7.8024,43.3387 8.1234,44.3097 C8.1234,44.3097 7.4824,45.2487 7.7774,46.0547 C7.7774,46.0547 7.3224,45.4827 5.8644,45.6297 C5.8644,45.6297 5.3434,44.9757 4.6724,44.8707 C4.6724,44.8707 4.8564,44.0297 4.1984,43.6727 C4.1984,43.6727 4.9304,42.9827 4.8474,42.2747 C4.8474,42.2747 6.4984,41.5997 6.7724,40.2347 L8.4554,38.4937 Z" id="Fill-3" fill="#ED174B"></path>
                        <path d="M51.9241,48.0239 C44.4081,45.8169 44.0761,39.2939 46.1401,31.8319 L46.0731,31.8109 C48.6141,24.5029 56.4711,20.3969 63.9801,22.5969 C71.4961,24.8029 71.8281,31.3279 69.7621,38.7909 L69.8311,38.8099 C67.2901,46.1189 59.4331,50.2249 51.9241,48.0239 Z M95.9081,37.3449 C95.9771,33.9819 95.5721,30.6739 94.7411,27.4989 L75.4931,29.5349 L93.0351,22.5159 C90.6461,16.8999 86.8461,11.9149 81.9421,8.1139 L71.0811,18.3469 L78.8301,5.9599 C76.1421,4.2979 73.1911,2.9629 70.0141,2.0329 C68.0681,1.4629 66.1121,1.0669 64.1641,0.8299 L62.9851,15.9719 L61.2371,0.5939 C52.8451,0.2689 44.7301,2.9119 38.2091,7.8039 L41.3571,14.3889 L34.4971,11.0099 C34.3001,11.2029 34.1071,11.3989 33.9171,11.5969 L41.6331,19.2349 L30.3461,15.9249 C28.2811,18.8689 26.6381,22.1739 25.5021,25.7769 L21.2671,24.5339 C20.8651,26.0099 20.5561,27.4929 20.3451,28.9709 L31.0381,32.1079 L19.9961,33.2769 C19.9271,36.6389 20.3291,39.9479 21.1631,43.1239 L40.4091,41.0859 L22.8681,48.1049 C25.2581,53.7209 29.0591,58.7079 33.9621,62.5079 L44.8221,52.2749 L37.0731,64.6619 C39.7621,66.3229 42.7111,67.6589 45.8901,68.5879 C47.8351,69.1589 49.7911,69.5539 51.7381,69.7919 L52.9201,54.6499 L54.6671,70.0269 C63.0571,70.3519 71.1741,67.7099 77.6941,62.8169 L74.5481,56.2299 L81.4071,59.6109 C81.6041,59.4179 81.7961,59.2209 81.9871,59.0249 L74.2681,51.3849 L85.5581,54.6959 C87.6211,51.7529 89.2671,48.4469 90.4011,44.8439 L94.6361,46.0869 C95.0381,44.6119 95.3471,43.1279 95.5581,41.6509 L84.8661,38.5139 L95.9081,37.3449 Z" id="Fill-5" fill="#ED174B"></path>
                    </g>
                    <g id="Group-10" transform="translate(96.000000, 23.760000)">
                        <mask id="mask-2" fill="white">
                            <use xlink:href="#path-1"></use>
                        </mask>
                        <g id="Clip-9"></g>
                        <polygon id="Fill-8" fill="#ED174B" mask="url(#mask-2)" points="-18.132 4408 1094.3 4408 1094.3 -355.759 -18.132 -355.759"></polygon>
                    </g>
                    <g id="Group-13" transform="translate(96.000000, 23.760000)">
                        <mask id="mask-4" fill="white">
                            <use xlink:href="#path-3"></use>
                        </mask>
                        <g id="Clip-12"></g>
                        <polygon id="Fill-11" fill="#ED174B" mask="url(#mask-4)" points="-1.908 72.951 79.813 72.951 79.813 -2.329 -1.908 -2.329"></polygon>
                    </g>
                    <g id="Group-39" transform="translate(0.000000, 0.760000)">
                        <polygon id="Fill-14" fill="#FEDF88" points="201.7928 3.3301 202.5828 17.6551 197.2418 26.4371 184.2908 41.9641 180.1438 53.8901 183.8478 84.9631 194.7668 115.2601 219.4758 137.6201 241.7588 139.0561 233.9118 120.2431 200.5828 48.1401 206.6558 16.7641 208.7548 0.2401"></polygon>
                        <polygon id="Fill-16" fill="#FEBE10" points="208.7552 0.2402 216.0392 4.3552 211.3682 14.9862 207.4172 26.8252 211.7172 41.3452 214.2352 65.9822 221.2922 86.6982 242.4742 134.4602 241.7592 139.0562 235.2672 130.6262 209.0462 107.4082 189.3242 59.3862 189.0452 45.9782 202.0512 25.6162 206.6562 16.7642"></polygon>
                        <g id="Group-20" transform="translate(0.000000, 75.000000)">
                            <mask id="mask-6" fill="white">
                                <use xlink:href="#path-5"></use>
                            </mask>
                            <g id="Clip-19"></g>
                            <polygon id="Fill-18" fill="#F9BFB5" mask="url(#mask-6)" points="1.4339 8.8081 12.5019 28.0141 70.6819 57.2221 101.6509 57.2221 140.3989 36.4701 172.0509 0.3541 -0.0001 0.3541"></polygon>
                        </g>
                        <path d="M43.1746,56.3833 L44.4366,56.6243 C54.7506,56.3563 64.7176,56.7503 72.1876,65.9253 C55.7816,65.9443 39.6736,65.9623 23.2846,65.9803 C29.2866,61.3223 34.9926,56.4813 43.1746,56.3833" id="Fill-21" fill="#30387C"></path>
                        <path d="M12.4686,110.8062 C12.5206,104.8332 12.5316,98.8612 12.6316,92.8882 C12.6706,90.5582 14.4786,89.7332 16.3286,89.5082 C18.4976,89.2442 20.7226,89.4412 23.2546,89.4392 C23.2636,97.7562 23.2726,105.6952 23.2816,113.7812 C20.5656,113.7842 18.0436,113.8622 15.5286,113.7642 C13.7326,113.6942 12.4506,112.8792 12.4686,110.8062 M3.7306,93.5262 C3.7326,95.4982 3.6906,97.4732 3.7456,99.4442 C3.9136,105.4312 4.0056,111.4242 4.3516,117.4022 C4.5796,121.2922 5.5456,122.4652 9.4446,123.0032 C13.0616,123.5012 16.7686,123.3512 20.4376,123.4712 C21.3496,123.5002 22.2646,123.4732 23.5986,123.4722 C23.6006,124.7382 23.5556,125.8552 23.6116,126.9672 C23.7756,130.2782 25.1896,132.0592 28.4486,132.7712 C30.2346,133.1602 32.0896,133.4282 33.9116,133.4242 C44.0176,133.4032 54.1236,133.2852 64.2286,133.1822 C64.8356,133.1762 65.4496,133.0532 66.0466,132.9242 C71.0046,131.8552 72.3506,130.3112 72.4466,125.2102 C72.6356,115.0672 72.7936,104.9222 72.8646,94.7782 C72.9296,85.6562 72.8606,76.5322 72.8496,66.8972 C71.9836,67.5752 71.4766,67.8562 71.1206,68.2682 C67.2316,72.7802 62.0446,74.1052 56.3916,74.6462 C48.6106,75.3922 40.9416,75.2222 33.3906,73.0042 C29.4736,71.8542 25.5896,70.6612 22.9586,66.5322 C22.9646,71.6052 22.9686,76.1402 22.9746,80.8012 C17.7316,81.0362 15.4016,81.2692 10.1216,81.5062 C10.1216,81.5062 3.5176,93.4792 3.7306,93.5262" id="Fill-23" fill="#30387C"></path>
                        <path d="M139.8597,142.2261 C139.8597,142.2261 138.3817,142.7011 137.6937,141.5971 C137.0057,140.4931 136.4667,139.1701 136.4667,139.1701 C136.4667,139.1701 135.2397,137.9801 135.0367,136.9261 C134.8337,135.8721 135.8687,134.5791 135.8687,134.5791 C135.8687,134.5791 135.2097,133.3741 136.0327,132.2171 C136.8567,131.0611 138.0327,130.5011 138.0327,130.5011 C138.0327,130.5011 138.4867,128.4171 139.7727,127.9321 C139.7727,127.9321 140.7687,126.9321 141.7017,127.0851 C141.7017,127.0851 141.7597,125.4111 144.7557,125.1671 C144.7557,125.1671 146.3027,124.0611 148.0517,125.2471 C148.0517,125.2471 149.1977,125.0261 150.1167,125.8481 C150.1167,125.8481 151.4707,125.9671 152.5377,127.8071 C152.5377,127.8071 154.2767,127.9481 153.8787,131.0671 C153.8787,131.0671 155.2097,133.0451 154.3717,134.8711 C154.3717,134.8711 155.4517,136.2801 154.9347,138.0431 C154.9347,138.0431 154.7197,139.8911 153.9387,140.2791 C153.9387,140.2791 154.4797,142.6001 151.7187,143.3211 C151.7187,143.3211 150.0927,145.2501 148.1737,144.6681 C148.1737,144.6681 145.8637,146.2531 144.5417,144.3211 C144.5417,144.3211 142.8277,144.5561 141.9507,142.9651 C141.9507,142.9651 140.5827,143.5131 139.8597,142.2261" id="Fill-25" fill="#F1466F"></path>
                        <path d="M141.1961,141.0181 C141.1961,141.0181 142.3651,140.1751 142.3091,139.1401 C142.3091,139.1401 143.5171,139.2411 143.7861,138.6651 C143.7861,138.6651 145.5081,138.7151 146.1091,137.8861 C146.1091,137.8861 147.2441,137.8581 147.7261,137.1481 C147.7261,137.1481 147.5291,137.8511 148.5001,138.9481 C148.5001,138.9481 148.2741,139.7521 148.5811,140.3591 C148.5811,140.3591 147.7911,140.7011 147.8861,141.4431 C147.8861,141.4431 146.8991,141.2521 146.3731,141.7341 C146.3731,141.7341 144.8611,140.7891 143.5921,141.3661 L141.1961,141.0181 Z" id="Fill-27" fill="#ED174B"></path>
                        <path d="M166.0555,145.8735 C166.0555,145.8735 165.1155,145.4615 165.2575,144.6125 C165.4005,143.7655 165.7115,142.8725 165.7115,142.8725 C165.7115,142.8725 165.6245,141.7455 165.9855,141.1345 C166.3475,140.5215 167.4265,140.3345 167.4265,140.3345 C167.4265,140.3345 167.6265,139.4485 168.5415,139.2355 C169.4555,139.0225 170.2845,139.2615 170.2845,139.2615 C170.2845,139.2615 171.4225,138.4275 172.2715,138.7495 C172.2715,138.7495 173.2035,138.6895 173.5985,139.1745 C173.5985,139.1745 174.3615,138.3695 175.9525,139.5615 C175.9525,139.5615 177.2035,139.6895 177.5525,141.0435 C177.5525,141.0435 178.2165,141.4365 178.3125,142.2455 C178.3125,142.2455 178.9315,142.8975 178.6545,144.2765 C178.6545,144.2765 179.4545,145.1075 177.8915,146.4795 C177.8915,146.4795 177.6845,148.0445 176.4705,148.5815 C176.4705,148.5815 176.3885,149.7535 175.3605,150.4005 C175.3605,150.4005 174.4445,151.2235 173.8875,151.0725 C173.8875,151.0725 173.1395,152.4605 171.4545,151.6085 C171.4545,151.6085 169.8045,151.8525 169.1075,150.7255 C169.1075,150.7255 167.2685,150.4995 167.4595,148.9625 C167.4595,148.9625 166.5065,148.3275 166.7685,147.1555 C166.7685,147.1555 165.8505,146.8285 166.0555,145.8735" id="Fill-29" fill="#F1466F"></path>
                        <path d="M167.2474,145.8599 C167.2474,145.8599 168.1954,145.9539 168.6214,145.4169 C168.6214,145.4169 169.1764,145.9949 169.5614,145.8279 C169.5614,145.8279 170.3934,146.6059 171.0544,146.4589 C171.0544,146.4589 171.6294,146.9419 172.1794,146.7999 C172.1794,146.7999 171.7734,147.0629 171.7744,148.0319 C171.7744,148.0319 171.3104,148.3319 171.1974,148.7669 C171.1974,148.7669 170.6554,148.5899 170.3774,149.0009 C170.3774,149.0009 169.9714,148.4729 169.5004,148.4819 C169.5004,148.4819 169.1644,147.3509 168.2834,147.0819 L167.2474,145.8599 Z" id="Fill-31" fill="#ED174B"></path>
                        <path d="M95.3807,156.1177 C95.3807,156.1177 94.1277,155.4477 94.3317,153.9037 L94.5937,153.1457 C94.5937,153.1457 93.5737,151.9517 94.1567,150.4357 C94.7397,148.9207 95.0597,148.3667 95.0597,148.3667 C95.0597,148.3667 94.6707,146.6567 95.6727,146.0647 C95.6727,146.0647 95.4857,144.4077 97.6537,144.4627 C97.6537,144.4627 97.7407,143.3847 99.1397,142.4807 C99.1397,142.4807 99.3727,141.7527 101.1797,141.2277 C101.1797,141.2277 102.1827,140.6557 103.3067,140.8487 C103.3067,140.8487 103.5977,140.1497 104.9097,140.2957 C104.9097,140.2957 106.2207,140.4097 106.9197,140.9787 C106.9197,140.9787 108.7557,141.2577 109.9217,141.8107 C109.9217,141.8107 112.9227,143.5887 113.7387,145.3367 C113.7387,145.3367 114.7297,146.4437 114.0297,147.2017 L110.5047,146.7937 L106.2207,143.2387 L102.5197,142.8307 L101.7507,147.0447 L98.1497,146.4147 L96.2557,150.6107 L95.3807,156.1177 Z" id="Fill-33" fill="#ED174B"></path>
                        <path d="M99.8211,146.6685 C99.8211,146.6685 98.7451,145.6335 99.8211,144.5185 C100.8961,143.4025 101.6531,143.9585 101.6531,143.9585 C101.6531,143.9585 100.6971,142.7655 102.1711,142.1675 L103.6451,141.5695 C103.6451,141.5695 103.8431,140.8145 105.6361,141.0125 C105.6361,141.0125 107.1501,140.7735 107.4281,142.0085 C107.4281,142.0085 107.8661,141.4905 108.9021,142.1275 C108.9021,142.1275 110.2961,142.7315 110.1761,143.8235 C110.1761,143.8235 110.9331,143.3225 111.5711,144.5975 L112.2731,145.9115 C112.2731,145.9115 114.0411,145.4375 114.0411,147.4675 C114.0411,147.4675 115.5141,147.8635 115.8721,149.0585 C115.8721,149.0585 116.9081,150.7305 116.1511,151.3285 C116.1511,151.3285 117.0551,152.8515 116.0711,153.7185 C116.0711,153.7185 116.8681,156.1075 115.4741,157.4225 C115.4741,157.4225 114.6351,161.5245 112.6451,162.1225 C112.6451,162.1225 111.8491,163.3975 109.8181,163.6365 C109.8181,163.6365 107.1891,165.4685 105.6361,164.5925 C105.6361,164.5925 102.8741,165.1725 101.5271,163.9265 C101.5271,163.9265 98.5861,163.4775 98.7851,161.5645 C98.7851,161.5645 95.4001,160.1315 95.9971,158.1395 C95.9971,158.1395 94.6431,156.7855 95.2401,155.5105 C95.2401,155.5105 94.6031,153.4045 95.7181,152.9035 C95.7181,152.9035 94.8821,149.9745 96.1171,149.2975 C96.1171,149.2975 95.2401,146.4695 96.6751,145.4735 C96.6751,145.4735 98.2671,144.1595 99.8211,146.6685" id="Fill-35" fill="#F1466F"></path>
                        <path d="M105.2005,148.5132 C105.2005,148.5132 106.0455,149.7942 103.6275,151.1062 C103.6275,151.1062 104.5595,152.6272 102.7535,154.1982 C102.7535,154.1982 102.2285,154.9232 102.7535,155.4182 C102.7535,155.4182 103.6275,155.2732 104.2395,156.0012 C104.2395,156.0012 104.8745,155.8262 105.3435,156.3222 C105.3435,156.3222 105.6965,155.7102 107.1535,155.6522 C107.1535,155.6522 107.6195,155.4772 108.4935,155.8562 C108.4935,155.8562 108.2895,155.2732 109.1925,154.3992 C109.1925,154.3992 109.4545,153.4502 110.3005,152.9042 C110.3005,152.9042 109.7175,152.3012 109.8915,151.3102 C109.8915,151.3102 108.4645,151.3102 108.1725,149.8822 C108.1725,149.8822 106.6875,149.0952 106.4975,148.0762 C106.4975,148.0762 106.1625,148.5132 105.2005,148.5132" id="Fill-37" fill="#ED174B"></path>
                    </g>
                </g>
            </g>
        </g>
    </g>
</svg>