<?xml version="1.0" encoding="UTF-8"?>
<svg width="248px" height="161px" viewBox="0 0 248 161" version="1.1" xmlns="http://www.w3.org/2000/svg" xmlns:xlink="http://www.w3.org/1999/xlink">
    <!-- Generator: Sketch 51.3 (57544) - http://www.bohemiancoding.com/sketch -->
    <title>img_roznorodnosc</title>
    <desc>Created with Sketch.</desc>
    <defs>
        <polygon id="path-1" points="0.3864 0.456658518 18.592 0.456658518 18.592 7.41727082 0.3864 7.41727082"></polygon>
        <polygon id="path-3" points="0.732908987 0.832 6.61817552 0.832 6.61817552 9 0.732908987 9"></polygon>
    </defs>
    <g id="Page-1" stroke="none" stroke-width="1" fill="none" fill-rule="evenodd">
        <g id="Afterfit-Home-–-final" transform="translate(-836.000000, -1022.000000)">
            <g id="img_roznorodnosc" transform="translate(836.000000, 1022.000000)">
                <g id="Group-53">
                    <path d="M119.1989,92.9393 C120.2899,96.4603 123.2879,101.8513 126.6119,103.4603 C137.7449,108.8523 149.3369,111.0113 161.5729,107.8223 C171.0589,105.3493 178.3129,99.3433 185.1889,92.7633 C193.7689,84.5483 200.1519,74.6143 206.8029,64.8983 C208.2369,62.8053 209.5119,60.6053 210.8569,58.4533 C210.6509,58.2193 210.6689,58.2403 210.4619,58.0063 C193.2659,66.1783 176.0719,74.3473 158.8769,82.5173 C158.7579,82.3163 158.6369,82.1143 158.5179,81.9113 C173.2529,74.7523 186.6809,65.8313 197.1639,53.0623 C207.5619,40.4003 216.8909,27.1023 220.7539,10.4483 L217.5459,9.5003 C198.8609,27.8803 180.3149,46.1223 161.8009,64.3333 C160.8529,63.4353 161.2769,63.8363 160.3289,62.9393 C177.2689,43.7223 194.2079,24.5043 211.1469,5.2873 C189.3599,13.9673 172.5229,29.1823 157.0079,45.9783 C161.7669,30.6713 166.5169,15.3943 171.3039,0.0003 C171.3039,0.0003 107.8229,56.2263 119.1989,92.9393" id="Fill-1" fill="#30387C"></path>
                    <path d="M148.9889,157.661 C148.8109,157.633 148.6339,157.606 148.4569,157.581" id="Fill-3" fill="#30387C"></path>
                    <path d="M88.0983,79.163 L96.0263,57.568 C96.0263,57.568 100.5893,48.934 116.2493,51.995 C131.9093,55.057 131.4683,61.488 132.2693,71.487 C133.0723,81.484 145.6413,100.695 145.6413,100.695 C145.6413,100.695 157.1133,116.575 148.2493,127.761 C141.4913,136.29 123.7763,151.934 106.6663,141.066 C89.5583,130.199 79.5773,116.627 88.0983,79.163" id="Fill-5" fill="#D1D3E2"></path>
                    <path d="M148.2497,127.7606 C158.9557,125.9006 123.7767,151.9336 106.6667,141.0666 C89.5587,130.1986 79.5777,116.6266 88.0987,79.1626 L96.0267,57.5686 L110.5127,84.3596 L117.5267,114.8226 L126.7667,112.8496 C126.7667,112.8496 119.6937,132.7246 148.2497,127.7606" id="Fill-7" fill="#8C90B6"></path>
                    <path d="M103.4748,100.828 C103.4748,100.828 99.7108,90.631 104.3568,87.966 C109.0028,85.303 119.8798,78.591 125.4318,91.648 C130.9848,104.706 131.0558,118.132 123.5988,118.365 C116.1438,118.6 107.3408,109.544 103.4748,100.828" id="Fill-9" fill="#EF2F5D"></path>
                    <path d="M0.0002,83.4013 L5.2712,134.7983 C5.2712,134.7983 22.0342,144.5453 39.1872,141.4253 C56.3392,138.3073 77.3902,133.2393 80.5092,124.6633 L72.5122,70.0863 L5.6612,81.8433 L0.0002,83.4013 Z" id="Fill-11" fill="#F9BFB5"></path>
                    <path d="M2.1525,89.1884 L16.9655,101.2734 L50.1015,98.1544 L68.4235,84.9004 C68.4235,84.9004 82.8475,59.5604 57.5085,62.6794 C32.1695,65.7974 -5.6445,67.3574 2.1525,89.1884" id="Fill-13" fill="#ED174B"></path>
                    <path d="M14.2604,88.8622 L17.9374,92.7142 C17.9374,92.7142 23.7154,94.6392 23.7154,93.9392 L23.7154,86.0602 L18.4624,81.8432 L13.3854,83.6092 L14.2604,88.8622 Z" id="Fill-15" fill="#757AA7"></path>
                    <polygon id="Fill-17" fill="#A3A7C5" points="50.5612 92.0136 61.5322 80.9836 65.7722 67.1556 42.7012 68.8306 26.7972 89.6456 35.3502 94.0926"></polygon>
                    <path d="M31.9518,88.3095 L35.4648,84.3075 C35.4648,84.3075 36.8728,78.3825 36.1758,78.4445 C35.4778,78.5065 28.3278,79.1395 28.3278,79.1395 L24.5898,84.7435 L26.7978,89.6455 L31.9518,88.3095 Z" id="Fill-19" fill="#757AA7"></path>
                    <polygon id="Fill-21" fill="#19226D" points="25.8156 80.8085 24.5896 62.4125 27.7416 48.4185 27.7416 65.5765 28.7926 81.8435 25.8156 86.0605"></polygon>
                    <polygon id="Fill-23" fill="#19226D" points="33.8361 80.8085 35.7621 48.4185 35.7621 65.5765 36.8131 81.8435 33.8361 86.0605"></polygon>
                    <polygon id="Fill-25" fill="#19226D" points="43.9577 72.0546 42.7317 53.6586 45.5997 65.4836 46.9347 73.0886 43.9577 77.3066"></polygon>
                    <path d="M194.6803,142.6151 C194.6803,142.6151 195.9443,144.4141 198.0763,144.2611 C200.2083,144.1061 202.1843,141.8201 202.1843,141.8201 C202.1843,141.8201 197.8573,139.4861 194.6803,142.6151" id="Fill-27" fill="#FEBE10"></path>
                    <path d="M161.9626,116.9022 C161.9626,116.9022 163.2636,119.0852 165.7336,119.0902 C168.2006,119.0972 170.6756,116.6352 170.6756,116.6352 C170.6756,116.6352 165.8926,113.5732 161.9626,116.9022" id="Fill-29" fill="#FEBE10"></path>
                    <path d="M153.7448,152.0429 C153.7448,152.0429 158.1908,151.3239 159.8128,147.2599 C161.4368,143.1929 158.9948,137.5069 158.9948,137.5069 C158.9948,137.5069 150.8238,143.3919 153.7448,152.0429" id="Fill-31" fill="#FEBE10"></path>
                    <g id="Group-35" transform="translate(229.000000, 122.211000)">
                        <mask id="mask-2" fill="white">
                            <use xlink:href="#path-1"></use>
                        </mask>
                        <g id="Clip-34"></g>
                        <path d="M0.3864,1.3739 C0.3864,1.3739 1.4794,5.7449 5.6674,7.0189 C9.8534,8.2919 18.5924,6.1069 18.5924,6.1069 C18.5924,6.1069 8.7614,-2.2671 0.3864,1.3739" id="Fill-33" fill="#FEBE10" mask="url(#mask-2)"></path>
                    </g>
                    <path d="M210.6427,128.6142 C210.6427,128.6142 210.8337,131.0292 212.9447,132.1132 C215.0557,133.1982 218.2157,132.1962 218.2157,132.1962 C218.2157,132.1962 215.4157,127.5122 210.6427,128.6142" id="Fill-36" fill="#FEBE10"></path>
                    <path d="M175.5256,122.6679 C175.5256,122.6679 171.2076,127.4389 173.0246,133.4209 C174.8426,139.4039 182.6426,143.5689 182.6426,143.5689 C182.6426,143.5689 186.5056,129.7109 175.5256,122.6679" id="Fill-38" fill="#FEBE10"></path>
                    <g id="Group-42" transform="translate(167.000000, 151.211000)">
                        <mask id="mask-4" fill="white">
                            <use xlink:href="#path-3"></use>
                        </mask>
                        <g id="Clip-41"></g>
                        <path d="M0.7551,8.95 C0.7551,8.95 3.7131,9.461 5.4211,7.224 C7.1291,4.989 6.5081,0.832 6.5081,0.832 C6.5081,0.832 0.3171,2.803 0.7551,8.95" id="Fill-40" fill="#FEBE10" mask="url(#mask-4)"></path>
                    </g>
                    <path d="M194.1144,94.619 C194.1144,94.619 196.5824,96.329 199.0724,95.019 C201.5634,93.712 202.7504,89.681 202.7504,89.681 C202.7504,89.681 196.3064,88.858 194.1144,94.619" id="Fill-43" fill="#FEBE10"></path>
                    <path d="M180.8049,113.5497 C180.8049,113.5497 182.8069,117.2297 186.7319,117.1637 C190.6579,117.0987 194.6699,112.8217 194.6699,112.8217 C194.6699,112.8217 187.1579,107.7497 180.8049,113.5497" id="Fill-45" fill="#FEBE10"></path>
                    <path d="M150.2624,94.3124 C150.2624,94.3124 154.0674,90.9004 152.8864,86.2614 C151.7044,81.6234 144.3054,74.5784 144.3054,74.5784 C144.3054,74.5784 141.5944,88.4034 150.2624,94.3124" id="Fill-47" fill="#FEBE10"></path>
                    <path d="M163.0143,99.0634 C163.0143,99.0634 167.3533,100.1034 170.1643,96.9624 C172.9753,93.8204 172.5563,87.6164 172.5563,87.6164 C172.5563,87.6164 163.1103,89.9294 163.0143,99.0634" id="Fill-49" fill="#FEBE10"></path>
                    <path d="M242.8962,104.0888 C242.8962,104.0888 246.1922,101.3468 245.3432,97.4178 C244.4952,93.4868 239.4012,90.3128 239.4012,90.3128 C239.4012,90.3128 235.8052,98.8668 242.8962,104.0888" id="Fill-51" fill="#FEBE10"></path>
                </g>
            </g>
        </g>
    </g>
</svg>