<?xml version="1.0" encoding="UTF-8"?>
<svg width="232px" height="199px" viewBox="0 0 232 199" version="1.1" xmlns="http://www.w3.org/2000/svg" xmlns:xlink="http://www.w3.org/1999/xlink">
    <!-- Generator: Sketch 51.3 (57544) - http://www.bohemiancoding.com/sketch -->
    <title>img_jakosc</title>
    <desc>Created with Sketch.</desc>
    <defs>
        <polygon id="path-1" points="0.64636336 0.6996 191.311 0.6996 191.311 187.139228 0.64636336 187.139228"></polygon>
        <polygon id="path-3" points="0 0.7932 131.721 0.7932 131.721 112 0 112"></polygon>
    </defs>
    <g id="Page-1" stroke="none" stroke-width="1" fill="none" fill-rule="evenodd">
        <g id="Afterfit-Home-–-final" transform="translate(-1237.000000, -994.000000)">
            <g id="img_jakosc" transform="translate(1237.000000, 993.000000)">
                <g id="Group-21">
                    <path d="M24.7975,134.6636 C24.7975,134.6636 32.7695,130.7666 43.9295,133.2466 C43.9295,133.2466 42.5125,139.8016 24.7975,134.6636" id="Fill-1" fill="#040201"></path>
                    <g id="Group-5" transform="translate(40.000000, 0.301000)">
                        <mask id="mask-2" fill="white">
                            <use xlink:href="#path-1"></use>
                        </mask>
                        <g id="Clip-4"></g>
                        <path d="M153.6163,142.5326 C125.8923,145.2726 98.1873,148.0166 70.4643,150.7546 C70.3983,150.4166 70.3393,150.0776 70.2743,149.7366 C94.1013,147.1776 117.0023,141.5406 137.7533,129.1486 C158.3383,116.8606 177.7523,103.1686 191.3113,82.1496 L187.3673,79.2616 C142.6233,99.8956 98.3063,120.3356 53.9953,140.7706 C53.9003,140.5756 53.7993,140.3796 53.7103,140.1796 C96.0193,116.8866 138.3293,93.5886 180.6443,70.2936 C146.3463,71.4626 115.6483,84.0806 85.9763,99.5276 C100.1063,80.8076 114.1993,62.1266 128.3993,43.3006 C128.7913,43.5406 82.0033,85.7556 60.4923,108.3326 C60.3203,107.3166 60.6883,106.7736 61.0683,106.2356 C68.8843,94.9936 77.1213,84.0116 84.4213,72.4396 C94.1783,56.9896 100.0763,40.1706 99.2863,21.5396 C98.9833,14.1986 96.3163,7.6476 92.6463,0.6996 C71.4913,43.5316 50.6103,85.8176 29.7283,128.0946 C29.5443,128.0196 29.3663,127.9426 29.1883,127.8686 C40.5083,97.3006 51.8333,66.7386 63.1533,36.1676 C62.2563,36.2676 61.9353,36.6126 61.6563,36.9896 C45.7403,59.0206 29.6993,80.9736 13.9663,103.1416 C8.2943,111.1446 3.6023,119.7886 1.4523,129.5526 C-0.2517,137.3036 0.6333,144.7236 5.1943,151.2296 C8.2823,155.6516 11.9113,159.7636 15.6823,163.6216 C28.3453,176.5486 43.2403,185.2606 61.6623,186.9236 C75.9403,188.2126 88.9053,183.5356 101.6203,177.8786 C117.5013,170.8106 131.2023,160.2966 145.1653,150.2086 C148.2183,148.0056 151.0983,145.5726 154.0613,143.2486 C153.9133,143.0076 153.7593,142.7696 153.6163,142.5326" id="Fill-3" fill="#F9BFB5" mask="url(#mask-2)"></path>
                    </g>
                    <path d="M72.6832,158.0836 C76.0372,160.0776 79.4492,161.9766 83.1612,164.0866 C89.4892,157.4366 95.6502,150.7816 102.0362,144.3506 C104.2092,142.1606 105.0942,139.8496 105.0652,136.8546 C105.0332,133.3506 105.3342,129.8436 105.4912,126.3386 C105.6552,126.3246 105.8202,126.3126 105.9832,126.2986 C106.9992,129.4706 108.0152,132.6416 109.1522,136.1936 C121.8852,120.6446 135.4352,106.2196 140.7982,86.4336 C133.6852,84.2026 126.5212,81.2696 126.5612,81.1146 C134.0252,81.5056 134.6722,80.1146 142.2542,80.5126 C148.0402,64.2646 148.7372,47.5126 148.8492,31.0216 L147.3842,29.8036 C142.1652,33.5856 137.2822,37.1246 132.4102,40.6556 C133.7532,43.7286 134.9762,46.5236 136.1992,49.3186 C136.0462,49.3956 135.8942,49.4726 135.7402,49.5496 C133.5732,47.4976 131.4062,45.4456 129.0352,43.1996 C126.2132,45.4016 123.4792,47.5316 120.7512,49.6686 C107.0622,60.3856 94.3862,72.1416 83.9332,86.1116 C81.2972,89.6336 79.0972,93.4796 76.4112,97.6196 C83.4662,97.7086 89.6882,97.7866 95.9122,97.8636 C90.2862,99.9766 84.7272,102.0466 78.9902,103.3126 C74.6682,104.2656 72.7142,106.4316 71.6372,110.6376 C69.2052,120.1316 67.3612,129.6186 68.3472,139.7676 C73.0112,138.9726 77.4332,138.2186 81.8552,137.4646 C78.0832,139.9316 74.1892,141.9426 70.3902,144.1206 C69.7462,144.4896 69.0432,145.6686 69.1692,146.3166 C69.8372,149.7406 70.7322,153.1226 71.6262,156.4986 C71.7822,157.0886 72.1842,157.7886 72.6832,158.0836" id="Fill-6" fill="#19226D"></path>
                    <path d="M63.3688,156.483 C60.4528,157.849 57.4978,159.133 54.2788,160.568 C49.6178,154.594 45.0948,148.631 40.3688,142.835 C38.7608,140.861 38.2208,138.891 38.4858,136.433 C38.7948,133.558 38.8308,130.653 38.9848,127.762 C38.8508,127.738 38.7168,127.713 38.5828,127.689 C37.4928,130.212 36.4028,132.735 35.1818,135.561 C25.9788,121.762 16.0148,108.822 13.2058,92.138 C19.2278,90.88 25.3478,89.048 25.3278,88.919 C19.1668,88.638 18.7468,87.443 12.4878,87.158 C9.0468,73.346 9.8268,59.531 11.0648,45.978 L12.3668,45.096 C16.3478,48.623 20.0728,51.924 23.7888,55.217 C22.4378,57.632 21.2078,59.83 19.9778,62.027 C20.0978,62.102 20.2168,62.177 20.3358,62.253 C22.2818,60.743 24.2268,59.232 26.3558,57.579 C28.4958,59.616 30.5688,61.585 32.6378,63.56 C43.0158,73.467 52.4788,84.145 59.9358,96.462 C61.8168,99.568 63.3138,102.904 65.1858,106.521 C59.3848,106.025 54.2668,105.587 49.1498,105.148 C53.5998,107.337 57.9988,109.487 62.6088,110.989 C66.0808,112.12 67.5118,114.056 68.0568,117.598 C69.2868,125.592 70.0368,133.533 68.4088,141.789 C64.6418,140.759 61.0708,139.784 57.4998,138.807 C60.3978,141.138 63.4338,143.104 66.3788,145.199 C66.8778,145.554 67.3608,146.58 67.2038,147.102 C66.3788,149.86 65.3708,152.565 64.3648,155.266 C64.1888,155.738 63.8018,156.28 63.3688,156.483" id="Fill-8" fill="#19226D"></path>
                    <g id="Group-12" transform="translate(0.000000, 87.301000)">
                        <mask id="mask-4" fill="white">
                            <use xlink:href="#path-3"></use>
                        </mask>
                        <g id="Clip-11"></g>
                        <polygon id="Fill-10" fill="#FEBE10" mask="url(#mask-4)" points="41.028 36.4222 65.861 0.7932 83.215 40.7412 131.721 36.4222 86.375 73.1312 106.888 112.0002 53.984 77.4502 20.514 102.2822 37.789 61.2552 0 46.1392"></polygon>
                    </g>
                    <path d="M59.1857,127.8257 C59.1857,127.8257 55.0347,116.9287 61.2617,109.4047 C61.2617,109.4047 66.1907,115.1117 59.1857,127.8257" id="Fill-13" fill="#FFE59F"></path>
                    <path d="M73.4552,140.0201 C73.4552,140.0201 83.3142,136.1271 93.6922,140.0201 C93.6922,140.0201 90.0602,146.2471 73.4552,140.0201" id="Fill-15" fill="#FFE59F"></path>
                    <path d="M39.6779,162.2994 C39.6779,162.2994 41.8039,149.1904 48.3579,147.2414 C48.3579,147.2414 51.5759,152.2704 39.6779,162.2994" id="Fill-17" fill="#FFE59F"></path>
                    <path d="M69.6159,152.3785 C69.6159,152.3785 81.4849,156.2755 81.6619,167.6135 C81.6619,167.6135 69.4389,166.3735 69.6159,152.3785" id="Fill-19" fill="#FFE59F"></path>
                </g>
            </g>
        </g>
    </g>
</svg>